<?xml version="1.0" encoding="UTF-8"?>
<!-- Generated by jsxcad -->
<!DOCTYPE svg PUBLIC "-//W3C//DTD SVG 1.1 Tiny//EN" "http://www.w3.org/Graphics/SVG/1.1/DTD/svg11-tiny.dtd">
<svg baseProfile="tiny" height="74.26649746192896mm" width="75.00000000000006mm" viewBox="-37.50000000000003 -55.03130287648056 75.00000000000006 74.26649746192896" version="1.1" stroke="black" stroke-width=".1" fill="none" xmlns="http://www.w3.org/2000/svg">
<path fill="#000000" stroke="#000000" d="M5 6.2059221658206445 L5 4.441962774957701 L5 0.1962774957698839 L5 5.4983079526226755 z"/>
<path fill="#000000" stroke="#000000" d="M-5 4.441962774957698 L5 4.441962774957698 L5 6.2059221658206445 L-5 6.2059221658206445 z"/>
<path fill="#000000" stroke="#000000" d="M-5 4.4419627749577 L-5 0.1962774957698839 L5 0.1962774957698839 L5 4.4419627749577 z"/>
<path fill="#000000" stroke="#000000" d="M5 5.4983079526226755 L5 0.1962774957698839 L-5 0.1962774957698839 L-5 5.4983079526226755 z"/>
<path fill="#000000" stroke="#000000" d="M5 6.2059221658206445 L5 5.4983079526226755 L-5 5.4983079526226755 L-5 6.2059221658206445 z"/>
<path fill="#000000" stroke="#000000" d="M-5 4.441962774957701 L-5 6.2059221658206445 L-5 5.4983079526226755 L-5 0.1962774957698839 z"/>
<path fill="#000000" stroke="#000000" d="M-5 -11.456514382402704 L-5 4.441962774957701 L-5 2.3191201353637925 L-5 -13.579357021996612 z"/>
<path fill="#000000" stroke="#000000" d="M5 -11.456514382402707 L5 4.441962774957695 L-5 4.441962774957695 L-5 -11.456514382402707 z"/>
<path fill="#000000" stroke="#000000" d="M5 -13.579357021996612 L5 2.3191201353637925 L5 4.441962774957701 L5 -11.456514382402704 z"/>
<path fill="#000000" stroke="#000000" d="M-5 -13.579357021996616 L-5 2.319120135363785 L5 2.319120135363785 L5 -13.579357021996616 z"/>
<path fill="#000000" stroke="#000000" d="M-5 -11.456514382402702 L-5 -13.57935702199661 L5 -13.57935702199661 L5 -11.456514382402702 z"/>
<path fill="#000000" stroke="#000000" d="M-5 4.4419627749577 L5 4.4419627749577 L5 2.3191201353637925 L-5 2.3191201353637925 z"/>
<path fill="#bababa" stroke="#bababa" d="M37.426002316060185 5.634158506736957 L37.426002316060185 9.167153430594825 L37.5 10.833333333333332 L37.5 7.300338409475464 z"/>
<path fill="#bababa" stroke="#bababa" d="M37.204301299292915 3.9745542548693673 L37.204301299292915 7.507549178727235 L37.426002316060185 9.167153430594825 L37.42600231606018 5.634158506736957 z"/>
<path fill="#bababa" stroke="#bababa" d="M36.835771902325824 2.3280753536537557 L36.835771902325824 5.861070277511623 L37.204301299292915 7.507549178727234 L37.204301299292915 3.9745542548693673 z"/>
<path fill="#bababa" stroke="#bababa" d="M36.321868542323664 0.7012197031085681 L36.321868542323664 4.234214626966436 L36.835771902325824 5.861070277511623 L36.835771902325824 2.328075353653756 z"/>
<path fill="#bababa" stroke="#bababa" d="M35.664619361068254 -0.8995922407531559 L35.664619361068254 2.6334026831047117 L36.321868542323664 4.234214626966435 L36.321868542323664 0.7012197031085675 z"/>
<path fill="#bababa" stroke="#bababa" d="M30.33813728906052 -8.296856546661106 L30.33813728906052 -4.7638616228032395 L31.662297206325555 -3.385116264396144 L31.662297206325555 -6.91811118825401 z"/>
<path fill="#bababa" stroke="#bababa" d="M31.662297206325555 -6.918111188254012 L31.662297206325555 -3.3851162643961423 L32.861500501644876 -1.950257181218539 L32.861500501644876 -5.4832521050764065 z"/>
<path fill="#bababa" stroke="#bababa" d="M32.861500501644876 -5.483252105076406 L32.861500501644876 -1.9502571812185372 L33.93101446747573 -0.4649471065469657 L33.93101446747573 -3.9979420304048343 z"/>
<path fill="#bababa" stroke="#bababa" d="M33.93101446747573 -3.997942030404833 L33.93101446747573 -0.46494710654696475 L34.86661822080942 1.064952119327469 L34.86661822080942 -2.4680428045303997 z"/>
<path fill="#bababa" stroke="#bababa" d="M34.86661822080942 -2.468042804530398 L34.86661822080942 1.0649521193274687 L35.664619361068254 2.6334026831047117 L35.664619361068254 -0.8995922407531561 z"/>
<path fill="#bababa" stroke="#bababa" d="M27.33632352830292 -10.8644839064749 L27.33632352830292 -7.3314889826170315 L28.894246604092086 -6.0810519783990395 L28.894246604092082 -9.614046902256904 z"/>
<path fill="#bababa" stroke="#bababa" d="M25.67051647232581 -12.043232655729765 L25.67051647232581 -8.510237731871893 L27.336323528302916 -7.331488982617031 L27.336323528302923 -10.864483906474897 z"/>
<path fill="#bababa" stroke="#bababa" d="M23.903399615575854 -13.145641167227277 L23.903399615575854 -9.612646243369406 L25.670516472325815 -8.510237731871895 L25.67051647232581 -12.043232655729762 z"/>
<path fill="#bababa" stroke="#bababa" d="M22.04194696096773 -14.167358738215086 L22.041946960967724 -10.634363814357219 L23.903399615575857 -9.612646243369406 L23.903399615575854 -13.145641167227275 z"/>
<path fill="#bababa" stroke="#bababa" d="M20.09350481171235 -15.104353116218878 L20.09350481171235 -11.571358192361012 L22.04194696096772 -10.634363814357224 L22.04194696096772 -14.16735873821509 z"/>
<path fill="#bababa" stroke="#bababa" d="M18.065762778814303 -15.952926412500666 L18.065762778814303 -12.419931488642801 L20.09350481171235 -11.571358192361016 L20.09350481171235 -15.104353116218881 z"/>
<path fill="#bababa" stroke="#bababa" d="M28.894246604092086 -9.614046902256906 L28.894246604092082 -6.081051978399038 L30.33813728906052 -4.763861622803241 L30.33813728906052 -8.296856546661106 z"/>
<path fill="#bababa" stroke="#bababa" d="M15.966723433690204 -16.709729695936307 L15.966723433690204 -13.176734772078442 L18.065762778814303 -12.419931488642804 L18.065762778814303 -15.952926412500672 z"/>
<path fill="#bababa" stroke="#bababa" d="M13.804670725675406 -17.371776209716593 L13.804670725675406 -13.83878128585873 L15.966723433690204 -13.17673477207844 L15.966723433690204 -16.709729695936307 z"/>
<path fill="#bababa" stroke="#bababa" d="M11.588137289060509 -17.936453158711927 L11.588137289060509 -14.403458234854067 L13.804670725675406 -13.83878128585873 L13.804670725675406 -17.37177620971659 z"/>
<path fill="#bababa" stroke="#bababa" d="M9.325870768682034 -18.401532020980987 L9.325870768682034 -14.868537097123117 L11.588137289060509 -14.403458234854066 L11.588137289060509 -17.936453158711934 z"/>
<path fill="#bababa" stroke="#bababa" d="M7.026799296964653 -18.765177342728702 L7.026799296964653 -15.232182418870831 L9.325870768682034 -14.86853709712311 L9.325870768682034 -18.40153202098098 z"/>
<path fill="#bababa" stroke="#bababa" d="M4.699996258661388 -19.025953982003895 L4.699996258661388 -15.49295905814603 L7.026799296964653 -15.232182418870838 L7.026799296964653 -18.765177342728705 z"/>
<path fill="#bababa" stroke="#bababa" d="M2.3546444823492303 -19.182832772548856 L2.3546444823492303 -15.649837848690982 L4.699996258661388 -15.492959058146026 L4.699996258661388 -19.0259539820039 z"/>
<path fill="#bababa" stroke="#bababa" d="M-2.3546444823492716 -19.18283277254886 L-2.3546444823492716 -15.649837848690982 L-2.0436729480519324e-14 -15.702199661590527 L-2.0436729480519324e-14 -19.235194585448404 z"/>
<path fill="#bababa" stroke="#bababa" d="M-4.699996258661429 -19.02595398200389 L-4.699996258661429 -15.492959058146017 L-2.3546444823492716 -15.649837848690979 L-2.3546444823492716 -19.182832772548853 z"/>
<path fill="#bababa" stroke="#bababa" d="M-2.0436729480519324e-14 -19.235194585448404 L-2.0436729480519324e-14 -15.702199661590527 L2.3546444823492303 -15.649837848690982 L2.3546444823492303 -19.18283277254886 z"/>
<path fill="#bababa" stroke="#bababa" d="M-11.588137289060548 -17.93645315871192 L-11.588137289060548 -14.403458234854055 L-9.325870768682075 -14.868537097123111 L-9.325870768682075 -18.401532020980977 z"/>
<path fill="#bababa" stroke="#bababa" d="M-13.804670725675441 -17.37177620971659 L-13.804670725675441 -13.83878128585872 L-11.588137289060548 -14.403458234854057 L-11.588137289060548 -17.936453158711924 z"/>
<path fill="#bababa" stroke="#bababa" d="M-15.96672343369024 -16.709729695936296 L-15.96672343369024 -13.176734772078431 L-13.804670725675441 -13.83878128585872 L-13.804670725675441 -17.371776209716586 z"/>
<path fill="#bababa" stroke="#bababa" d="M-18.065762778814335 -15.952926412500656 L-18.065762778814335 -12.419931488642794 L-15.966723433690241 -13.176734772078433 L-15.966723433690241 -16.709729695936293 z"/>
<path fill="#bababa" stroke="#bababa" d="M-7.026799296964693 -18.765177342728702 L-7.026799296964693 -15.232182418870838 L-4.699996258661429 -15.49295905814603 L-4.699996258661429 -19.025953982003895 z"/>
<path fill="#bababa" stroke="#bababa" d="M-9.325870768682075 -18.401532020980973 L-9.325870768682075 -14.868537097123113 L-7.026799296964693 -15.232182418870835 L-7.026799296964693 -18.765177342728695 z"/>
<path fill="#bababa" stroke="#bababa" d="M-22.041946960967753 -14.167358738215075 L-22.041946960967753 -10.63436381435721 L-20.093504811712382 -11.571358192360996 L-20.093504811712382 -15.104353116218862 z"/>
<path fill="#bababa" stroke="#bababa" d="M-23.90339961557588 -13.145641167227254 L-23.90339961557588 -9.612646243369394 L-22.041946960967756 -10.634363814357206 L-22.041946960967763 -14.167358738215071 z"/>
<path fill="#bababa" stroke="#bababa" d="M-25.67051647232584 -12.04323265572975 L-25.67051647232584 -8.510237731871884 L-23.90339961557588 -9.61264624336939 L-23.90339961557588 -13.145641167227256 z"/>
<path fill="#bababa" stroke="#bababa" d="M-27.33632352830294 -10.86448390647488 L-27.33632352830294 -7.33148898261701 L-25.67051647232584 -8.510237731871877 L-25.670516472325836 -12.043232655729748 z"/>
<path fill="#bababa" stroke="#bababa" d="M-28.894246604092107 -9.614046902256888 L-28.894246604092107 -6.081051978399019 L-27.336323528302945 -7.331488982617011 L-27.33632352830294 -10.864483906474879 z"/>
<path fill="#bababa" stroke="#bababa" d="M-30.33813728906054 -8.296856546661088 L-30.33813728906054 -4.76386162280322 L-28.894246604092107 -6.081051978399018 L-28.894246604092107 -9.614046902256886 z"/>
<path fill="#bababa" stroke="#bababa" d="M-20.093504811712382 -15.104353116218862 L-20.093504811712382 -11.571358192360996 L-18.065762778814335 -12.419931488642789 L-18.065762778814335 -15.952926412500654 z"/>
<path fill="#bababa" stroke="#bababa" d="M-33.93101446747574 -3.997942030404808 L-33.93101446747574 -0.4649471065469386 L-32.8615005016449 -1.950257181218511 L-32.8615005016449 -5.483252105076377 z"/>
<path fill="#bababa" stroke="#bababa" d="M-31.66229720632558 -6.918111188253984 L-31.66229720632558 -3.385116264396117 L-30.33813728906054 -4.76386162280322 L-30.33813728906054 -8.29685654666109 z"/>
<path fill="#bababa" stroke="#bababa" d="M-32.8615005016449 -5.483252105076378 L-32.8615005016449 -1.9502571812185128 L-31.66229720632558 -3.3851162643961183 L-31.662297206325583 -6.918111188253988 z"/>
<path fill="#bababa" stroke="#bababa" d="M-34.866618220809436 -2.468042804530371 L-34.866618220809436 1.0649521193274962 L-33.93101446747574 -0.46494710654693827 L-33.93101446747574 -3.997942030404808 z"/>
<path fill="#bababa" stroke="#bababa" d="M-35.66461936106827 -0.8995922407531348 L-35.66461936106827 2.6334026831047326 L-34.866618220809436 1.0649521193274962 L-34.866618220809436 -2.4680428045303704 z"/>
<path fill="#bababa" stroke="#bababa" d="M-36.32186854232367 0.7012197031085906 L-36.32186854232367 4.234214626966458 L-35.66461936106827 2.6334026831047326 L-35.66461936106827 -0.8995922407531349 z"/>
<path fill="#bababa" stroke="#bababa" d="M-36.83577190232583 2.328075353653785 L-36.83577190232583 5.8610702775116525 L-36.32186854232367 4.234214626966458 L-36.32186854232367 0.7012197031085904 z"/>
<path fill="#bababa" stroke="#bababa" d="M-37.20430129929292 3.9745542548693966 L-37.20430129929292 7.507549178727264 L-36.83577190232583 5.8610702775116525 L-36.83577190232583 2.3280753536537846 z"/>
<path fill="#bababa" stroke="#bababa" d="M-37.426002316060185 5.634158506736986 L-37.426002316060185 9.167153430594855 L-37.20430129929292 7.507549178727263 L-37.20430129929292 3.9745542548693966 z"/>
<path fill="#bababa" stroke="#bababa" d="M-37.5 7.300338409475494 L-37.5 10.833333333333362 L-37.426002316060185 9.167153430594853 L-37.426002316060185 5.634158506736986 z"/>
<path fill="#bababa" stroke="#bababa" d="M-37.42600231606017 8.966518312214003 L-37.42600231606017 12.49951323607187 L-37.49999999999999 10.833333333333362 L-37.49999999999999 7.300338409475494 z"/>
<path fill="#bababa" stroke="#bababa" d="M-37.204301299292915 10.626122564081586 L-37.20430129929291 14.159117487939453 L-37.42600231606017 12.49951323607187 L-37.42600231606018 8.966518312214003 z"/>
<path fill="#bababa" stroke="#bababa" d="M-36.83577190232581 12.272601465297198 L-36.83577190232581 15.805596389155065 L-37.204301299292915 14.159117487939454 L-37.204301299292915 10.626122564081586 z"/>
<path fill="#bababa" stroke="#bababa" d="M-36.32186854232365 13.899457115842392 L-36.32186854232365 17.43245203970026 L-36.83577190232581 15.805596389155067 L-36.83577190232581 12.272601465297198 z"/>
<path fill="#bababa" stroke="#bababa" d="M-35.66461936106825 15.500269059704113 L-35.66461936106824 19.03326398356198 L-36.32186854232365 17.43245203970026 L-36.32186854232366 13.89945711584239 z"/>
<path fill="#bababa" stroke="#bababa" d="M-34.8666182208094 17.068719623481357 L-34.86661822080941 20.601714547339224 L-35.66461936106824 19.033263983561984 L-35.66461936106825 15.500269059704113 z"/>
<path fill="#bababa" stroke="#bababa" d="M-30.338137289060487 22.897533365612063 L-30.338137289060487 26.430528289469933 L-31.66229720632553 25.051782931062835 L-31.66229720632553 21.518788007204968 z"/>
<path fill="#bababa" stroke="#bababa" d="M-32.861500501644855 20.08392892402736 L-32.86150050164486 23.616923847885232 L-33.93101446747571 22.131613773213658 L-33.931014467475705 18.598618849355788 z"/>
<path fill="#bababa" stroke="#bababa" d="M-31.66229720632553 21.518788007204964 L-31.66229720632553 25.051782931062835 L-32.861500501644855 23.61692384788523 L-32.861500501644855 20.08392892402736 z"/>
<path fill="#bababa" stroke="#bababa" d="M-33.93101446747571 18.59861884935579 L-33.93101446747571 22.131613773213658 L-34.8666182208094 20.601714547339224 L-34.8666182208094 17.068719623481353 z"/>
<path fill="#bababa" stroke="#bababa" d="M-27.33632352830289 25.465160725425847 L-27.33632352830289 28.998155649283717 L-28.89424660409205 27.74771864506573 L-28.894246604092054 24.21472372120786 z"/>
<path fill="#bababa" stroke="#bababa" d="M-20.093504811712315 29.705029935169826 L-20.093504811712315 33.23802485902769 L-22.04194696096769 32.3010304810239 L-22.04194696096769 28.768035557166037 z"/>
<path fill="#bababa" stroke="#bababa" d="M-18.065762778814257 30.553603231451614 L-18.065762778814257 34.08659815530948 L-20.093504811712315 33.238024859027696 L-20.093504811712315 29.705029935169822 z"/>
<path fill="#bababa" stroke="#bababa" d="M-15.966723433690154 31.310406514887248 L-15.966723433690154 34.84340143874511 L-18.065762778814257 34.08659815530948 L-18.065762778814257 30.553603231451614 z"/>
<path fill="#bababa" stroke="#bababa" d="M-22.041946960967692 28.768035557166037 L-22.04194696096769 32.3010304810239 L-23.903399615575815 31.27931291003609 L-23.903399615575815 27.746317986178223 z"/>
<path fill="#bababa" stroke="#bababa" d="M-13.80467072567535 31.972453028667534 L-13.80467072567535 35.5054479525254 L-15.966723433690156 34.84340143874511 L-15.966723433690156 31.310406514887244 z"/>
<path fill="#bababa" stroke="#bababa" d="M-11.58813728906045 32.537129977662865 L-11.58813728906045 36.070124901520735 L-13.80467072567535 35.5054479525254 L-13.80467072567535 31.972453028667534 z"/>
<path fill="#bababa" stroke="#bababa" d="M-9.325870768681973 33.00220883993192 L-9.325870768681973 36.53520376378979 L-11.58813728906045 36.070124901520735 L-11.58813728906045 32.537129977662865 z"/>
<path fill="#bababa" stroke="#bababa" d="M-7.0267992969645885 33.36585416167963 L-7.0267992969645885 36.898849085537506 L-9.325870768681973 36.53520376378979 L-9.325870768681973 33.00220883993192 z"/>
<path fill="#bababa" stroke="#bababa" d="M-28.89424660409205 24.21472372120786 L-28.894246604092054 27.74771864506573 L-30.338137289060487 26.430528289469933 L-30.338137289060487 22.897533365612063 z"/>
<path fill="#bababa" stroke="#bababa" d="M-4.69999625866132 33.62663080095482 L-4.69999625866132 37.15962572481269 L-7.0267992969645885 36.898849085537506 L-7.0267992969645885 33.365854161679636 z"/>
<path fill="#bababa" stroke="#bababa" d="M-2.3546444823491597 33.78350959149977 L-2.3546444823491597 37.31650451535764 L-4.69999625866132 37.15962572481269 L-4.69999625866132 33.62663080095482 z"/>
<path fill="#bababa" stroke="#bababa" d="M-25.670516472325783 26.64390947468071 L-25.670516472325783 30.17690439853858 L-27.33632352830289 28.998155649283714 L-27.33632352830289 25.465160725425847 z"/>
<path fill="#bababa" stroke="#bababa" d="M-23.903399615575815 27.746317986178223 L-23.903399615575815 31.27931291003609 L-25.670516472325783 30.176904398538582 L-25.670516472325787 26.643909474680715 z"/>
<path fill="#bababa" stroke="#bababa" d="M7.867430135008416e-14 33.83587140439932 L7.867430135008416e-14 37.368866328257184 L-2.3546444823491597 37.316504515357636 L-2.3546444823491597 33.78350959149977 z"/>
<path fill="#bababa" stroke="#bababa" d="M2.354644482349333 33.78350959149977 L2.354644482349333 37.316504515357636 L7.867430135008416e-14 37.368866328257184 L7.867430135008416e-14 33.83587140439932 z"/>
<path fill="#bababa" stroke="#bababa" d="M4.699996258661493 33.62663080095481 L4.699996258661493 37.15962572481268 L2.354644482349333 37.31650451535764 L2.354644482349333 33.78350959149977 z"/>
<path fill="#bababa" stroke="#bababa" d="M7.026799296964743 33.365854161679614 L7.026799296964743 36.89884908553748 L4.699996258661493 37.15962572481268 L4.699996258661493 33.62663080095481 z"/>
<path fill="#bababa" stroke="#bababa" d="M13.804670725675496 31.97245302866749 L13.804670725675496 35.50544795252535 L11.588137289060601 36.07012490152069 L11.588137289060601 32.53712997766283 z"/>
<path fill="#bababa" stroke="#bababa" d="M9.325870768682126 33.00220883993189 L9.325870768682126 36.53520376378976 L7.026799296964743 36.898849085537485 L7.026799296964743 33.365854161679614 z"/>
<path fill="#bababa" stroke="#bababa" d="M11.588137289060601 32.53712997766283 L11.588137289060601 36.0701249015207 L9.325870768682126 36.53520376378976 L9.325870768682126 33.00220883993189 z"/>
<path fill="#bababa" stroke="#bababa" d="M15.9667234336903 31.3104065148872 L15.9667234336903 34.84340143874506 L13.804670725675496 35.50544795252535 L13.804670725675496 31.97245302866749 z"/>
<path fill="#bababa" stroke="#bababa" d="M18.065762778814396 30.553603231451557 L18.065762778814396 34.086598155309424 L15.9667234336903 34.84340143874507 L15.9667234336903 31.310406514887198 z"/>
<path fill="#bababa" stroke="#bababa" d="M20.093504811712446 29.70502993516976 L20.093504811712446 33.238024859027625 L18.065762778814396 34.086598155309424 L18.065762778814396 30.553603231451557 z"/>
<path fill="#bababa" stroke="#bababa" d="M22.041946960967813 28.76803555716597 L22.041946960967813 32.30103048102383 L20.093504811712446 33.238024859027625 L20.093504811712446 29.70502993516976 z"/>
<path fill="#bababa" stroke="#bababa" d="M23.903399615575935 27.746317986178155 L23.903399615575935 31.279312910036023 L22.041946960967813 32.30103048102384 L22.041946960967813 28.768035557165966 z"/>
<path fill="#bababa" stroke="#bababa" d="M25.670516472325893 26.643909474680637 L25.670516472325897 30.176904398538507 L23.903399615575935 31.279312910036023 L23.90339961557594 27.746317986178152 z"/>
<path fill="#bababa" stroke="#bababa" d="M28.89424660409216 24.21472372120777 L28.89424660409216 27.747718645065635 L27.336323528303 28.998155649283632 L27.336323528303005 25.465160725425765 z"/>
<path fill="#bababa" stroke="#bababa" d="M27.336323528303 25.465160725425765 L27.336323528303 28.998155649283632 L25.670516472325897 30.176904398538504 L25.670516472325893 26.643909474680637 z"/>
<path fill="#bababa" stroke="#bababa" d="M31.662297206325626 21.51878800720486 L31.662297206325626 25.051782931062732 L30.338137289060583 26.430528289469844 L30.33813728906058 22.897533365611977 z"/>
<path fill="#bababa" stroke="#bababa" d="M32.861500501644926 20.083928924027262 L32.861500501644926 23.61692384788513 L31.662297206325626 25.051782931062732 L31.662297206325626 21.518788007204865 z"/>
<path fill="#bababa" stroke="#bababa" d="M33.93101446747578 18.59861884935568 L33.93101446747578 22.131613773213545 L32.861500501644926 23.61692384788513 L32.861500501644926 20.083928924027266 z"/>
<path fill="#bababa" stroke="#bababa" d="M34.86661822080946 17.06871962348125 L34.86661822080946 20.60171454733912 L33.93101446747578 22.131613773213545 L33.93101446747578 18.59861884935568 z"/>
<path fill="#bababa" stroke="#bababa" d="M30.338137289060583 22.897533365611977 L30.338137289060583 26.430528289469844 L28.89424660409216 27.747718645065635 L28.89424660409216 24.21472372120777 z"/>
<path fill="#bababa" stroke="#bababa" d="M35.66461936106829 15.500269059703998 L35.66461936106829 19.033263983561866 L34.866618220809464 20.60171454733912 L34.86661822080946 17.068719623481254 z"/>
<path fill="#bababa" stroke="#bababa" d="M36.321868542323685 13.899457115842283 L36.321868542323685 17.43245203970015 L35.66461936106829 19.033263983561866 L35.66461936106829 15.500269059703998 z"/>
<path fill="#bababa" stroke="#bababa" d="M37.426002316060185 8.966518312213896 L37.426002316060185 12.499513236071763 L37.20430129929293 14.159117487939342 L37.20430129929293 10.626122564081475 z"/>
<path fill="#bababa" stroke="#bababa" d="M37.49999999999999 7.300338409475465 L37.49999999999999 10.833333333333332 L37.426002316060185 12.499513236071765 L37.426002316060185 8.966518312213896 z"/>
<path fill="#bababa" stroke="#bababa" d="M36.835771902325845 12.272601465297075 L36.835771902325845 15.805596389154944 L36.321868542323685 17.432452039700152 L36.32186854232369 13.899457115842283 z"/>
<path fill="#bababa" stroke="#bababa" d="M37.20430129929293 10.626122564081475 L37.20430129929293 14.159117487939344 L36.835771902325845 15.805596389154944 L36.835771902325845 12.272601465297077 z"/>
<path fill="#bababa" stroke="#bababa" d="M37.426002316060185 5.634158506736957 L37.5 7.300338409475465 L37.42600231606019 8.966518312213896 L37.204301299292936 10.626122564081475 L36.83577190232585 12.272601465297075 L36.32186854232369 13.899457115842283 L35.6646193610683 15.500269059704 L34.866618220809464 17.06871962348125 L33.931014467475784 18.598618849355677 L32.86150050164493 20.083928924027262 L31.66229720632563 21.51878800720486 L30.338137289060583 22.897533365611977 L28.894246604092164 24.21472372120777 L27.336323528303005 25.465160725425765 L25.670516472325897 26.64390947468064 L23.90339961557594 27.746317986178155 L22.041946960967817 28.76803555716597 L20.09350481171245 29.70502993516976 L18.0657627788144 30.55360323145156 L15.966723433690301 31.3104065148872 L13.804670725675498 31.97245302866749 L11.588137289060603 32.53712997766283 L9.325870768682128 33.00220883993189 L7.026799296964744 33.365854161679614 L4.699996258661494 33.62663080095481 L2.3546444823493333 33.78350959149977 L7.867430135008417e-14 33.83587140439931 L-2.35464448234916 33.78350959149978 L-4.699996258661321 33.62663080095482 L-7.026799296964589 33.365854161679636 L-9.325870768681975 33.00220883993192 L-11.588137289060452 32.537129977662865 L-13.804670725675352 31.97245302866753 L-15.966723433690158 31.310406514887248 L-18.06576277881426 30.553603231451614 L-20.093504811712318 29.705029935169826 L-22.041946960967692 28.768035557166037 L-23.903399615575818 27.746317986178223 L-25.670516472325787 26.64390947468071 L-27.336323528302895 25.46516072542585 L-28.894246604092054 24.214723721207864 L-30.33813728906049 22.897533365612063 L-31.662297206325533 21.518788007204968 L-32.86150050164486 20.08392892402736 L-33.93101446747571 18.59861884935579 L-34.86661822080941 17.068719623481353 L-35.66461936106825 15.500269059704115 L-36.32186854232366 13.899457115842392 L-36.83577190232582 12.272601465297198 L-37.204301299292915 10.626122564081586 L-37.42600231606018 8.966518312214001 L-37.5 7.300338409475494 L-37.426002316060185 5.634158506736987 L-37.20430129929292 3.9745542548693966 L-36.83577190232583 2.328075353653785 L-36.32186854232367 0.7012197031085906 L-35.66461936106827 -0.8995922407531344 L-34.866618220809436 -2.468042804530371 L-33.93101446747574 -3.9979420304048063 L-32.8615005016449 -5.483252105076379 L-31.66229720632558 -6.918111188253986 L-30.338137289060537 -8.296856546661088 L-28.894246604092107 -9.614046902256886 L-27.33632352830294 -10.864483906474879 L-25.670516472325836 -12.043232655729746 L-23.903399615575875 -13.145641167227257 L-22.041946960967756 -14.167358738215071 L-20.093504811712386 -15.104353116218858 L-18.06576277881434 -15.95292641250065 L-15.966723433690243 -16.709729695936286 L-13.804670725675443 -17.371776209716575 L-11.58813728906055 -17.936453158711913 L-9.325870768682076 -18.401532020980966 L-7.026799296964694 -18.76517734272869 L-4.69999625866143 -19.02595398200388 L-2.354644482349272 -19.182832772548842 L-2.0436729480519327e-14 -19.235194585448387 L2.3546444823492307 -19.182832772548842 L4.699996258661389 -19.025953982003887 L7.026799296964654 -18.765177342728695 L9.325870768682035 -18.401532020980973 L11.58813728906051 -17.936453158711924 L13.804670725675408 -17.371776209716586 L15.966723433690207 -16.709729695936296 L18.065762778814307 -15.952926412500661 L20.093504811712354 -15.104353116218874 L22.041946960967724 -14.167358738215086 L23.90339961557585 -13.145641167227273 L25.670516472325808 -12.043232655729764 L27.336323528302916 -10.864483906474899 L28.894246604092082 -9.614046902256906 L30.338137289060516 -8.29685654666111 L31.662297206325555 -6.918111188254011 L32.861500501644876 -5.483252105076406 L33.93101446747573 -3.9979420304048334 L34.86661822080942 -2.4680428045303984 L35.664619361068254 -0.8995922407531559 L36.321868542323664 0.701219703108568 L36.835771902325824 2.328075353653756 L37.204301299292915 3.9745542548693673 z"/>
<path fill="#bababa" stroke="#bababa" d="M37.426002316060185 9.167153430594825 L37.204301299292915 7.507549178727235 L36.835771902325824 5.861070277511623 L36.321868542323664 4.234214626966435 L35.664619361068254 2.6334026831047117 L34.86661822080942 1.0649521193274687 L33.93101446747573 -0.4649471065469655 L32.861500501644876 -1.9502571812185387 L31.662297206325555 -3.3851162643961437 L30.338137289060516 -4.76386162280324 L28.894246604092082 -6.081051978399039 L27.336323528302916 -7.3314889826170315 L25.670516472325808 -8.510237731871896 L23.90339961557585 -9.612646243369404 L22.041946960967724 -10.634363814357219 L20.093504811712354 -11.571358192361005 L18.065762778814307 -12.419931488642794 L15.966723433690207 -13.17673477207843 L13.804670725675408 -13.83878128585872 L11.58813728906051 -14.403458234854057 L9.325870768682035 -14.868537097123108 L7.026799296964654 -15.23218241887083 L4.699996258661389 -15.49295905814602 L2.3546444823492307 -15.649837848690975 L-2.0436729480519327e-14 -15.702199661590521 L-2.354644482349272 -15.649837848690975 L-4.69999625866143 -15.492959058146015 L-7.026799296964694 -15.232182418870824 L-9.325870768682076 -14.868537097123104 L-11.58813728906055 -14.403458234854046 L-13.804670725675443 -13.83878128585871 L-15.966723433690243 -13.17673477207842 L-18.06576277881434 -12.419931488642783 L-20.093504811712386 -11.571358192360991 L-22.041946960967756 -10.634363814357206 L-23.903399615575875 -9.61264624336939 L-25.670516472325836 -8.510237731871879 L-27.33632352830294 -7.331488982617012 L-28.894246604092107 -6.081051978399019 L-30.338137289060537 -4.763861622803221 L-31.66229720632558 -3.3851162643961183 L-32.8615005016449 -1.950257181218511 L-33.93101446747574 -0.46494710654693916 L-34.866618220809436 1.0649521193274962 L-35.66461936106827 2.6334026831047326 L-36.32186854232367 4.234214626966458 L-36.83577190232583 5.8610702775116525 L-37.20430129929292 7.507549178727264 L-37.426002316060185 9.167153430594855 L-37.5 10.83333333333336 L-37.42600231606018 12.49951323607187 L-37.204301299292915 14.159117487939454 L-36.83577190232582 15.805596389155067 L-36.32186854232366 17.43245203970026 L-35.66461936106825 19.03326398356198 L-34.86661822080941 20.601714547339224 L-33.93101446747571 22.131613773213658 L-32.86150050164486 23.61692384788523 L-31.662297206325533 25.051782931062835 L-30.33813728906049 26.43052828946993 L-28.894246604092054 27.74771864506573 L-27.336323528302895 28.998155649283717 L-25.670516472325787 30.17690439853858 L-23.903399615575818 31.27931291003609 L-22.041946960967692 32.30103048102391 L-20.093504811712318 33.23802485902769 L-18.06576277881426 34.086598155309474 L-15.966723433690158 34.84340143874511 L-13.804670725675352 35.5054479525254 L-11.588137289060452 36.07012490152073 L-9.325870768681975 36.53520376378979 L-7.026799296964589 36.8988490855375 L-4.699996258661321 37.159625724812685 L-2.35464448234916 37.31650451535764 L7.867430135008417e-14 37.36886632825719 L2.3546444823493333 37.316504515357636 L4.699996258661494 37.15962572481267 L7.026799296964744 36.89884908553748 L9.325870768682128 36.53520376378976 L11.588137289060603 36.0701249015207 L13.804670725675498 35.50544795252535 L15.966723433690301 34.84340143874507 L18.0657627788144 34.086598155309424 L20.09350481171245 33.238024859027625 L22.041946960967817 32.30103048102384 L23.90339961557594 31.279312910036023 L25.670516472325897 30.176904398538504 L27.336323528303005 28.998155649283632 L28.894246604092164 27.74771864506564 L30.338137289060583 26.430528289469844 L31.66229720632563 25.051782931062732 L32.86150050164493 23.61692384788513 L33.931014467475784 22.131613773213548 L34.866618220809464 20.601714547339117 L35.6646193610683 19.033263983561863 L36.32186854232369 17.43245203970015 L36.83577190232585 15.805596389154944 L37.204301299292936 14.159117487939344 L37.42600231606019 12.499513236071765 L37.5 10.833333333333332 z"/>
<path fill="#000000" stroke="#000000" d="M-5 54.32368866328257 L-5 49.02165820642978 L-5 53.267343485617594 L-5 55.03130287648054 z"/>
<path fill="#000000" stroke="#000000" d="M5 49.02165820642978 L-5 49.02165820642978 L-5 54.32368866328256 L5 54.32368866328256 z"/>
<path fill="#000000" stroke="#000000" d="M5 49.02165820642977 L5 53.267343485617594 L-5 53.267343485617594 L-5 49.02165820642977 z"/>
<path fill="#000000" stroke="#000000" d="M-5 55.03130287648054 L-5 53.267343485617594 L5 53.267343485617594 L5 55.03130287648054 z"/>
<path fill="#000000" stroke="#000000" d="M-5 54.32368866328257 L-5 55.03130287648054 L5 55.03130287648054 L5 54.32368866328257 z"/>
<path fill="#000000" stroke="#000000" d="M5 49.02165820642978 L5 54.32368866328257 L5 55.03130287648054 L5 53.267343485617594 z"/>
<path fill="#000000" stroke="#000000" d="M5 33.12318104906937 L5 49.02165820642978 L5 51.14450084602369 L5 35.24602368866328 z"/>
<path fill="#000000" stroke="#000000" d="M-5 33.123181049069366 L-5 49.02165820642977 L5 49.02165820642977 L5 33.123181049069366 z"/>
<path fill="#000000" stroke="#000000" d="M-5 35.24602368866328 L-5 51.14450084602369 L-5 49.02165820642978 L-5 33.12318104906937 z"/>
<path fill="#000000" stroke="#000000" d="M5 35.24602368866328 L5 51.14450084602368 L-5 51.14450084602368 L-5 35.24602368866328 z"/>
<path fill="#000000" stroke="#000000" d="M5 33.12318104906937 L5 35.24602368866328 L-5 35.24602368866328 L-5 33.12318104906937 z"/>
<path fill="#000000" stroke="#000000" d="M5 49.02165820642977 L-5 49.02165820642977 L-5 51.14450084602368 L5 51.14450084602368 z"/>
<path fill="#000000" stroke="#000000" d="M34 33.80287648054145 L31.5 30.26988155668358 L37.5 30.26988155668358 L35 33.80287648054145 z"/>
<path fill="#000000" stroke="#000000" d="M31.499999999999996 23.19373942470389 L31.499999999999996 30.269881556683586 L33.99999999999999 33.80287648054145 L33.99999999999999 26.726734348561756 z"/>
<path fill="#000000" stroke="#000000" d="M31.5 23.19373942470389 L37.5 23.19373942470389 L37.5 30.269881556683586 L31.5 30.269881556683586 z"/>
<path fill="#000000" stroke="#000000" d="M35 33.80287648054145 L37.5 30.269881556683586 L37.5 23.19373942470389 L35 26.726734348561756 z"/>
<path fill="#000000" stroke="#000000" d="M34 33.80287648054146 L35 33.80287648054146 L35 26.72673434856176 L34 26.72673434856176 z"/>
<path fill="#000000" stroke="#000000" d="M31.5 23.19373942470388 L34 26.72673434856175 L35 26.72673434856175 L37.5 23.19373942470388 z"/>
<path fill="#000000" stroke="#000000" d="M31.5 7.295262267343486 L31.5 23.193739424703885 L34.5 23.193739424703885 L34.5 7.295262267343486 z"/>
<path fill="#000000" stroke="#000000" d="M31.5 14.371404399323183 L31.5 30.269881556683586 L31.5 23.193739424703892 L31.5 7.295262267343488 z"/>
<path fill="#000000" stroke="#000000" d="M34.5 14.371404399323177 L34.5 30.26988155668358 L31.5 30.26988155668358 L31.5 14.371404399323177 z"/>
<path fill="#000000" stroke="#000000" d="M34.5 7.295262267343488 L34.5 23.193739424703892 L34.5 30.269881556683586 L34.5 14.371404399323183 z"/>
<path fill="#000000" stroke="#000000" d="M31.5 7.295262267343487 L34.5 7.295262267343487 L34.5 14.371404399323183 L31.5 14.371404399323183 z"/>
<path fill="#000000" stroke="#000000" d="M31.5 23.19373942470389 L31.5 30.269881556683586 L34.5 30.269881556683586 L34.5 23.19373942470389 z"/>
<path fill="#000000" stroke="#000000" d="M-34 26.72673434856175 L-31.5 23.19373942470388 L-37.5 23.19373942470388 L-35 26.72673434856175 z"/>
<path fill="#000000" stroke="#000000" d="M-31.499999999999996 30.269881556683586 L-31.499999999999996 23.19373942470389 L-33.99999999999999 26.726734348561756 L-33.99999999999999 33.80287648054145 z"/>
<path fill="#000000" stroke="#000000" d="M-31.5 30.269881556683586 L-37.5 30.269881556683586 L-37.5 23.19373942470389 L-31.5 23.19373942470389 z"/>
<path fill="#000000" stroke="#000000" d="M-35 26.726734348561756 L-37.5 23.19373942470389 L-37.5 30.269881556683586 L-35 33.80287648054145 z"/>
<path fill="#000000" stroke="#000000" d="M-34 26.72673434856176 L-35 26.72673434856176 L-35 33.80287648054146 L-34 33.80287648054146 z"/>
<path fill="#000000" stroke="#000000" d="M-31.5 30.26988155668358 L-34 33.80287648054145 L-35 33.80287648054145 L-37.5 30.26988155668358 z"/>
<path fill="#000000" stroke="#000000" d="M-31.5 14.371404399323177 L-31.5 30.26988155668358 L-34.5 30.26988155668358 L-34.5 14.371404399323177 z"/>
<path fill="#000000" stroke="#000000" d="M-31.5 7.295262267343488 L-31.5 23.193739424703892 L-31.5 30.269881556683586 L-31.5 14.371404399323183 z"/>
<path fill="#000000" stroke="#000000" d="M-34.5 7.295262267343486 L-34.5 23.193739424703885 L-31.5 23.193739424703885 L-31.5 7.295262267343486 z"/>
<path fill="#000000" stroke="#000000" d="M-34.5 14.371404399323183 L-34.5 30.269881556683586 L-34.5 23.193739424703892 L-34.5 7.295262267343488 z"/>
<path fill="#000000" stroke="#000000" d="M-31.5 14.371404399323183 L-34.5 14.371404399323183 L-34.5 7.295262267343487 L-31.5 7.295262267343487 z"/>
<path fill="#000000" stroke="#000000" d="M-31.5 30.269881556683586 L-31.5 23.19373942470389 L-34.5 23.19373942470389 L-34.5 30.269881556683586 z"/>
</svg>