<?xml version="1.0" encoding="UTF-8"?>
<!-- Generated by jsxcad -->
<!DOCTYPE svg PUBLIC "-//W3C//DTD SVG 1.1 Tiny//EN" "http://www.w3.org/Graphics/SVG/1.1/DTD/svg11-tiny.dtd">
<svg baseProfile="tiny" height="56.24517766497465mm" width="69.50000000000006mm" viewBox="-34.75000000000003 -27.922927241962793 69.50000000000006 56.24517766497465" version="1.1" stroke="black" stroke-width=".1" fill="none" xmlns="http://www.w3.org/2000/svg">
<path fill="#bababa" stroke="#bababa" d="M34.68142881288244 -5.276649890920085 L34.68142881288244 1.7893399567956492 L34.75 3.333333333333333 L34.75 -3.7326565143824015 z"/>
<path fill="#bababa" stroke="#bababa" d="M34.4759858706781 -6.814549830984053 L34.4759858706781 0.25144001673168265 L34.68142881288244 1.7893399567956494 L34.68142881288244 -5.276649890920085 z"/>
<path fill="#bababa" stroke="#bababa" d="M33.65826484921993 -9.84783984894906 L33.65826484921993 -2.7818500012333254 L34.13448196282193 -1.2742970983947832 L34.13448196282193 -8.340286946110519 z"/>
<path fill="#bababa" stroke="#bababa" d="M33.04921394125658 -11.331258916927592 L33.04921394125658 -4.265269069211856 L33.65826484921993 -2.781850001233326 L33.65826484921993 -9.847839848949059 z"/>
<path fill="#bababa" stroke="#bababa" d="M34.13448196282193 -8.340286946110517 L34.13448196282193 -1.2742970983947832 L34.4759858706781 0.25144001673168265 L34.4759858706781 -6.814549830984053 z"/>
<path fill="#bababa" stroke="#bababa" d="M32.30973288461673 -12.784689772694504 L32.30973288461673 -5.718699924978767 L33.04921394125658 -4.265269069211856 L33.04921394125658 -11.331258916927592 z"/>
<path fill="#bababa" stroke="#bababa" d="M29.34039541119501 -16.908419808278378 L29.34039541119501 -9.842429960562647 L30.45165713152425 -8.512793876818066 L30.45165713152425 -15.578783724533801 z"/>
<path fill="#bababa" stroke="#bababa" d="M31.442740073194173 -14.20239638867148 L31.442740073194173 -7.136406540955743 L32.30973288461673 -5.718699924978768 L32.30973288461673 -12.784689772694504 z"/>
<path fill="#bababa" stroke="#bababa" d="M30.45165713152425 -15.578783724533801 L30.45165713152425 -8.512793876818066 L31.442740073194173 -7.1364065409557425 L31.442740073194173 -14.20239638867148 z"/>
<path fill="#bababa" stroke="#bababa" d="M28.11334055452941 -18.186057173735627 L28.11334055452941 -11.120067326019889 L29.34039541119501 -9.842429960562647 L29.34039541119501 -16.908419808278378 z"/>
<path fill="#bababa" stroke="#bababa" d="M26.775335186458666 -19.406653569921065 L26.775335186458662 -12.34066372220533 L28.11334055452941 -11.12006732601989 L28.11334055452941 -18.186057173735623 z"/>
<path fill="#bababa" stroke="#bababa" d="M25.331659802894038 -20.56539186049641 L25.331659802894038 -13.49940201278067 L26.775335186458662 -12.34066372220533 L26.775335186458662 -19.406653569921065 z"/>
<path fill="#bababa" stroke="#bababa" d="M23.788011931021913 -21.657699034805916 L23.788011931021913 -14.59170918709018 L25.331659802894038 -13.49940201278067 L25.331659802894038 -20.56539186049641 z"/>
<path fill="#bababa" stroke="#bababa" d="M16.740940175034588 -25.280681916080283 L16.740940175034588 -18.214692068364545 L18.619981125520113 -17.428347480476756 L18.619981125520113 -24.494337328192493 z"/>
<path fill="#bababa" stroke="#bababa" d="M20.42553751716343 -23.62605587124231 L20.42553751716343 -16.560066023526577 L22.150483643766954 -15.613274407744534 L22.150483643766957 -22.679264255460268 z"/>
<path fill="#bababa" stroke="#bababa" d="M18.619981125520113 -24.494337328192497 L18.619981125520113 -17.428347480476756 L20.425537517163423 -16.56006602352658 L20.425537517163423 -23.62605587124232 z"/>
<path fill="#bababa" stroke="#bababa" d="M14.795830381886256 -25.981986292063976 L14.795830381886256 -18.915996444348238 L16.740940175034588 -18.21469206836455 L16.740940175034588 -25.280681916080287 z"/>
<path fill="#bababa" stroke="#bababa" d="M12.79232820579254 -26.595482728167042 L12.79232820579254 -19.529492880451308 L14.795830381886256 -18.915996444348238 L14.795830381886256 -25.981986292063976 z"/>
<path fill="#bababa" stroke="#bababa" d="M6.511500681853912 -27.88670111142493 L6.511500681853912 -20.820711263709192 L8.641973578978684 -20.483733265556307 L8.641973578978684 -27.549723113272044 z"/>
<path fill="#bababa" stroke="#bababa" d="M10.738340554529405 -27.11875003423605 L10.738340554529405 -20.052760186520317 L12.792328205792542 -19.529492880451304 L12.792328205792542 -26.59548272816704 z"/>
<path fill="#bababa" stroke="#bababa" d="M8.641973578978684 -27.549723113272044 L8.641973578978684 -20.483733265556307 L10.738340554529405 -20.052760186520317 L10.738340554529405 -27.118750034236054 z"/>
<path fill="#bababa" stroke="#bababa" d="M4.355329866359553 -28.128354130486606 L4.355329866359553 -21.06236428277087 L6.511500681853912 -20.820711263709192 L6.511500681853912 -27.88670111142493 z"/>
<path fill="#bababa" stroke="#bababa" d="M2.18197055364362 -28.2737284763916 L2.18197055364362 -21.207738628675862 L4.355329866359553 -21.06236428277087 L4.355329866359553 -28.128354130486606 z"/>
<path fill="#bababa" stroke="#bababa" d="M22.150483643766957 -22.679264255460268 L22.150483643766957 -15.613274407744532 L23.788011931021913 -14.59170918709018 L23.788011931021913 -21.657699034805916 z"/>
<path fill="#bababa" stroke="#bababa" d="M-2.181970553643658 -28.273728476391597 L-2.181970553643658 -21.207738628675866 L-1.893803598528124e-14 -21.25626057529611 L-1.893803598528124e-14 -28.32225042301184 z"/>
<path fill="#bababa" stroke="#bababa" d="M-4.3553298663595905 -28.128354130486606 L-4.3553298663595905 -21.062364282770865 L-2.181970553643658 -21.20773862867586 L-2.181970553643658 -28.2737284763916 z"/>
<path fill="#bababa" stroke="#bababa" d="M-6.511500681853949 -27.886701111424923 L-6.511500681853949 -20.820711263709185 L-4.3553298663595905 -21.062364282770865 L-4.3553298663595905 -28.128354130486603 z"/>
<path fill="#bababa" stroke="#bababa" d="M-8.641973578978721 -27.549723113272037 L-8.641973578978721 -20.4837332655563 L-6.511500681853949 -20.82071126370919 L-6.511500681853949 -27.886701111424927 z"/>
<path fill="#bababa" stroke="#bababa" d="M-1.893803598528124e-14 -28.322250423011845 L-1.893803598528124e-14 -21.25626057529611 L2.18197055364362 -21.207738628675866 L2.18197055364362 -28.2737284763916 z"/>
<path fill="#bababa" stroke="#bababa" d="M-10.738340554529442 -27.118750034236047 L-10.738340554529442 -20.05276018652031 L-8.641973578978721 -20.4837332655563 L-8.641973578978721 -27.549723113272037 z"/>
<path fill="#bababa" stroke="#bababa" d="M-12.792328205792575 -26.59548272816703 L-12.792328205792575 -19.529492880451294 L-10.738340554529442 -20.052760186520306 L-10.738340554529442 -27.118750034236044 z"/>
<path fill="#bababa" stroke="#bababa" d="M-14.795830381886288 -25.98198629206397 L-14.795830381886288 -18.91599644434823 L-12.792328205792575 -19.529492880451297 L-12.792328205792575 -26.595482728167035 z"/>
<path fill="#bababa" stroke="#bababa" d="M-16.740940175034616 -25.280681916080272 L-16.740940175034616 -18.214692068364535 L-14.79583038188629 -18.915996444348227 L-14.79583038188629 -25.981986292063965 z"/>
<path fill="#bababa" stroke="#bababa" d="M-23.78801193102194 -21.657699034805898 L-23.788011931021945 -14.59170918709016 L-22.15048364376698 -15.613274407744521 L-22.150483643766975 -22.67926425546026 z"/>
<path fill="#bababa" stroke="#bababa" d="M-25.33165980289406 -20.565391860496383 L-25.33165980289406 -13.499402012780651 L-23.78801193102194 -14.591709187090165 L-23.78801193102194 -21.657699034805898 z"/>
<path fill="#bababa" stroke="#bababa" d="M-22.15048364376698 -22.679264255460254 L-22.150483643766975 -15.613274407744523 L-20.425537517163455 -16.560066023526563 L-20.425537517163452 -23.6260558712423 z"/>
<path fill="#bababa" stroke="#bababa" d="M-20.42553751716345 -23.626055871242304 L-20.42553751716345 -16.560066023526566 L-18.61998112552014 -17.42834748047674 L-18.61998112552014 -24.49433732819248 z"/>
<path fill="#bababa" stroke="#bababa" d="M-26.775335186458683 -19.406653569921048 L-26.775335186458683 -12.34066372220531 L-25.33165980289406 -13.49940201278065 L-25.33165980289406 -20.565391860496387 z"/>
<path fill="#bababa" stroke="#bababa" d="M-31.442740073194187 -14.202396388671453 L-31.442740073194187 -7.136406540955717 L-30.45165713152427 -8.51279387681804 L-30.45165713152427 -15.578783724533778 z"/>
<path fill="#bababa" stroke="#bababa" d="M-29.340395411195036 -16.908419808278364 L-29.340395411195036 -9.842429960562626 L-28.113340554529433 -11.120067326019875 L-28.113340554529433 -18.18605717373561 z"/>
<path fill="#bababa" stroke="#bababa" d="M-30.45165713152427 -15.578783724533777 L-30.45165713152427 -8.512793876818042 L-29.340395411195036 -9.842429960562628 L-29.340395411195036 -16.90841980827836 z"/>
<path fill="#bababa" stroke="#bababa" d="M-28.113340554529433 -18.18605717373561 L-28.113340554529433 -11.120067326019873 L-26.775335186458683 -12.340663722205312 L-26.775335186458683 -19.406653569921048 z"/>
<path fill="#bababa" stroke="#bababa" d="M-32.30973288461674 -12.784689772694477 L-32.30973288461674 -5.718699924978742 L-31.442740073194187 -7.136406540955718 L-31.442740073194187 -14.202396388671453 z"/>
<path fill="#bababa" stroke="#bababa" d="M-34.13448196282194 -8.340286946110492 L-34.13448196282194 -1.2742970983947568 L-33.65826484921994 -2.781850001233304 L-33.65826484921994 -9.84783984894904 z"/>
<path fill="#bababa" stroke="#bababa" d="M-33.049213941256596 -11.33125891692757 L-33.049213941256596 -4.2652690692118345 L-32.30973288461674 -5.718699924978742 L-32.30973288461674 -12.784689772694477 z"/>
<path fill="#bababa" stroke="#bababa" d="M-33.65826484921994 -9.847839848949038 L-33.65826484921994 -2.781850001233304 L-33.049213941256596 -4.265269069211835 L-33.049213941256596 -11.33125891692757 z"/>
<path fill="#bababa" stroke="#bababa" d="M-18.61998112552014 -24.494337328192476 L-18.61998112552014 -17.428347480476745 L-16.740940175034616 -18.21469206836454 L-16.740940175034616 -25.28068191608027 z"/>
<path fill="#bababa" stroke="#bababa" d="M-34.47598587067811 -6.814549830984025 L-34.47598587067811 0.2514400167317103 L-34.13448196282194 -1.274297098394757 L-34.13448196282194 -8.340286946110492 z"/>
<path fill="#bababa" stroke="#bababa" d="M-34.68142881288244 -5.2766498909200585 L-34.68142881288244 1.7893399567956767 L-34.47598587067811 0.2514400167317103 L-34.47598587067811 -6.814549830984024 z"/>
<path fill="#bababa" stroke="#bababa" d="M-34.75 -3.7326565143823744 L-34.75 3.33333333333336 L-34.68142881288244 1.7893399567956767 L-34.68142881288244 -5.2766498909200585 z"/>
<path fill="#bababa" stroke="#bababa" d="M-34.68142881288242 -2.1886631378446904 L-34.68142881288242 4.877326709871045 L-34.74999999999999 3.3333333333333606 L-34.74999999999999 -3.732656514382375 z"/>
<path fill="#bababa" stroke="#bababa" d="M-34.475985870678095 -0.6507631977807299 L-34.475985870678095 6.415226649935005 L-34.68142881288242 4.877326709871045 L-34.68142881288242 -2.1886631378446904 z"/>
<path fill="#bababa" stroke="#bababa" d="M-34.134481962821916 0.8749739173457373 L-34.134481962821916 7.940963765061472 L-34.4759858706781 6.415226649935005 L-34.475985870678095 -0.6507631977807298 z"/>
<path fill="#bababa" stroke="#bababa" d="M-33.65826484921992 2.382526820184284 L-33.658264849219925 9.44851666790002 L-34.134481962821916 7.940963765061472 L-34.134481962821916 0.8749739173457374 z"/>
<path fill="#bababa" stroke="#bababa" d="M-33.049213941256575 3.865945888162814 L-33.049213941256575 10.931935735878548 L-33.658264849219925 9.448516667900018 L-33.65826484921992 2.382526820184284 z"/>
<path fill="#bababa" stroke="#bababa" d="M-32.309732884616714 5.319376743929724 L-32.30973288461672 12.385366591645457 L-33.04921394125657 10.931935735878548 L-33.049213941256575 3.865945888162814 z"/>
<path fill="#bababa" stroke="#bababa" d="M-31.44274007319416 6.737083359906699 L-31.44274007319416 13.803073207622433 L-32.30973288461672 12.38536659164546 L-32.309732884616714 5.319376743929724 z"/>
<path fill="#bababa" stroke="#bababa" d="M-30.451657131524236 8.113470695769022 L-30.451657131524236 15.179460543484756 L-31.44274007319416 13.803073207622433 L-31.442740073194155 6.737083359906699 z"/>
<path fill="#bababa" stroke="#bababa" d="M-29.340395411194994 9.443106779513602 L-29.340395411194994 16.509096627229336 L-30.451657131524232 15.179460543484756 L-30.451657131524236 8.113470695769022 z"/>
<path fill="#bababa" stroke="#bababa" d="M-25.331659802894016 13.100078831731619 L-25.331659802894016 20.166068679447353 L-26.775335186458637 19.00733038887202 L-26.775335186458637 11.941340541156286 z"/>
<path fill="#bababa" stroke="#bababa" d="M-26.775335186458637 11.941340541156286 L-26.775335186458637 19.00733038887202 L-28.11334055452939 17.78673399268658 L-28.11334055452939 10.720744144970846 z"/>
<path fill="#bababa" stroke="#bababa" d="M-28.11334055452939 10.720744144970846 L-28.11334055452939 17.78673399268658 L-29.340395411194994 16.509096627229336 L-29.340395411194994 9.443106779513602 z"/>
<path fill="#bababa" stroke="#bababa" d="M-23.788011931021895 14.19238600604113 L-23.788011931021895 21.258375853756863 L-25.331659802894016 20.166068679447353 L-25.331659802894016 13.100078831731619 z"/>
<path fill="#bababa" stroke="#bababa" d="M-22.150483643766925 15.213951226695485 L-22.150483643766925 22.279941074411223 L-23.788011931021895 21.258375853756863 L-23.788011931021895 14.19238600604113 z"/>
<path fill="#bababa" stroke="#bababa" d="M-18.619981125520077 17.029024299427707 L-18.619981125520077 24.09501414714344 L-20.42553751716339 23.226732690193266 L-20.42553751716339 16.160742842477532 z"/>
<path fill="#bababa" stroke="#bababa" d="M-16.740940175034545 17.815368887315497 L-16.740940175034545 24.88135873503123 L-18.619981125520077 24.09501414714344 L-18.619981125520077 17.029024299427704 z"/>
<path fill="#bababa" stroke="#bababa" d="M-20.425537517163395 16.16074284247753 L-20.425537517163395 23.226732690193263 L-22.150483643766925 22.279941074411223 L-22.150483643766925 15.213951226695487 z"/>
<path fill="#bababa" stroke="#bababa" d="M-14.795830381886212 18.516673263299186 L-14.795830381886212 25.58266311101492 L-16.740940175034545 24.88135873503123 L-16.740940175034545 17.815368887315497 z"/>
<path fill="#bababa" stroke="#bababa" d="M-12.792328205792492 19.130169699402252 L-12.792328205792492 26.19615954711799 L-14.795830381886212 25.582663111014924 L-14.795830381886212 18.516673263299186 z"/>
<path fill="#bababa" stroke="#bababa" d="M-10.738340554529351 19.65343700547126 L-10.738340554529351 26.719426853186995 L-12.792328205792492 26.19615954711799 L-12.792328205792492 19.130169699402252 z"/>
<path fill="#bababa" stroke="#bababa" d="M-8.641973578978629 20.084410084507244 L-8.641973578978629 27.15039993222298 L-10.738340554529351 26.719426853186995 L-10.738340554529351 19.65343700547126 z"/>
<path fill="#bababa" stroke="#bababa" d="M-4.35532986635949 20.66304110172181 L-4.35532986635949 27.729030949437544 L-6.5115006818538514 27.487377930375867 L-6.5115006818538514 20.421388082660133 z"/>
<path fill="#bababa" stroke="#bababa" d="M-2.1819705536435543 20.808415447626796 L-2.1819705536435543 27.87440529534253 L-4.35532986635949 27.729030949437544 L-4.35532986635949 20.66304110172181 z"/>
<path fill="#bababa" stroke="#bababa" d="M-6.5115006818538514 20.42138808266013 L-6.5115006818538514 27.487377930375867 L-8.641973578978629 27.15039993222298 L-8.641973578978629 20.084410084507248 z"/>
<path fill="#bababa" stroke="#bababa" d="M7.290485258441133e-14 20.85693739424704 L7.290485258441133e-14 27.922927241962775 L-2.1819705536435543 27.87440529534253 L-2.1819705536435543 20.808415447626796 z"/>
<path fill="#bababa" stroke="#bababa" d="M2.181970553643715 20.80841544762679 L2.181970553643715 27.874405295342527 L7.290485258441133e-14 27.922927241962775 L7.290485258441133e-14 20.85693739424704 z"/>
<path fill="#bababa" stroke="#bababa" d="M4.35532986635965 20.66304110172179 L4.35532986635965 27.72903094943753 L2.181970553643715 27.874405295342527 L2.181970553643715 20.80841544762679 z"/>
<path fill="#bababa" stroke="#bababa" d="M6.511500681853995 20.421388082660112 L6.511500681853995 27.487377930375846 L4.35532986635965 27.72903094943753 L4.35532986635965 20.663041101721795 z"/>
<path fill="#bababa" stroke="#bababa" d="M10.73834055452949 19.65343700547123 L10.73834055452949 26.719426853186967 L8.641973578978769 27.150399932222957 L8.641973578978769 20.084410084507223 z"/>
<path fill="#bababa" stroke="#bababa" d="M12.792328205792627 19.130169699402213 L12.792328205792627 26.196159547117947 L10.73834055452949 26.719426853186967 L10.73834055452949 19.65343700547123 z"/>
<path fill="#bababa" stroke="#bababa" d="M16.740940175034673 17.815368887315447 L16.740940175034673 24.881358735031185 L14.795830381886345 25.582663111014877 L14.795830381886345 18.51667326329914 z"/>
<path fill="#bababa" stroke="#bababa" d="M18.6199811255202 17.02902429942765 L18.6199811255202 24.095014147143385 L16.740940175034673 24.881358735031185 L16.740940175034673 17.81536888731545 z"/>
<path fill="#bababa" stroke="#bababa" d="M14.795830381886343 18.51667326329914 L14.795830381886343 25.582663111014877 L12.792328205792627 26.196159547117947 L12.792328205792627 19.130169699402213 z"/>
<path fill="#bababa" stroke="#bababa" d="M8.641973578978769 20.08441008450722 L8.641973578978769 27.150399932222957 L6.511500681853995 27.487377930375846 L6.511500681853995 20.421388082660112 z"/>
<path fill="#bababa" stroke="#bababa" d="M22.15048364376704 15.213951226695421 L22.15048364376704 22.279941074411155 L20.425537517163512 23.2267326901932 L20.425537517163512 16.160742842477465 z"/>
<path fill="#bababa" stroke="#bababa" d="M23.788011931021998 14.192386006041056 L23.788011931021998 21.258375853756792 L22.15048364376704 22.279941074411155 L22.15048364376704 15.213951226695421 z"/>
<path fill="#bababa" stroke="#bababa" d="M20.425537517163505 16.160742842477468 L20.425537517163505 23.226732690193206 L18.6199811255202 24.095014147143385 L18.6199811255202 17.029024299427647 z"/>
<path fill="#bababa" stroke="#bababa" d="M25.331659802894116 13.100078831731542 L25.331659802894112 20.166068679447278 L23.788011931021998 21.25837585375679 L23.788011931021998 14.192386006041056 z"/>
<path fill="#bababa" stroke="#bababa" d="M26.775335186458737 11.9413405411562 L26.775335186458737 19.00733038887193 L25.331659802894116 20.166068679447278 L25.331659802894116 13.100078831731544 z"/>
<path fill="#bababa" stroke="#bababa" d="M32.309732884616764 5.319376743929628 L32.30973288461677 12.385366591645363 L31.442740073194226 13.803073207622331 L31.442740073194226 6.737083359906597 z"/>
<path fill="#bababa" stroke="#bababa" d="M29.340395411195082 9.443106779513506 L29.340395411195082 16.50909662722924 L28.113340554529476 17.786733992686504 L28.113340554529476 10.720744144970768 z"/>
<path fill="#bababa" stroke="#bababa" d="M28.113340554529476 10.720744144970766 L28.113340554529476 17.7867339926865 L26.775335186458737 19.007330388871935 L26.775335186458737 11.9413405411562 z"/>
<path fill="#bababa" stroke="#bababa" d="M30.451657131524307 8.11347069576893 L30.451657131524303 15.179460543484668 L29.340395411195082 16.509096627229244 L29.340395411195082 9.443106779513506 z"/>
<path fill="#bababa" stroke="#bababa" d="M31.442740073194226 6.737083359906597 L31.442740073194226 13.803073207622331 L30.451657131524307 15.179460543484666 L30.451657131524307 8.113470695768932 z"/>
<path fill="#bababa" stroke="#bababa" d="M33.04921394125662 3.865945888162706 L33.049213941256625 10.93193573587844 L32.30973288461677 12.385366591645363 L32.30973288461677 5.319376743929628 z"/>
<path fill="#bababa" stroke="#bababa" d="M33.658264849219954 2.382526820184183 L33.65826484921995 9.448516667899918 L33.04921394125662 10.93193573587844 L33.04921394125662 3.865945888162706 z"/>
<path fill="#bababa" stroke="#bababa" d="M34.13448196282195 0.8749739173456249 L34.13448196282195 7.94096376506136 L33.658264849219954 9.448516667899918 L33.658264849219954 2.382526820184183 z"/>
<path fill="#bababa" stroke="#bababa" d="M34.47598587067811 -0.6507631977808324 L34.47598587067811 6.415226649934902 L34.13448196282195 7.94096376506136 L34.13448196282195 0.8749739173456248 z"/>
<path fill="#bababa" stroke="#bababa" d="M34.68142881288244 -2.188663137844788 L34.68142881288244 4.877326709870947 L34.47598587067811 6.415226649934902 L34.47598587067811 -0.6507631977808322 z"/>
<path fill="#bababa" stroke="#bababa" d="M34.74999999999999 -3.732656514382402 L34.74999999999999 3.3333333333333335 L34.68142881288244 4.877326709870947 L34.68142881288244 -2.188663137844788 z"/>
<path fill="#bababa" stroke="#bababa" d="M34.68142881288244 -5.276649890920085 L34.75 -3.732656514382402 L34.681428812882444 -2.1886631378447876 L34.475985870678116 -0.6507631977808324 L34.13448196282196 0.8749739173456248 L33.658264849219954 2.382526820184183 L33.049213941256625 3.865945888162706 L32.30973288461677 5.319376743929628 L31.442740073194226 6.737083359906597 L30.451657131524307 8.11347069576893 L29.340395411195082 9.443106779513508 L28.113340554529476 10.720744144970768 L26.775335186458737 11.9413405411562 L25.331659802894116 13.100078831731542 L23.788011931021998 14.192386006041055 L22.15048364376704 15.213951226695421 L20.425537517163512 16.160742842477465 L18.619981125520205 17.029024299427643 L16.740940175034677 17.815368887315444 L14.795830381886347 18.51667326329914 L12.792328205792629 19.13016969940221 L10.738340554529492 19.65343700547123 L8.64197357897877 20.08441008450722 L6.511500681853996 20.42138808266011 L4.355329866359651 20.66304110172179 L2.1819705536437155 20.80841544762679 L7.290485258441134e-14 20.856937394247037 L-2.1819705536435547 20.808415447626793 L-4.355329866359491 20.663041101721806 L-6.511500681853852 20.421388082660126 L-8.64197357897863 20.084410084507244 L-10.738340554529353 19.653437005471257 L-12.792328205792494 19.13016969940225 L-14.795830381886214 18.516673263299186 L-16.74094017503455 17.815368887315493 L-18.61998112552008 17.029024299427704 L-20.425537517163395 16.16074284247753 L-22.150483643766925 15.213951226695487 L-23.788011931021895 14.192386006041128 L-25.331659802894016 13.100078831731619 L-26.775335186458637 11.941340541156286 L-28.11334055452939 10.720744144970846 L-29.340395411194994 9.443106779513604 L-30.451657131524236 8.11347069576902 L-31.44274007319416 6.737083359906699 L-32.30973288461672 5.319376743929724 L-33.049213941256575 3.8659458881628144 L-33.658264849219925 2.382526820184284 L-34.13448196282192 0.8749739173457373 L-34.4759858706781 -0.6507631977807299 L-34.68142881288243 -2.1886631378446904 L-34.75 -3.732656514382374 L-34.68142881288244 -5.2766498909200585 L-34.47598587067811 -6.814549830984024 L-34.13448196282194 -8.34028694611049 L-33.65826484921994 -9.847839848949038 L-33.049213941256596 -11.33125891692757 L-32.30973288461674 -12.784689772694476 L-31.442740073194187 -14.20239638867145 L-30.45165713152427 -15.578783724533778 L-29.340395411195036 -16.90841980827836 L-28.113340554529433 -18.186057173735605 L-26.775335186458683 -19.406653569921048 L-25.33165980289406 -20.565391860496387 L-23.78801193102194 -21.6576990348059 L-22.150483643766975 -22.679264255460257 L-20.425537517163452 -23.6260558712423 L-18.619981125520145 -24.494337328192472 L-16.74094017503462 -25.280681916080265 L-14.795830381886292 -25.981986292063958 L-12.792328205792577 -26.595482728167028 L-10.738340554529444 -27.118750034236037 L-8.641973578978723 -27.54972311327203 L-6.51150068185395 -27.886701111424916 L-4.355329866359591 -28.128354130486596 L-2.1819705536436587 -28.273728476391597 L-1.8938035985281243e-14 -28.322250423011837 L2.1819705536436205 -28.273728476391597 L4.355329866359554 -28.128354130486603 L6.511500681853913 -27.886701111424923 L8.641973578978686 -27.549723113272037 L10.738340554529406 -27.118750034236047 L12.792328205792543 -26.595482728167035 L14.79583038188626 -25.981986292063972 L16.74094017503459 -25.28068191608028 L18.619981125520116 -24.49433732819249 L20.425537517163427 -23.626055871242315 L22.150483643766954 -22.679264255460268 L23.788011931021913 -21.657699034805916 L25.331659802894038 -20.565391860496405 L26.775335186458662 -19.406653569921065 L28.11334055452941 -18.186057173735623 L29.34039541119501 -16.90841980827838 L30.45165713152425 -15.578783724533801 L31.442740073194173 -14.202396388671477 L32.30973288461673 -12.784689772694504 L33.04921394125658 -11.33125891692759 L33.65826484921993 -9.84783984894906 L34.13448196282193 -8.340286946110519 L34.4759858706781 -6.814549830984053 z"/>
<path fill="#bababa" stroke="#bababa" d="M34.68142881288244 1.7893399567956494 L34.4759858706781 0.25144001673168265 L34.13448196282193 -1.2742970983947834 L33.65826484921993 -2.781850001233326 L33.04921394125658 -4.265269069211855 L32.30973288461673 -5.718699924978768 L31.442740073194173 -7.136406540955743 L30.45165713152425 -8.512793876818067 L29.34039541119501 -9.842429960562646 L28.11334055452941 -11.120067326019889 L26.775335186458662 -12.34066372220533 L25.331659802894038 -13.499402012780672 L23.788011931021913 -14.59170918709018 L22.150483643766954 -15.613274407744536 L20.425537517163427 -16.560066023526577 L18.619981125520116 -17.428347480476756 L16.74094017503459 -18.214692068364545 L14.79583038188626 -18.915996444348234 L12.792328205792543 -19.5294928804513 L10.738340554529406 -20.052760186520313 L8.641973578978686 -20.483733265556303 L6.511500681853913 -20.82071126370919 L4.355329866359554 -21.062364282770865 L2.1819705536436205 -21.20773862867586 L-1.8938035985281243e-14 -21.256260575296103 L-2.1819705536436587 -21.20773862867586 L-4.355329866359591 -21.06236428277086 L-6.51150068185395 -20.820711263709182 L-8.641973578978723 -20.483733265556292 L-10.738340554529444 -20.052760186520306 L-12.792328205792577 -19.52949288045129 L-14.795830381886292 -18.915996444348224 L-16.74094017503462 -18.214692068364535 L-18.619981125520145 -17.428347480476738 L-20.425537517163452 -16.560066023526563 L-22.150483643766975 -15.613274407744521 L-23.78801193102194 -14.591709187090165 L-25.33165980289406 -13.499402012780651 L-26.775335186458683 -12.340663722205313 L-28.113340554529433 -11.120067326019871 L-29.340395411195036 -9.842429960562626 L-30.45165713152427 -8.51279387681804 L-31.442740073194187 -7.136406540955718 L-32.30973288461674 -5.718699924978742 L-33.049213941256596 -4.265269069211835 L-33.65826484921994 -2.781850001233304 L-34.13448196282194 -1.2742970983947568 L-34.47598587067811 0.2514400167317103 L-34.68142881288244 1.7893399567956765 L-34.75 3.3333333333333606 L-34.68142881288243 4.877326709871045 L-34.4759858706781 6.415226649935005 L-34.13448196282192 7.940963765061472 L-33.658264849219925 9.44851666790002 L-33.049213941256575 10.931935735878548 L-32.30973288461672 12.38536659164546 L-31.44274007319416 13.803073207622434 L-30.451657131524236 15.179460543484756 L-29.340395411194994 16.50909662722934 L-28.11334055452939 17.78673399268658 L-26.775335186458637 19.00733038887202 L-25.331659802894016 20.166068679447353 L-23.788011931021895 21.258375853756863 L-22.150483643766925 22.279941074411223 L-20.425537517163395 23.226732690193263 L-18.61998112552008 24.095014147143438 L-16.74094017503455 24.88135873503123 L-14.795830381886214 25.582663111014917 L-12.792328205792494 26.196159547117986 L-10.738340554529353 26.719426853186995 L-8.64197357897863 27.150399932222975 L-6.511500681853852 27.48737793037586 L-4.355329866359491 27.72903094943754 L-2.1819705536435547 27.874405295342527 L7.290485258441134e-14 27.92292724196277 L2.1819705536437155 27.874405295342523 L4.355329866359651 27.729030949437522 L6.511500681853996 27.487377930375843 L8.64197357897877 27.150399932222953 L10.738340554529492 26.719426853186967 L12.792328205792629 26.196159547117947 L14.795830381886347 25.582663111014874 L16.740940175034677 24.88135873503118 L18.619981125520205 24.09501414714338 L20.425537517163512 23.2267326901932 L22.15048364376704 22.279941074411155 L23.788011931021998 21.258375853756792 L25.331659802894116 20.166068679447278 L26.775335186458737 19.00733038887193 L28.113340554529476 17.7867339926865 L29.340395411195082 16.50909662722924 L30.451657131524307 15.179460543484666 L31.442740073194226 13.803073207622333 L32.30973288461677 12.385366591645363 L33.049213941256625 10.931935735878442 L33.658264849219954 9.448516667899918 L34.13448196282196 7.940963765061359 L34.475985870678116 6.415226649934903 L34.681428812882444 4.877326709870947 L34.75 3.3333333333333335 z"/>
</svg>