<?xml version="1.0" encoding="UTF-8"?>
<!-- Generated by jsxcad -->
<!DOCTYPE svg PUBLIC "-//W3C//DTD SVG 1.1 Tiny//EN" "http://www.w3.org/Graphics/SVG/1.1/DTD/svg11-tiny.dtd">
<svg baseProfile="tiny" height="147.48701957940534mm" width="208.42857142857142mm" viewBox="-104.21428571428571 -75.41017645636934 208.42857142857142 147.48701957940534" version="1.1" stroke="black" stroke-width=".1" fill="none" xmlns="http://www.w3.org/2000/svg">
<path fill="#bababa" stroke="#bababa" d="M42.416135958201544 -3.7546654802948445 L42.416135958201544 -0.22167055643697683 L42.5 1.6666666666666656 L42.5 -1.866328257191202 z"/>
<path fill="#bababa" stroke="#bababa" d="M42.1648748058653 -5.635550299078113 L42.1648748058653 -2.1025553752202453 L42.416135958201544 -0.22167055643697686 L42.416135958201544 -3.754665480294844 z"/>
<path fill="#bababa" stroke="#bababa" d="M40.41990194254402 -11.159582994116974 L40.41990194254402 -7.626588070259106 L41.16478434796682 -5.812334533882485 L41.16478434796682 -9.345329457740352 z"/>
<path fill="#bababa" stroke="#bababa" d="M41.74720815596927 -7.5015597204558055 L41.74720815596927 -3.9685647965979376 L42.1648748058653 -2.102555375220245 L42.1648748058653 -5.635550299078113 z"/>
<path fill="#bababa" stroke="#bababa" d="M41.16478434796682 -9.345329457740354 L41.16478434796682 -5.812334533882486 L41.74720815596927 -3.968564796597938 L41.74720815596927 -7.501559720455805 z"/>
<path fill="#bababa" stroke="#bababa" d="M38.455149729805825 -14.671046089055539 L38.455149729805825 -11.138051165197671 L39.51550065025068 -9.404165375873314 L39.51550065025068 -12.93716029973118 z"/>
<path fill="#bababa" stroke="#bababa" d="M37.243033901864194 -16.354397507016657 L37.243033901864194 -12.821402583158788 L38.455149729805825 -11.138051165197671 L38.455149729805825 -14.67104608905554 z"/>
<path fill="#bababa" stroke="#bababa" d="M35.88393683383563 -17.98057113461794 L35.88393683383563 -14.447576210760074 L37.243033901864194 -12.82140258315879 L37.243033901864194 -16.354397507016657 z"/>
<path fill="#bababa" stroke="#bababa" d="M39.51550065025068 -12.93716029973118 L39.51550065025068 -9.404165375873314 L40.41990194254402 -7.626588070259105 L40.41990194254402 -11.159582994116974 z"/>
<path fill="#bababa" stroke="#bababa" d="M34.383222260935256 -19.543149207479317 L34.383222260935256 -16.01015428362145 L35.88393683383563 -14.447576210760072 L35.88393683383563 -17.980571134617943 z"/>
<path fill="#bababa" stroke="#bababa" d="M32.746812817971026 -21.035964943821224 L32.746812817971026 -17.502970019963353 L34.383222260935256 -16.01015428362145 L34.383222260935256 -19.543149207479317 z"/>
<path fill="#bababa" stroke="#bababa" d="M30.981166665409972 -22.45312688193495 L30.981166665409972 -18.920131958077082 L32.746812817971026 -17.502970019963357 L32.746812817971026 -21.035964943821224 z"/>
<path fill="#bababa" stroke="#bababa" d="M29.093252001969248 -23.789042131090465 L29.093252001969248 -20.256047207232598 L30.981166665409972 -18.920131958077082 L30.981166665409972 -22.45312688193495 z"/>
<path fill="#bababa" stroke="#bababa" d="M27.090519564319298 -25.038438444120963 L27.090519564319298 -21.505443520263103 L29.09325200196925 -20.256047207232594 L29.093252001969248 -23.789042131090465 z"/>
<path fill="#bababa" stroke="#bababa" d="M24.98087322243009 -26.19638502457383 L24.980873222430095 -22.66339010071596 L27.090519564319298 -21.5054435202631 L27.090519564319294 -25.038438444120967 z"/>
<path fill="#bababa" stroke="#bababa" d="M22.77263878660733 -27.258311986311462 L22.77263878660733 -23.725317062453588 L24.980873222430088 -22.66339010071597 L24.980873222430088 -26.19638502457384 z"/>
<path fill="#bababa" stroke="#bababa" d="M20.474531149322875 -28.22002838876415 L20.474531149322875 -24.687033464906282 L22.77263878660733 -23.725317062453588 L22.77263878660733 -27.25831198631146 z"/>
<path fill="#bababa" stroke="#bababa" d="M13.133222260935243 -30.468025367803584 L13.133222260935243 -26.93503044394571 L15.645293489098794 -26.295063235084328 L15.645293489098794 -29.828058158942202 z"/>
<path fill="#bababa" stroke="#bababa" d="M10.569320204506305 -30.995114745041842 L10.569320204506305 -27.462119821183972 L13.133222260935243 -26.935030443945713 L13.133222260935243 -30.46802536780358 z"/>
<path fill="#bababa" stroke="#bababa" d="M15.645293489098794 -29.8280581589422 L15.645293489098794 -26.29506323508433 L18.095619891515565 -25.544743852800003 L18.095619891515565 -29.07773877665787 z"/>
<path fill="#bababa" stroke="#bababa" d="M18.095619891515565 -29.07773877665787 L18.095619891515565 -25.544743852800003 L20.474531149322875 -24.68703346490628 L20.474531149322875 -28.22002838876415 z"/>
<path fill="#bababa" stroke="#bababa" d="M7.963705869893272 -31.407246109689254 L7.963705869893272 -27.874251185831394 L10.569320204506305 -27.462119821183975 L10.569320204506305 -30.99511474504184 z"/>
<path fill="#bababa" stroke="#bababa" d="M5.3266624264829066 -31.70279296753447 L5.3266624264829066 -28.1697980436766 L7.963705869893272 -27.874251185831387 L7.963705869893272 -31.407246109689257 z"/>
<path fill="#bababa" stroke="#bababa" d="M2.6685970799957945 -31.88058893015209 L2.6685970799957945 -28.347594006294226 L5.3266624264829066 -28.169798043676604 L5.3266624264829066 -31.70279296753447 z"/>
<path fill="#bababa" stroke="#bababa" d="M-2.3161626744588564e-14 -31.93993231810491 L-2.3161626744588564e-14 -28.406937394247038 L2.6685970799957945 -28.347594006294223 L2.6685970799957945 -31.88058893015209 z"/>
<path fill="#bababa" stroke="#bababa" d="M-2.6685970799958407 -31.88058893015209 L-2.6685970799958407 -28.347594006294223 L-2.3161626744588567e-14 -28.40693739424704 L-2.3161626744588567e-14 -31.939932318104905 z"/>
<path fill="#bababa" stroke="#bababa" d="M-5.326662426482953 -31.702792967534464 L-5.326662426482953 -28.1697980436766 L-2.6685970799958407 -28.347594006294223 L-2.6685970799958407 -31.88058893015209 z"/>
<path fill="#bababa" stroke="#bababa" d="M-7.963705869893319 -31.40724610968925 L-7.963705869893319 -27.874251185831383 L-5.326662426482953 -28.169798043676597 L-5.326662426482953 -31.702792967534464 z"/>
<path fill="#bababa" stroke="#bababa" d="M-10.56932020450635 -30.995114745041832 L-10.56932020450635 -27.46211982118397 L-7.963705869893319 -27.874251185831387 L-7.963705869893319 -31.40724610968925 z"/>
<path fill="#bababa" stroke="#bababa" d="M-13.13322226093529 -30.46802536780357 L-13.13322226093529 -26.935030443945703 L-10.56932020450635 -27.46211982118396 L-10.56932020450635 -30.995114745041832 z"/>
<path fill="#bababa" stroke="#bababa" d="M-15.645293489098833 -29.82805815894219 L-15.645293489098833 -26.295063235084324 L-13.13322226093529 -26.935030443945703 L-13.13322226093529 -30.468025367803573 z"/>
<path fill="#bababa" stroke="#bababa" d="M-18.095619891515607 -29.07773877665786 L-18.095619891515607 -25.544743852799996 L-15.645293489098833 -26.295063235084324 L-15.645293489098833 -29.828058158942188 z"/>
<path fill="#bababa" stroke="#bababa" d="M-20.474531149322914 -28.22002838876414 L-20.474531149322914 -24.687033464906275 L-18.095619891515607 -25.544743852799996 L-18.095619891515607 -29.07773877665786 z"/>
<path fill="#bababa" stroke="#bababa" d="M-22.77263878660737 -27.258311986311444 L-22.77263878660737 -23.725317062453573 L-20.474531149322914 -24.68703346490627 L-20.474531149322914 -28.22002838876414 z"/>
<path fill="#bababa" stroke="#bababa" d="M-24.98087322243012 -26.196385024573818 L-24.98087322243012 -22.66339010071595 L-22.77263878660737 -23.72531706245358 L-22.77263878660737 -27.258311986311444 z"/>
<path fill="#bababa" stroke="#bababa" d="M-27.090519564319326 -25.03843844412095 L-27.090519564319322 -21.505443520263086 L-24.980873222430127 -22.66339010071594 L-24.98087322243013 -26.196385024573807 z"/>
<path fill="#bababa" stroke="#bababa" d="M-29.09325200196928 -23.789042131090444 L-29.09325200196928 -20.256047207232577 L-27.090519564319326 -21.505443520263086 L-27.090519564319322 -25.038438444120953 z"/>
<path fill="#bababa" stroke="#bababa" d="M-30.98116666541 -22.453126881934924 L-30.98116666541 -18.92013195807706 L-29.09325200196928 -20.256047207232577 L-29.09325200196928 -23.789042131090444 z"/>
<path fill="#bababa" stroke="#bababa" d="M-32.746812817971055 -21.0359649438212 L-32.746812817971055 -17.502970019963332 L-30.98116666541 -18.920131958077057 L-30.98116666541 -22.453126881934924 z"/>
<path fill="#bababa" stroke="#bababa" d="M-34.38322226093528 -19.543149207479296 L-34.38322226093528 -16.010154283621425 L-32.746812817971055 -17.502970019963335 L-32.746812817971055 -21.035964943821202 z"/>
<path fill="#bababa" stroke="#bababa" d="M-35.883936833835655 -17.98057113461791 L-35.883936833835655 -14.447576210760046 L-34.38322226093528 -16.01015428362143 L-34.38322226093528 -19.543149207479296 z"/>
<path fill="#bababa" stroke="#bababa" d="M-37.243033901864216 -16.354397507016625 L-37.243033901864216 -12.82140258315876 L-35.883936833835655 -14.447576210760046 L-35.883936833835655 -17.980571134617914 z"/>
<path fill="#bababa" stroke="#bababa" d="M-38.45514972980584 -14.671046089055508 L-38.45514972980584 -11.138051165197641 L-37.243033901864216 -12.821402583158758 L-37.243033901864216 -16.354397507016625 z"/>
<path fill="#bababa" stroke="#bababa" d="M-40.41990194254404 -11.159582994116949 L-40.41990194254404 -7.62658807025908 L-39.515500650250694 -9.404165375873282 L-39.515500650250694 -12.937160299731149 z"/>
<path fill="#bababa" stroke="#bababa" d="M-41.16478434796683 -9.345329457740325 L-41.16478434796683 -5.812334533882459 L-40.41990194254404 -7.626588070259081 L-40.41990194254404 -11.159582994116947 z"/>
<path fill="#bababa" stroke="#bababa" d="M-39.515500650250694 -12.93716029973115 L-39.515500650250694 -9.404165375873282 L-38.45514972980584 -11.138051165197641 L-38.45514972980584 -14.67104608905551 z"/>
<path fill="#bababa" stroke="#bababa" d="M-42.16487480586532 -5.63555029907808 L-42.16487480586532 -2.102555375220212 L-41.747208155969275 -3.968564796597905 L-41.747208155969275 -7.501559720455773 z"/>
<path fill="#bababa" stroke="#bababa" d="M-42.416135958201544 -3.7546654802948107 L-42.416135958201544 -0.22167055643694353 L-42.16487480586532 -2.102555375220212 L-42.16487480586532 -5.635550299078079 z"/>
<path fill="#bababa" stroke="#bababa" d="M-42.5 -1.8663282571911686 L-42.5 1.666666666666699 L-42.416135958201544 -0.22167055643694353 L-42.416135958201544 -3.7546654802948107 z"/>
<path fill="#bababa" stroke="#bababa" d="M-42.41613595820153 0.02200896591247397 L-42.41613595820153 3.5550038897703415 L-42.49999999999999 1.666666666666699 L-42.49999999999999 -1.8663282571911683 z"/>
<path fill="#bababa" stroke="#bababa" d="M-41.747208155969275 -7.501559720455773 L-41.747208155969275 -3.9685647965979056 L-41.16478434796683 -5.812334533882459 L-41.16478434796683 -9.345329457740327 z"/>
<path fill="#bababa" stroke="#bababa" d="M-41.74720815596926 3.7689032060734275 L-41.74720815596926 7.3018981299312955 L-42.1648748058653 5.435888708553602 L-42.164874805865296 1.902893784695735 z"/>
<path fill="#bababa" stroke="#bababa" d="M-41.16478434796681 5.612672943357982 L-41.16478434796681 9.145667867215849 L-41.74720815596926 7.301898129931295 L-41.74720815596926 3.768903206073428 z"/>
<path fill="#bababa" stroke="#bababa" d="M-42.1648748058653 1.902893784695735 L-42.164874805865296 5.435888708553603 L-42.41613595820154 3.555003889770341 L-42.41613595820153 0.02200896591247397 z"/>
<path fill="#bababa" stroke="#bababa" d="M-39.515500650250665 9.204503785348807 L-39.515500650250665 12.737498709206676 L-40.41990194254401 10.959921403592467 L-40.41990194254401 7.4269264797346 z"/>
<path fill="#bababa" stroke="#bababa" d="M-38.455149729805804 10.938389574673167 L-38.455149729805804 14.471384498531036 L-39.515500650250665 12.737498709206674 L-39.515500650250665 9.204503785348807 z"/>
<path fill="#bababa" stroke="#bababa" d="M-40.41990194254401 7.4269264797346 L-40.41990194254401 10.959921403592467 L-41.16478434796681 9.145667867215849 L-41.16478434796681 5.612672943357981 z"/>
<path fill="#bababa" stroke="#bababa" d="M-29.093252001969223 20.056385616708077 L-29.093252001969223 23.589380540565948 L-30.981166665409948 22.253465291410432 L-30.981166665409948 18.720470367552565 z"/>
<path fill="#bababa" stroke="#bababa" d="M-32.746812817971 17.30330842943885 L-32.746812817971 20.836303353296717 L-34.38322226093523 19.34348761695481 L-34.38322226093523 15.810492693096945 z"/>
<path fill="#bababa" stroke="#bababa" d="M-30.981166665409948 18.720470367552565 L-30.981166665409948 22.253465291410436 L-32.746812817971 20.836303353296717 L-32.746812817971 17.303308429438847 z"/>
<path fill="#bababa" stroke="#bababa" d="M-34.38322226093523 15.810492693096945 L-34.38322226093523 19.343487616954814 L-35.883936833835605 17.780909544093436 L-35.883936833835605 14.247914620235568 z"/>
<path fill="#bababa" stroke="#bababa" d="M-37.24303390186417 12.62174099263428 L-37.24303390186417 16.154735916492147 L-38.455149729805804 14.471384498531032 L-38.455149729805804 10.938389574673167 z"/>
<path fill="#bababa" stroke="#bababa" d="M-35.883936833835605 14.24791462023557 L-35.883936833835605 17.780909544093436 L-37.24303390186417 16.154735916492147 L-37.24303390186417 12.621740992634281 z"/>
<path fill="#bababa" stroke="#bababa" d="M-24.980873222430052 22.463728510191448 L-24.980873222430052 25.996723434049315 L-27.090519564319262 24.838776853596457 L-27.090519564319262 21.30578192973859 z"/>
<path fill="#bababa" stroke="#bababa" d="M-22.77263878660729 23.525655471929074 L-22.77263878660729 27.058650395786945 L-24.98087322243005 25.996723434049322 L-24.98087322243005 22.46372851019145 z"/>
<path fill="#bababa" stroke="#bababa" d="M-20.47453114932283 24.48737187438177 L-20.47453114932283 28.020366798239635 L-22.77263878660729 27.058650395786945 L-22.77263878660729 23.525655471929074 z"/>
<path fill="#bababa" stroke="#bababa" d="M-27.090519564319262 21.305781929738586 L-27.090519564319262 24.838776853596457 L-29.093252001969223 23.589380540565948 L-29.093252001969223 20.05638561670808 z"/>
<path fill="#bababa" stroke="#bababa" d="M-18.095619891515508 25.34508226227549 L-18.095619891515508 28.87807718613336 L-20.47453114932283 28.02036679823964 L-20.47453114932283 24.48737187438177 z"/>
<path fill="#bababa" stroke="#bababa" d="M-15.645293489098732 26.095401644559814 L-15.645293489098732 29.62839656841768 L-18.095619891515508 28.878077186133357 L-18.095619891515508 25.34508226227549 z"/>
<path fill="#bababa" stroke="#bababa" d="M-13.133222260935177 26.73536885342119 L-13.133222260935177 30.268363777279056 L-15.64529348909873 29.62839656841768 L-15.64529348909873 26.095401644559814 z"/>
<path fill="#bababa" stroke="#bababa" d="M-10.569320204506234 27.26245823065945 L-10.569320204506234 30.79545315451732 L-13.133222260935177 30.26836377727906 L-13.133222260935177 26.73536885342119 z"/>
<path fill="#bababa" stroke="#bababa" d="M-7.9637058698932 27.674589595306863 L-7.9637058698932 31.20758451916473 L-10.569320204506235 30.79545315451732 L-10.569320204506235 27.26245823065945 z"/>
<path fill="#bababa" stroke="#bababa" d="M-5.32666242648283 27.970136453152076 L-5.32666242648283 31.503131377009943 L-7.9637058698932 31.20758451916473 L-7.9637058698932 27.67458959530686 z"/>
<path fill="#bababa" stroke="#bababa" d="M-2.668597079995714 28.14793241576969 L-2.668597079995714 31.680927339627555 L-5.32666242648283 31.503131377009943 L-5.32666242648283 27.970136453152076 z"/>
<path fill="#bababa" stroke="#bababa" d="M2.6685970799959104 28.14793241576968 L2.6685970799959104 31.68092733962755 L8.916420819676205e-14 31.740270727580373 L8.916420819676205e-14 28.207275803722503 z"/>
<path fill="#bababa" stroke="#bababa" d="M8.916420819676205e-14 28.207275803722506 L8.916420819676205e-14 31.740270727580373 L-2.668597079995714 31.68092733962756 L-2.668597079995714 28.14793241576969 z"/>
<path fill="#bababa" stroke="#bababa" d="M5.326662426483026 27.970136453152058 L5.326662426483026 31.503131377009925 L2.6685970799959104 31.68092733962755 L2.6685970799959104 28.14793241576968 z"/>
<path fill="#bababa" stroke="#bababa" d="M13.133222260935348 26.735368853421154 L13.133222260935348 30.26836377727902 L10.56932020450641 30.795453154517286 L10.56932020450641 27.26245823065942 z"/>
<path fill="#bababa" stroke="#bababa" d="M15.645293489098897 26.095401644559768 L15.645293489098897 29.62839656841764 L13.133222260935346 30.268363777279024 L13.133222260935346 26.735368853421154 z"/>
<path fill="#bababa" stroke="#bababa" d="M18.09561989151567 25.345082262275437 L18.09561989151567 28.878077186133304 L15.645293489098897 29.62839656841764 L15.645293489098897 26.095401644559768 z"/>
<path fill="#bababa" stroke="#bababa" d="M20.47453114932298 24.487371874381704 L20.47453114932298 28.020366798239575 L18.09561989151567 28.878077186133304 L18.09561989151567 25.345082262275433 z"/>
<path fill="#bababa" stroke="#bababa" d="M10.56932020450641 27.26245823065942 L10.56932020450641 30.795453154517286 L7.963705869893376 31.20758451916471 L7.963705869893376 27.674589595306838 z"/>
<path fill="#bababa" stroke="#bababa" d="M7.963705869893376 27.67458959530684 L7.963705869893376 31.20758451916471 L5.326662426483026 31.50313137700993 L5.326662426483026 27.970136453152058 z"/>
<path fill="#bababa" stroke="#bababa" d="M22.772638786607438 23.525655471929007 L22.772638786607438 27.058650395786874 L20.47453114932298 28.020366798239575 L20.47453114932298 24.48737187438171 z"/>
<path fill="#bababa" stroke="#bababa" d="M24.98087322243019 22.463728510191373 L24.98087322243019 25.99672343404924 L22.772638786607438 27.058650395786874 L22.772638786607438 23.525655471929003 z"/>
<path fill="#bababa" stroke="#bababa" d="M27.0905195643194 21.30578192973851 L27.0905195643194 24.838776853596375 L24.980873222430194 25.996723434049237 L24.980873222430194 22.46372851019137 z"/>
<path fill="#bababa" stroke="#bababa" d="M29.09325200196935 20.056385616707992 L29.09325200196935 23.58938054056586 L27.0905195643194 24.838776853596375 L27.0905195643194 21.305781929738508 z"/>
<path fill="#bababa" stroke="#bababa" d="M30.981166665410072 18.72047036755247 L30.981166665410072 22.25346529141034 L29.09325200196935 23.58938054056586 L29.09325200196935 20.056385616707995 z"/>
<path fill="#bababa" stroke="#bababa" d="M32.74681281797112 17.30330842943874 L32.74681281797112 20.836303353296607 L30.981166665410072 22.253465291410336 L30.981166665410072 18.72047036755247 z"/>
<path fill="#bababa" stroke="#bababa" d="M34.38322226093533 15.810492693096844 L34.38322226093533 19.34348761695471 L32.74681281797112 20.836303353296607 L32.74681281797112 17.303308429438744 z"/>
<path fill="#bababa" stroke="#bababa" d="M35.88393683383571 14.24791462023545 L35.88393683383571 17.780909544093316 L34.38322226093533 19.34348761695471 L34.38322226093533 15.810492693096844 z"/>
<path fill="#bababa" stroke="#bababa" d="M37.24303390186426 12.62174099263417 L37.24303390186426 16.154735916492037 L35.88393683383571 17.78090954409332 L35.88393683383571 14.247914620235449 z"/>
<path fill="#bababa" stroke="#bababa" d="M38.45514972980589 10.93838957467304 L38.45514972980589 14.471384498530908 L37.24303390186426 16.154735916492037 L37.24303390186426 12.62174099263417 z"/>
<path fill="#bababa" stroke="#bababa" d="M39.51550065025073 9.20450378534869 L39.51550065025073 12.737498709206557 L38.45514972980589 14.47138449853091 L38.45514972980589 10.93838957467304 z"/>
<path fill="#bababa" stroke="#bababa" d="M40.41990194254407 7.426926479734468 L40.41990194254407 10.959921403592336 L39.51550065025073 12.737498709206559 L39.51550065025073 9.20450378534869 z"/>
<path fill="#bababa" stroke="#bababa" d="M41.16478434796685 5.612672943357858 L41.16478434796685 9.145667867215725 L40.41990194254407 10.959921403592336 L40.41990194254407 7.426926479734469 z"/>
<path fill="#bababa" stroke="#bababa" d="M41.7472081559693 3.7689032060732903 L41.7472081559693 7.301898129931158 L41.16478434796685 9.145667867215725 L41.16478434796685 5.612672943357858 z"/>
<path fill="#bababa" stroke="#bababa" d="M42.164874805865324 1.9028937846956098 L42.16487480586532 5.4358887085534775 L41.7472081559693 7.301898129931158 L41.7472081559693 3.7689032060732903 z"/>
<path fill="#bababa" stroke="#bababa" d="M42.416135958201544 0.022008965912354555 L42.41613595820155 3.5550038897702216 L42.16487480586532 5.4358887085534775 L42.16487480586532 1.90289378469561 z"/>
<path fill="#bababa" stroke="#bababa" d="M42.49999999999999 -1.866328257191202 L42.49999999999999 1.6666666666666656 L42.416135958201544 3.555003889770222 L42.416135958201544 0.02200896591235456 z"/>
<path fill="#bababa" stroke="#bababa" d="M42.416135958201544 -3.754665480294844 L42.5 -1.866328257191202 L42.41613595820155 0.02200896591235456 L42.164874805865324 1.90289378469561 L41.7472081559693 3.7689032060732903 L41.16478434796685 5.612672943357858 L40.41990194254407 7.426926479734468 L39.51550065025073 9.20450378534869 L38.45514972980589 10.93838957467304 L37.24303390186426 12.621740992634171 L35.88393683383571 14.24791462023545 L34.38322226093533 15.810492693096844 L32.74681281797112 17.303308429438744 L30.981166665410072 18.72047036755247 L29.09325200196935 20.056385616707995 L27.0905195643194 21.305781929738508 L24.980873222430194 22.463728510191366 L22.77263878660744 23.525655471929003 L20.474531149322985 24.4873718743817 L18.095619891515675 25.34508226227543 L15.645293489098899 26.095401644559765 L13.13322226093535 26.73536885342115 L10.569320204506411 27.262458230659412 L7.963705869893377 27.674589595306834 L5.3266624264830265 27.970136453152058 L2.668597079995911 28.14793241576968 L8.916420819676206e-14 28.207275803722503 L-2.6685970799957146 28.147932415769684 L-5.326662426482831 27.97013645315207 L-7.963705869893201 27.674589595306855 L-10.569320204506237 27.262458230659444 L-13.13322226093518 26.735368853421186 L-15.645293489098734 26.09540164455981 L-18.09561989151551 25.345082262275486 L-20.474531149322832 24.487371874381765 L-22.772638786607292 23.52565547192907 L-24.980873222430052 22.463728510191448 L-27.090519564319262 21.305781929738586 L-29.093252001969223 20.05638561670808 L-30.981166665409948 18.720470367552565 L-32.746812817971 17.30330842943885 L-34.38322226093523 15.810492693096945 L-35.883936833835605 14.24791462023557 L-37.24303390186417 12.621740992634281 L-38.455149729805804 10.938389574673165 L-39.515500650250665 9.204503785348807 L-40.41990194254401 7.426926479734601 L-41.16478434796681 5.612672943357981 L-41.74720815596926 3.768903206073428 L-42.1648748058653 1.9028937846957352 L-42.41613595820154 0.02200896591247397 L-42.5 -1.8663282571911686 L-42.416135958201544 -3.754665480294811 L-42.16487480586532 -5.635550299078079 L-41.747208155969275 -7.501559720455774 L-41.16478434796683 -9.345329457740327 L-40.41990194254404 -11.159582994116949 L-39.515500650250694 -12.93716029973115 L-38.45514972980584 -14.671046089055508 L-37.243033901864216 -16.354397507016625 L-35.883936833835655 -17.980571134617914 L-34.38322226093528 -19.543149207479296 L-32.746812817971055 -21.0359649438212 L-30.98116666541 -22.453126881934928 L-29.09325200196928 -23.78904213109044 L-27.090519564319322 -25.038438444120953 L-24.980873222430123 -26.196385024573807 L-22.772638786607374 -27.258311986311437 L-20.474531149322917 -28.22002838876413 L-18.09561989151561 -29.077738776657856 L-15.645293489098835 -29.828058158942184 L-13.133222260935291 -30.468025367803566 L-10.569320204506353 -30.99511474504183 L-7.96370586989332 -31.407246109689247 L-5.326662426482954 -31.70279296753446 L-2.668597079995841 -31.880588930152086 L-2.316162674458857e-14 -31.9399323181049 L2.668597079995795 -31.880588930152086 L5.326662426482907 -31.702792967534464 L7.963705869893274 -31.40724610968925 L10.569320204506306 -30.995114745041835 L13.133222260935245 -30.468025367803577 L15.645293489098796 -29.828058158942195 L18.095619891515568 -29.077738776657863 L20.47453114932288 -28.220028388764142 L22.772638786607335 -27.25831198631145 L24.98087322243009 -26.19638502457383 L27.090519564319294 -25.03843844412097 L29.093252001969248 -23.789042131090465 L30.981166665409972 -22.45312688193495 L32.746812817971026 -21.03596494382122 L34.383222260935256 -19.543149207479317 L35.88393683383563 -17.98057113461794 L37.243033901864194 -16.354397507016657 L38.455149729805825 -14.67104608905554 L39.51550065025068 -12.93716029973118 L40.41990194254402 -11.159582994116974 L41.16478434796682 -9.345329457740354 L41.74720815596927 -7.5015597204558055 L42.1648748058653 -5.635550299078113 z"/>
<path fill="#bababa" stroke="#bababa" d="M42.416135958201544 -0.22167055643697686 L42.1648748058653 -2.1025553752202453 L41.74720815596927 -3.9685647965979376 L41.16478434796682 -5.812334533882486 L40.41990194254402 -7.626588070259105 L39.51550065025068 -9.404165375873314 L38.455149729805825 -11.138051165197671 L37.243033901864194 -12.821402583158788 L35.88393683383563 -14.447576210760074 L34.383222260935256 -16.01015428362145 L32.746812817971026 -17.502970019963353 L30.981166665409972 -18.920131958077082 L29.093252001969248 -20.256047207232598 L27.090519564319294 -21.5054435202631 L24.98087322243009 -22.663390100715958 L22.772638786607335 -23.725317062453584 L20.47453114932288 -24.687033464906275 L18.095619891515568 -25.5447438528 L15.645293489098796 -26.295063235084324 L13.133222260935245 -26.935030443945706 L10.569320204506306 -27.46211982118397 L7.963705869893274 -27.874251185831387 L5.326662426482907 -28.1697980436766 L2.668597079995795 -28.34759400629422 L-2.316162674458857e-14 -28.40693739424703 L-2.668597079995841 -28.34759400629422 L-5.326662426482954 -28.169798043676593 L-7.96370586989332 -27.87425118583138 L-10.569320204506353 -27.462119821183954 L-13.133222260935291 -26.935030443945696 L-15.645293489098835 -26.295063235084317 L-18.09561989151561 -25.54474385279999 L-20.474531149322917 -24.687033464906268 L-22.772638786607374 -23.725317062453566 L-24.980873222430123 -22.66339010071594 L-27.090519564319322 -21.505443520263086 L-29.09325200196928 -20.256047207232577 L-30.98116666541 -18.920131958077057 L-32.746812817971055 -17.502970019963332 L-34.38322226093528 -16.010154283621425 L-35.883936833835655 -14.447576210760046 L-37.243033901864216 -12.821402583158758 L-38.45514972980584 -11.13805116519764 L-39.515500650250694 -9.404165375873282 L-40.41990194254404 -7.626588070259081 L-41.16478434796683 -5.812334533882459 L-41.747208155969275 -3.9685647965979056 L-42.16487480586532 -2.1025553752202115 L-42.416135958201544 -0.22167055643694356 L-42.5 1.666666666666699 L-42.41613595820154 3.5550038897703415 L-42.1648748058653 5.435888708553603 L-41.74720815596926 7.3018981299312955 L-41.16478434796681 9.145667867215849 L-40.41990194254401 10.959921403592467 L-39.515500650250665 12.737498709206674 L-38.455149729805804 14.471384498531034 L-37.24303390186417 16.15473591649215 L-35.883936833835605 17.780909544093433 L-34.38322226093523 19.343487616954814 L-32.746812817971 20.836303353296717 L-30.981166665409948 22.253465291410432 L-29.093252001969223 23.589380540565944 L-27.090519564319262 24.838776853596453 L-24.980873222430052 25.996723434049315 L-22.772638786607292 27.05865039578694 L-20.474531149322832 28.020366798239632 L-18.09561989151551 28.878077186133353 L-15.645293489098734 29.628396568417678 L-13.13322226093518 30.268363777279053 L-10.569320204506237 30.795453154517315 L-7.963705869893201 31.207584519164723 L-5.326662426482831 31.50313137700994 L-2.6685970799957146 31.68092733962755 L8.916420819676206e-14 31.74027072758037 L2.668597079995911 31.680927339627548 L5.3266624264830265 31.50313137700992 L7.963705869893377 31.207584519164705 L10.569320204506411 30.795453154517283 L13.13322226093535 30.268363777279017 L15.645293489098899 29.62839656841763 L18.095619891515675 28.8780771861333 L20.474531149322985 28.02036679823957 L22.77263878660744 27.058650395786866 L24.980873222430194 25.996723434049237 L27.0905195643194 24.83877685359637 L29.09325200196935 23.58938054056586 L30.981166665410072 22.25346529141034 L32.74681281797112 20.83630335329661 L34.38322226093533 19.34348761695471 L35.88393683383571 17.78090954409332 L37.24303390186426 16.154735916492037 L38.45514972980589 14.471384498530908 L39.51550065025073 12.737498709206557 L40.41990194254407 10.959921403592336 L41.16478434796685 9.145667867215726 L41.7472081559693 7.301898129931158 L42.164874805865324 5.4358887085534775 L42.41613595820155 3.5550038897702225 L42.5 1.6666666666666656 z"/>
<path fill="none" stroke="#000000" d="M 10 28.00002417210539 L -5 28.00002417210539 M 10 28.00002417210539 L -5 20.923882040125694 M 10 20.923882040125694 L -5 20.923882040125694 M 5 14.85861735557167 L 4.285714285714285 15.86949480299734 L 2.8571428571428568 16.88037225042301 L 0.7142857142857135 17.385810974135847 L -0.7142857142857144 17.385810974135847 L -2.857142857142857 16.88037225042301 L -4.285714285714286 15.86949480299734 L -5 14.85861735557167 L -5 13.342301184433161 L -4.285714285714286 12.331423737007492 L -2.857142857142857 11.320546289581822 L -0.7142857142857144 10.815107565868988 L 0.7142857142857135 10.815107565868988 L 2.8571428571428568 11.320546289581822 L 4.285714285714285 12.331423737007492 L 5 13.342301184433161 L 5 14.85861735557167 M 6.428571428571427 -7.88612521150592 L 7.857142857142856 -7.380686487793083 L 9.285714285714285 -6.369809040367413 L 10 -5.358931592941745 L 10 -3.3371766980904054 L 9.285714285714285 -2.3262992506647286 L 7.857142857142856 -1.3154218032390566 L 6.428571428571427 -0.8099830795262257 L 4.285714285714285 -0.30454435581338934 L 0.7142857142857135 -0.30454435581338934 L -1.4285714285714288 -0.8099830795262257 L -2.857142857142857 -1.3154218032390566 L -4.285714285714286 -2.3262992506647286 L -5 -3.3371766980904054 L -5 -5.358931592941745 L -4.285714285714286 -6.369809040367413 L -2.857142857142857 -7.380686487793083 L -1.4285714285714288 -7.88612521150592 L 0.7142857142857135 -7.88612521150592 M 0.7142857142857135 -5.358931592941745 L 0.7142857142857135 -7.88612521150592 M 0.7142857142857135 -10.918757553782932 L 0.7142857142857135 -16.984022238336948 L 2.1428571428571423 -16.984022238336948 L 3.571428571428571 -16.478583514624116 L 4.285714285714285 -15.973144790911288 L 5 -14.962267343485614 L 5 -13.445951172347106 L 4.285714285714285 -12.43507372492144 L 2.8571428571428568 -11.424196277495767 L 0.7142857142857135 -10.918757553782932 L -0.7142857142857144 -10.918757553782932 L -2.857142857142857 -11.424196277495767 L -4.285714285714286 -12.43507372492144 L -5 -13.445951172347106 L -5 -14.962267343485614 L -4.285714285714286 -15.973144790911288 L -2.857142857142857 -16.984022238336948 M 5 -22.54384819917814 L 4.285714285714285 -21.53297075175248 L 2.8571428571428568 -20.522093304326795 L 0.7142857142857135 -20.016654580613967 L -0.7142857142857144 -20.016654580613967 L -2.857142857142857 -20.522093304326795 L -4.285714285714286 -21.53297075175248 L -5 -22.54384819917814 L -5 -24.06016437031664 L -4.285714285714286 -25.071041817742326 L -2.857142857142857 -26.081919265167986 L -0.7142857142857144 -26.58735798888083 L 0.7142857142857135 -26.58735798888083 L 2.8571428571428568 -26.081919265167986 L 4.285714285714285 -25.071041817742326 L 5 -24.06016437031664 L 5 -22.54384819917814 M 5 -30.125429054870676 L -5 -30.125429054870676 M 2.1428571428571423 -30.125429054870676 L 4.285714285714285 -31.64174522600918 L 5 -32.65262267343484 L 5 -34.16893884457336 L 4.285714285714285 -35.17981629199903 L 2.1428571428571423 -35.68525501571186 L -5 -35.68525501571186 M 2.1428571428571423 -35.68525501571186 L 4.285714285714285 -37.20157118685037 L 5 -38.212448634276036 L 5 -39.72876480541454 L 4.285714285714285 -40.73964225284022 L 2.1428571428571423 -41.245080976553055 L -5 -41.245080976553055 M 0.7142857142857135 -44.7831520425429 L 0.7142857142857135 -50.848416727096925 L 2.1428571428571423 -50.848416727096925 L 3.571428571428571 -50.34297800338408 L 4.285714285714285 -49.83753927967125 L 5 -48.82666183224558 L 5 -47.310345661107085 L 4.285714285714285 -46.2994682136814 L 2.8571428571428568 -45.28859076625573 L 0.7142857142857135 -44.7831520425429 L -0.7142857142857144 -44.7831520425429 L -2.857142857142857 -45.28859076625573 L -4.285714285714286 -46.2994682136814 L -5 -47.310345661107085 L -5 -48.82666183224558 L -4.285714285714286 -49.83753927967125 L -2.857142857142857 -50.848416727096925 M 10 -54.891926516799614 L -2.1428571428571432 -54.891926516799614 L -4.285714285714286 -55.39736524051244 L -5 -56.40824268793811 L -5 -57.41912013536378 M 5 -53.375610345661094 L 5 -56.91368141165095 M 5 -60.451752477640795 L -5 -60.451752477640795 M 0.7142857142857135 -60.451752477640795 L 2.8571428571428568 -60.95719120135362 L 4.285714285714285 -61.96806864877931 L 5 -62.97894609620497 L 5 -64.49526226734346 M 5 -66.01157843848199 L -5 -69.04421078075899 M 5 -72.076843123036 L -5 -69.04421078075899 L -7.857142857142857 -68.03333333333332 L -9.285714285714285 -67.02245588590765 L -10 -66.01157843848199 L -10 -65.50613971476915"/>
<path fill="none" stroke="#000000" d="M -10 -24.666690838772055 L 5 -24.666690838772055 M -10 -24.666690838772055 L 5 -17.590548706792358 M -10 -17.590548706792358 L 5 -17.590548706792358 M -5 -11.525284022238335 L -4.285714285714285 -12.536161469664004 L -2.8571428571428568 -13.547038917089676 L -0.7142857142857135 -14.052477640802511 L 0.7142857142857144 -14.052477640802511 L 2.857142857142857 -13.547038917089676 L 4.285714285714286 -12.536161469664004 L 5 -11.525284022238335 L 5 -10.008967851099825 L 4.285714285714286 -8.998090403674157 L 2.857142857142857 -7.987212956248486 L 0.7142857142857144 -7.481774232535653 L -0.7142857142857135 -7.481774232535653 L -2.8571428571428568 -7.987212956248486 L -4.285714285714285 -8.998090403674157 L -5 -10.008967851099825 L -5 -11.525284022238335 M -6.428571428571427 11.219458544839256 L -7.857142857142856 10.714019821126419 L -9.285714285714285 9.703142373700748 L -10 8.69226492627508 L -10 6.670510031423741 L -9.285714285714285 5.6596325839980635 L -7.857142857142856 4.648755136572392 L -6.428571428571427 4.143316412859561 L -4.285714285714285 3.6378776891467246 L -0.7142857142857135 3.6378776891467246 L 1.4285714285714288 4.143316412859561 L 2.857142857142857 4.648755136572392 L 4.285714285714286 5.6596325839980635 L 5 6.670510031423741 L 5 8.69226492627508 L 4.285714285714286 9.703142373700748 L 2.857142857142857 10.714019821126419 L 1.4285714285714288 11.219458544839256 L -0.7142857142857135 11.219458544839256 M -0.7142857142857135 8.69226492627508 L -0.7142857142857135 11.219458544839256 M -0.7142857142857135 14.252090887116267 L -0.7142857142857135 20.317355571670284 L -2.1428571428571423 20.317355571670284 L -3.571428571428571 19.811916847957452 L -4.285714285714285 19.306478124244624 L -5 18.29560067681895 L -5 16.77928450568044 L -4.285714285714285 15.768407058254775 L -2.8571428571428568 14.757529610829103 L -0.7142857142857135 14.252090887116267 L 0.7142857142857144 14.252090887116267 L 2.857142857142857 14.757529610829103 L 4.285714285714286 15.768407058254775 L 5 16.77928450568044 L 5 18.29560067681895 L 4.285714285714286 19.306478124244624 L 2.857142857142857 20.317355571670284 M -5 25.877181532511475 L -4.285714285714285 24.866304085085815 L -2.8571428571428568 23.85542663766013 L -0.7142857142857135 23.349987913947302 L 0.7142857142857144 23.349987913947302 L 2.857142857142857 23.85542663766013 L 4.285714285714286 24.866304085085815 L 5 25.877181532511475 L 5 27.393497703649977 L 4.285714285714286 28.404375151075662 L 2.857142857142857 29.415252598501322 L 0.7142857142857144 29.920691322214164 L -0.7142857142857135 29.920691322214164 L -2.8571428571428568 29.415252598501322 L -4.285714285714285 28.404375151075662 L -5 27.393497703649977 L -5 25.877181532511475 M -5 33.45876238820401 L 5 33.45876238820401 M -2.1428571428571423 33.45876238820401 L -4.285714285714285 34.97507855934251 L -5 35.98595600676817 L -5 37.50227217790669 L -4.285714285714285 38.51314962533236 L -2.1428571428571423 39.01858834904519 L 5 39.01858834904519 M -2.1428571428571423 39.01858834904519 L -4.285714285714285 40.5349045201837 L -5 41.545781967609365 L -5 43.06209813874787 L -4.285714285714285 44.07297558617355 L -2.1428571428571423 44.578414309886384 L 5 44.578414309886384 M -0.7142857142857135 48.11648537587623 L -0.7142857142857135 54.181750060430254 L -2.1428571428571423 54.181750060430254 L -3.571428571428571 53.67631133671741 L -4.285714285714285 53.170872613004576 L -5 52.159995165578906 L -5 50.643678994440414 L -4.285714285714285 49.63280154701473 L -2.8571428571428568 48.62192409958906 L -0.7142857142857135 48.11648537587623 L 0.7142857142857144 48.11648537587623 L 2.857142857142857 48.62192409958906 L 4.285714285714286 49.63280154701473 L 5 50.643678994440414 L 5 52.159995165578906 L 4.285714285714286 53.170872613004576 L 2.857142857142857 54.181750060430254 M -10 58.22525985013294 L 2.1428571428571432 58.22525985013294 L 4.285714285714286 58.73069857384577 L 5 59.74157602127144 L 5 60.752453468697105 M -5 56.70894367899442 L -5 60.24701474498428 M -5 63.785085810974124 L 5 63.785085810974124 M -0.7142857142857135 63.785085810974124 L -2.8571428571428568 64.29052453468695 L -4.285714285714285 65.30140198211264 L -5 66.31227942953831 L -5 67.8285956006768 M -5 69.34491177181533 L 5 72.37754411409233 M -5 75.41017645636934 L 5 72.37754411409233 L 7.857142857142857 71.36666666666666 L 9.285714285714285 70.35578921924099 L 10 69.34491177181533 L 10 68.83947304810249"/>
<path fill="none" stroke="#000000" d="M -37.214285714285715 8.742808798646362 L -37.214285714285715 -1.8714043993231797 M -37.214285714285715 8.742808798646362 L -27.214285714285715 -1.8714043993231797 M -27.214285714285715 8.742808798646362 L -27.214285714285715 -1.8714043993231797 M -18.642857142857142 5.204737732656515 L -20.07142857142857 4.699299008943679 L -21.5 3.688421561518009 L -22.214285714285715 2.1721053903795022 L -22.214285714285715 1.1612279429538321 L -21.5 -0.3550882281846739 L -20.07142857142857 -1.3659656756103444 L -18.642857142857142 -1.8714043993231797 L -16.499999999999996 -1.8714043993231797 L -15.07142857142857 -1.3659656756103444 L -13.642857142857142 -0.3550882281846739 L -12.92857142857143 1.1612279429538321 L -12.92857142857143 2.1721053903795022 L -13.642857142857142 3.688421561518009 L -15.07142857142857 4.699299008943679 L -16.499999999999996 5.204737732656515 L -18.642857142857142 5.204737732656515 M 13.5 6.215615180082184 L 12.785714285714285 7.226492627507856 L 11.357142857142854 8.237370074933526 L 9.92857142857143 8.742808798646362 L 7.0714285714285765 8.742808798646362 L 5.642857142857139 8.237370074933526 L 4.214285714285708 7.226492627507856 L 3.5 6.215615180082184 L 2.7857142857142847 4.699299008943679 L 2.7857142857142847 2.1721053903795022 L 3.5 0.6557892192409969 L 4.214285714285708 -0.3550882281846739 L 5.642857142857139 -1.3659656756103444 L 7.0714285714285765 -1.8714043993231797 L 9.92857142857143 -1.8714043993231797 L 11.357142857142854 -1.3659656756103444 L 12.785714285714285 -0.3550882281846739 L 13.5 0.6557892192409969 L 13.5 2.1721053903795022 M 9.92857142857143 2.1721053903795022 L 13.5 2.1721053903795022 M 17.785714285714285 2.1721053903795022 L 26.357142857142847 2.1721053903795022 L 26.357142857142847 3.182982837805173 L 25.64285714285714 4.193860285230844 L 24.92857142857143 4.699299008943679 L 23.5 5.204737732656515 L 21.357142857142854 5.204737732656515 L 19.92857142857143 4.699299008943679 L 18.5 3.688421561518009 L 17.785714285714285 2.1721053903795022 L 17.785714285714285 1.1612279429538321 L 18.5 -0.3550882281846739 L 19.92857142857143 -1.3659656756103444 L 21.357142857142854 -1.8714043993231797 L 23.5 -1.8714043993231797 L 24.92857142857143 -1.3659656756103444 L 26.357142857142847 -0.3550882281846739 M 34.21428571428571 5.204737732656515 L 32.78571428571429 4.699299008943679 L 31.357142857142847 3.688421561518009 L 30.64285714285714 2.1721053903795022 L 30.64285714285714 1.1612279429538321 L 31.357142857142847 -0.3550882281846739 L 32.78571428571429 -1.3659656756103444 L 34.21428571428571 -1.8714043993231797 L 36.35714285714285 -1.8714043993231797 L 37.78571428571429 -1.3659656756103444 L 39.21428571428571 -0.3550882281846739 L 39.92857142857143 1.1612279429538321 L 39.92857142857143 2.1721053903795022 L 39.21428571428571 3.688421561518009 L 37.78571428571429 4.699299008943679 L 36.35714285714285 5.204737732656515 L 34.21428571428571 5.204737732656515 M 44.92857142857143 5.204737732656515 L 44.92857142857143 -1.8714043993231797 M 44.92857142857143 3.182982837805173 L 47.07142857142857 4.699299008943679 L 48.499999999999986 5.204737732656515 L 50.64285714285714 5.204737732656515 L 52.07142857142857 4.699299008943679 L 52.78571428571428 3.182982837805173 L 52.78571428571428 -1.8714043993231797 M 52.78571428571428 3.182982837805173 L 54.92857142857143 4.699299008943679 L 56.35714285714285 5.204737732656515 L 58.499999999999986 5.204737732656515 L 59.92857142857143 4.699299008943679 L 60.64285714285714 3.182982837805173 L 60.64285714285714 -1.8714043993231797 M 65.64285714285714 2.1721053903795022 L 74.21428571428571 2.1721053903795022 L 74.21428571428571 3.182982837805173 L 73.49999999999999 4.193860285230844 L 72.78571428571428 4.699299008943679 L 71.35714285714285 5.204737732656515 L 69.21428571428572 5.204737732656515 L 67.78571428571428 4.699299008943679 L 66.35714285714285 3.688421561518009 L 65.64285714285714 2.1721053903795022 L 65.64285714285714 1.1612279429538321 L 66.35714285714285 -0.3550882281846739 L 67.78571428571428 -1.3659656756103444 L 69.21428571428572 -1.8714043993231797 L 71.35714285714285 -1.8714043993231797 L 72.78571428571428 -1.3659656756103444 L 74.21428571428571 -0.3550882281846739 M 79.92857142857143 8.742808798646362 L 79.92857142857143 0.15035049552816138 L 80.64285714285714 -1.3659656756103444 L 82.07142857142857 -1.8714043993231797 L 83.49999999999999 -1.8714043993231797 M 77.78571428571428 5.204737732656515 L 82.78571428571428 5.204737732656515 M 87.78571428571428 5.204737732656515 L 87.78571428571428 -1.8714043993231797 M 87.78571428571428 2.1721053903795022 L 88.49999999999999 3.688421561518009 L 89.92857142857143 4.699299008943679 L 91.35714285714285 5.204737732656515 L 93.49999999999999 5.204737732656515 M 95.64285714285715 5.204737732656515 L 99.92857142857143 -1.8714043993231797 M 104.21428571428571 5.204737732656515 L 99.92857142857143 -1.8714043993231797 L 98.49999999999999 -3.89315929417452 L 97.07142857142857 -4.904036741600191 L 95.64285714285715 -5.409475465313027 L 94.92857142857143 -5.409475465313027"/>
<path fill="none" stroke="#000000" d="M 37.214285714285715 -5.409475465313027 L 37.214285714285715 5.204737732656515 M 37.214285714285715 -5.409475465313027 L 27.214285714285715 5.204737732656515 M 27.214285714285715 -5.409475465313027 L 27.214285714285715 5.204737732656515 M 18.642857142857142 -1.8714043993231797 L 20.07142857142857 -1.3659656756103435 L 21.5 -0.35508822818467345 L 22.214285714285715 1.1612279429538328 L 22.214285714285715 2.172105390379503 L 21.5 3.688421561518009 L 20.07142857142857 4.6992990089436795 L 18.642857142857142 5.204737732656515 L 16.499999999999996 5.204737732656515 L 15.07142857142857 4.6992990089436795 L 13.642857142857142 3.688421561518009 L 12.92857142857143 2.172105390379503 L 12.92857142857143 1.1612279429538328 L 13.642857142857142 -0.35508822818467345 L 15.07142857142857 -1.3659656756103435 L 16.499999999999996 -1.8714043993231797 L 18.642857142857142 -1.8714043993231797 M -13.5 -2.8822818467488487 L -12.785714285714285 -3.89315929417452 L -11.357142857142854 -4.904036741600191 L -9.92857142857143 -5.409475465313027 L -7.0714285714285765 -5.409475465313027 L -5.642857142857139 -4.904036741600191 L -4.214285714285708 -3.89315929417452 L -3.5 -2.8822818467488487 L -2.7857142857142847 -1.3659656756103435 L -2.7857142857142847 1.1612279429538328 L -3.5 2.6775441140923384 L -4.214285714285708 3.688421561518009 L -5.642857142857139 4.6992990089436795 L -7.0714285714285765 5.204737732656515 L -9.92857142857143 5.204737732656515 L -11.357142857142854 4.6992990089436795 L -12.785714285714285 3.688421561518009 L -13.5 2.6775441140923384 L -13.5 1.1612279429538328 M -9.92857142857143 1.1612279429538328 L -13.5 1.1612279429538328 M -17.785714285714285 1.1612279429538328 L -26.357142857142847 1.1612279429538328 L -26.357142857142847 0.15035049552816204 L -25.64285714285714 -0.8605269518975087 L -24.92857142857143 -1.3659656756103435 L -23.5 -1.8714043993231797 L -21.357142857142854 -1.8714043993231797 L -19.92857142857143 -1.3659656756103435 L -18.5 -0.35508822818467345 L -17.785714285714285 1.1612279429538328 L -17.785714285714285 2.172105390379503 L -18.5 3.688421561518009 L -19.92857142857143 4.6992990089436795 L -21.357142857142854 5.204737732656515 L -23.5 5.204737732656515 L -24.92857142857143 4.6992990089436795 L -26.357142857142847 3.688421561518009 M -34.21428571428571 -1.8714043993231797 L -32.78571428571429 -1.3659656756103435 L -31.357142857142847 -0.35508822818467345 L -30.64285714285714 1.1612279429538328 L -30.64285714285714 2.172105390379503 L -31.357142857142847 3.688421561518009 L -32.78571428571429 4.6992990089436795 L -34.21428571428571 5.204737732656515 L -36.35714285714285 5.204737732656515 L -37.78571428571429 4.6992990089436795 L -39.21428571428571 3.688421561518009 L -39.92857142857143 2.172105390379503 L -39.92857142857143 1.1612279429538328 L -39.21428571428571 -0.35508822818467345 L -37.78571428571429 -1.3659656756103435 L -36.35714285714285 -1.8714043993231797 L -34.21428571428571 -1.8714043993231797 M -44.92857142857143 -1.8714043993231797 L -44.92857142857143 5.204737732656515 M -44.92857142857143 0.15035049552816204 L -47.07142857142857 -1.3659656756103435 L -48.499999999999986 -1.8714043993231797 L -50.64285714285714 -1.8714043993231797 L -52.07142857142857 -1.3659656756103435 L -52.78571428571428 0.15035049552816204 L -52.78571428571428 5.204737732656515 M -52.78571428571428 0.15035049552816204 L -54.92857142857143 -1.3659656756103435 L -56.35714285714285 -1.8714043993231797 L -58.499999999999986 -1.8714043993231797 L -59.92857142857143 -1.3659656756103435 L -60.64285714285714 0.15035049552816204 L -60.64285714285714 5.204737732656515 M -65.64285714285714 1.1612279429538328 L -74.21428571428571 1.1612279429538328 L -74.21428571428571 0.15035049552816204 L -73.49999999999999 -0.8605269518975087 L -72.78571428571428 -1.3659656756103435 L -71.35714285714285 -1.8714043993231797 L -69.21428571428572 -1.8714043993231797 L -67.78571428571428 -1.3659656756103435 L -66.35714285714285 -0.35508822818467345 L -65.64285714285714 1.1612279429538328 L -65.64285714285714 2.172105390379503 L -66.35714285714285 3.688421561518009 L -67.78571428571428 4.6992990089436795 L -69.21428571428572 5.204737732656515 L -71.35714285714285 5.204737732656515 L -72.78571428571428 4.6992990089436795 L -74.21428571428571 3.688421561518009 M -79.92857142857143 -5.409475465313027 L -79.92857142857143 3.1829828378051737 L -80.64285714285714 4.6992990089436795 L -82.07142857142857 5.204737732656515 L -83.49999999999999 5.204737732656515 M -77.78571428571428 -1.8714043993231797 L -82.78571428571428 -1.8714043993231797 M -87.78571428571428 -1.8714043993231797 L -87.78571428571428 5.204737732656515 M -87.78571428571428 1.1612279429538328 L -88.49999999999999 -0.35508822818467345 L -89.92857142857143 -1.3659656756103435 L -91.35714285714285 -1.8714043993231797 L -93.49999999999999 -1.8714043993231797 M -95.64285714285715 -1.8714043993231797 L -99.92857142857143 5.204737732656515 M -104.21428571428571 -1.8714043993231797 L -99.92857142857143 5.204737732656515 L -98.49999999999999 7.226492627507856 L -97.07142857142857 8.237370074933526 L -95.64285714285715 8.742808798646362 L -94.92857142857143 8.742808798646362"/>
</svg>