<?xml version="1.0" encoding="UTF-8"?>
<!-- Generated by jsxcad -->
<!DOCTYPE svg PUBLIC "-//W3C//DTD SVG 1.1 Tiny//EN" "http://www.w3.org/Graphics/SVG/1.1/DTD/svg11-tiny.dtd">
<svg baseProfile="tiny" height="72.14670050761424mm" width="75.00000000000006mm" viewBox="-37.50000000000003 -54.03130287648056 75.00000000000006 72.14670050761424" version="1.1" stroke="black" stroke-width=".1" fill="none" xmlns="http://www.w3.org/2000/svg">
<path fill="#000000" stroke="#000000" d="M5 5.205922165820643 L5 3.441962774957699 L5 -0.8037225042301178 L5 4.498307952622674 z"/>
<path fill="#000000" stroke="#000000" d="M-5 3.4419627749576978 L5 3.4419627749576978 L5 5.205922165820643 L-5 5.205922165820643 z"/>
<path fill="#000000" stroke="#000000" d="M-5 3.441962774957699 L-5 -0.8037225042301178 L5 -0.8037225042301178 L5 3.441962774957699 z"/>
<path fill="#000000" stroke="#000000" d="M5 4.498307952622673 L5 -0.8037225042301177 L-5 -0.8037225042301177 L-5 4.498307952622673 z"/>
<path fill="#000000" stroke="#000000" d="M5 5.205922165820643 L5 4.498307952622674 L-5 4.498307952622674 L-5 5.205922165820643 z"/>
<path fill="#000000" stroke="#000000" d="M-5 3.441962774957699 L-5 5.205922165820643 L-5 4.498307952622674 L-5 -0.8037225042301178 z"/>
<path fill="#000000" stroke="#000000" d="M-5 -12.456514382402705 L-5 3.441962774957699 L-5 1.3191201353637907 L-5 -14.579357021996614 z"/>
<path fill="#000000" stroke="#000000" d="M5 -12.456514382402707 L5 3.441962774957695 L-5 3.441962774957695 L-5 -12.456514382402707 z"/>
<path fill="#000000" stroke="#000000" d="M5 -14.579357021996614 L5 1.3191201353637907 L5 3.441962774957699 L5 -12.456514382402705 z"/>
<path fill="#000000" stroke="#000000" d="M-5 -14.579357021996616 L-5 1.3191201353637854 L5 1.3191201353637854 L5 -14.579357021996616 z"/>
<path fill="#000000" stroke="#000000" d="M-5 -12.456514382402705 L-5 -14.579357021996612 L5 -14.579357021996612 L5 -12.456514382402705 z"/>
<path fill="#000000" stroke="#000000" d="M-5 3.441962774957699 L5 3.441962774957699 L5 1.3191201353637907 L-5 1.3191201353637907 z"/>
<path fill="#bababa" stroke="#bababa" d="M37.426002316060185 6.753955461051676 L37.426002316060185 8.167153430594823 L37.5 9.833333333333329 L37.5 8.420135363790184 z"/>
<path fill="#bababa" stroke="#bababa" d="M37.204301299292915 5.094351209184086 L37.204301299292915 6.507549178727232 L37.426002316060185 8.167153430594823 L37.426002316060185 6.753955461051675 z"/>
<path fill="#bababa" stroke="#bababa" d="M36.83577190232582 3.4478723079684745 L36.835771902325824 4.8610702775116215 L37.204301299292915 6.507549178727233 L37.204301299292915 5.094351209184086 z"/>
<path fill="#bababa" stroke="#bababa" d="M36.321868542323664 1.8210166574232869 L36.321868542323664 3.234214626966434 L36.835771902325824 4.8610702775116215 L36.835771902325824 3.447872307968475 z"/>
<path fill="#bababa" stroke="#bababa" d="M35.664619361068254 0.22020471356156332 L35.664619361068254 1.63340268310471 L36.321868542323664 3.234214626966434 L36.321868542323664 1.821016657423287 z"/>
<path fill="#bababa" stroke="#bababa" d="M30.338137289060516 -7.177059592346389 L30.338137289060516 -5.763861622803241 L31.662297206325555 -4.385116264396146 L31.662297206325558 -5.798314233939291 z"/>
<path fill="#bababa" stroke="#bababa" d="M31.662297206325555 -5.7983142339392915 L31.662297206325555 -4.385116264396146 L32.861500501644876 -2.95025718121854 L32.861500501644876 -4.363455150761687 z"/>
<path fill="#bababa" stroke="#bababa" d="M32.861500501644876 -4.363455150761686 L32.861500501644876 -2.950257181218541 L33.93101446747573 -1.4649471065469668 L33.93101446747573 -2.878145076090114 z"/>
<path fill="#bababa" stroke="#bababa" d="M33.93101446747573 -2.8781450760901146 L33.93101446747573 -1.4649471065469668 L34.86661822080942 0.06495211932746774 L34.86661822080942 -1.3482458502156802 z"/>
<path fill="#bababa" stroke="#bababa" d="M34.86661822080942 -1.3482458502156798 L34.86661822080942 0.06495211932746721 L35.664619361068254 1.6334026831047102 L35.664619361068254 0.2202047135615631 z"/>
<path fill="#bababa" stroke="#bababa" d="M27.336323528302916 -9.74468695216018 L27.33632352830292 -8.331488982617032 L28.894246604092082 -7.081051978399038 L28.894246604092086 -8.494249947942189 z"/>
<path fill="#bababa" stroke="#bababa" d="M25.670516472325815 -10.923435701415045 L25.67051647232582 -9.510237731871898 L27.336323528302923 -8.331488982617032 L27.33632352830292 -9.74468695216018 z"/>
<path fill="#bababa" stroke="#bababa" d="M23.903399615575857 -12.025844212912553 L23.90339961557585 -10.612646243369406 L25.670516472325815 -9.510237731871902 L25.67051647232581 -10.923435701415045 z"/>
<path fill="#bababa" stroke="#bababa" d="M22.04194696096773 -13.047561783900367 L22.041946960967724 -11.63436381435722 L23.903399615575854 -10.612646243369403 L23.903399615575857 -12.02584421291255 z"/>
<path fill="#bababa" stroke="#bababa" d="M20.09350481171235 -13.984556161904159 L20.09350481171235 -12.571358192361018 L22.04194696096772 -11.634363814357231 L22.04194696096772 -13.047561783900372 z"/>
<path fill="#bababa" stroke="#bababa" d="M18.065762778814303 -14.833129458185951 L18.065762778814303 -13.4199314886428 L20.09350481171235 -12.571358192361014 L20.09350481171235 -13.984556161904164 z"/>
<path fill="#bababa" stroke="#bababa" d="M28.894246604092086 -8.494249947942189 L28.894246604092082 -7.081051978399043 L30.338137289060516 -5.763861622803241 L30.338137289060516 -7.1770595923463905 z"/>
<path fill="#bababa" stroke="#bababa" d="M15.966723433690206 -15.589932741621583 L15.966723433690206 -14.176734772078436 L18.065762778814303 -13.4199314886428 L18.065762778814303 -14.833129458185947 z"/>
<path fill="#bababa" stroke="#bababa" d="M13.804670725675406 -16.251979255401874 L13.804670725675406 -14.838781285858728 L15.966723433690204 -14.176734772078438 L15.966723433690204 -15.589932741621585 z"/>
<path fill="#bababa" stroke="#bababa" d="M11.588137289060509 -16.81665620439721 L11.588137289060509 -15.403458234854066 L13.804670725675406 -14.838781285858728 L13.804670725675406 -16.25197925540187 z"/>
<path fill="#bababa" stroke="#bababa" d="M9.325870768682034 -17.281735066666258 L9.325870768682034 -15.868537097123113 L11.588137289060509 -15.403458234854062 L11.588137289060509 -16.81665620439721 z"/>
<path fill="#bababa" stroke="#bababa" d="M7.026799296964653 -17.645380388413987 L7.026799296964653 -16.23218241887084 L9.325870768682034 -15.868537097123117 L9.325870768682034 -17.281735066666265 z"/>
<path fill="#bababa" stroke="#bababa" d="M4.699996258661388 -17.90615702768918 L4.699996258661388 -16.492959058146027 L7.026799296964653 -16.23218241887084 L7.026799296964653 -17.64538038841399 z"/>
<path fill="#bababa" stroke="#bababa" d="M2.3546444823492303 -18.063035818234127 L2.3546444823492303 -16.649837848690982 L4.699996258661388 -16.492959058146027 L4.699996258661388 -17.90615702768917 z"/>
<path fill="#bababa" stroke="#bababa" d="M-2.3546444823492716 -18.063035818234138 L-2.3546444823492716 -16.64983784869098 L-2.0436729480519324e-14 -16.702199661590523 L-2.0436729480519324e-14 -18.115397631133682 z"/>
<path fill="#bababa" stroke="#bababa" d="M-4.699996258661429 -17.906157027689165 L-4.699996258661429 -16.49295905814602 L-2.3546444823492716 -16.649837848690982 L-2.3546444823492716 -18.063035818234127 z"/>
<path fill="#bababa" stroke="#bababa" d="M-2.0436729480519324e-14 -18.11539763113367 L-2.0436729480519324e-14 -16.702199661590527 L2.3546444823492303 -16.649837848690982 L2.3546444823492303 -18.063035818234127 z"/>
<path fill="#bababa" stroke="#bababa" d="M-11.588137289060546 -16.8166562043972 L-11.588137289060546 -15.403458234854055 L-9.325870768682075 -15.86853709712311 L-9.325870768682075 -17.281735066666254 z"/>
<path fill="#bababa" stroke="#bababa" d="M-13.804670725675441 -16.25197925540187 L-13.804670725675441 -14.838781285858719 L-11.588137289060548 -15.403458234854055 L-11.588137289060548 -16.81665620439721 z"/>
<path fill="#bababa" stroke="#bababa" d="M-15.966723433690241 -15.589932741621574 L-15.966723433690241 -14.176734772078428 L-13.804670725675441 -14.838781285858719 L-13.804670725675441 -16.251979255401864 z"/>
<path fill="#bababa" stroke="#bababa" d="M-18.065762778814335 -14.833129458185939 L-18.065762778814335 -13.419931488642794 L-15.966723433690241 -14.176734772078431 L-15.966723433690241 -15.589932741621576 z"/>
<path fill="#bababa" stroke="#bababa" d="M-7.026799296964693 -17.645380388413983 L-7.026799296964693 -16.23218241887083 L-4.699996258661429 -16.49295905814602 L-4.699996258661429 -17.906157027689172 z"/>
<path fill="#bababa" stroke="#bababa" d="M-9.325870768682075 -17.28173506666626 L-9.325870768682075 -15.868537097123113 L-7.026799296964693 -16.232182418870835 L-7.026799296964693 -17.645380388413983 z"/>
<path fill="#bababa" stroke="#bababa" d="M-22.041946960967753 -13.047561783900372 L-22.041946960967753 -11.634363814357211 L-20.093504811712382 -12.571358192360998 L-20.093504811712382 -13.984556161904159 z"/>
<path fill="#bababa" stroke="#bababa" d="M-23.903399615575886 -12.025844212912538 L-23.90339961557588 -10.612646243369394 L-22.041946960967767 -11.63436381435721 L-22.041946960967763 -13.047561783900347 z"/>
<path fill="#bababa" stroke="#bababa" d="M-25.67051647232584 -10.923435701415029 L-25.67051647232584 -9.510237731871882 L-23.90339961557588 -10.612646243369392 L-23.90339961557588 -12.025844212912538 z"/>
<path fill="#bababa" stroke="#bababa" d="M-27.336323528302945 -9.744686952160164 L-27.336323528302948 -8.331488982617016 L-25.670516472325836 -9.510237731871882 L-25.67051647232584 -10.923435701415023 z"/>
<path fill="#bababa" stroke="#bababa" d="M-28.89424660409211 -8.494249947942167 L-28.894246604092114 -7.081051978399022 L-27.336323528302945 -8.331488982617012 L-27.336323528302948 -9.744686952160162 z"/>
<path fill="#bababa" stroke="#bababa" d="M-30.338137289060537 -7.17705959234637 L-30.338137289060537 -5.763861622803222 L-28.89424660409211 -7.081051978399022 L-28.89424660409211 -8.49424994794217 z"/>
<path fill="#bababa" stroke="#bababa" d="M-20.093504811712382 -13.984556161904147 L-20.093504811712382 -12.571358192360995 L-18.065762778814335 -13.419931488642787 L-18.065762778814335 -14.833129458185937 z"/>
<path fill="#bababa" stroke="#bababa" d="M-33.93101446747574 -2.878145076090087 L-33.93101446747574 -1.4649471065469404 L-32.8615005016449 -2.9502571812185123 L-32.8615005016449 -4.363455150761659 z"/>
<path fill="#bababa" stroke="#bababa" d="M-31.662297206325583 -5.798314233939266 L-31.66229720632558 -4.38511626439612 L-30.338137289060537 -5.763861622803222 L-30.338137289060537 -7.17705959234637 z"/>
<path fill="#bababa" stroke="#bababa" d="M-32.8615005016449 -4.36345515076166 L-32.8615005016449 -2.9502571812185137 L-31.662297206325583 -4.38511626439612 L-31.662297206325583 -5.798314233939267 z"/>
<path fill="#bababa" stroke="#bababa" d="M-34.866618220809436 -1.3482458502156527 L-34.866618220809436 0.0649521193274945 L-33.93101446747574 -1.4649471065469404 L-33.93101446747574 -2.8781450760900866 z"/>
<path fill="#bababa" stroke="#bababa" d="M-35.66461936106827 0.22020471356158447 L-35.66461936106827 1.6334026831047317 L-34.866618220809436 0.06495211932749499 L-34.866618220809436 -1.3482458502156522 z"/>
<path fill="#bababa" stroke="#bababa" d="M-36.32186854232367 1.8210166574233095 L-36.32186854232367 3.2342146269664562 L-35.66461936106827 1.6334026831047315 L-35.66461936106827 0.22020471356158453 z"/>
<path fill="#bababa" stroke="#bababa" d="M-36.83577190232583 3.447872307968504 L-36.83577190232583 4.861070277511651 L-36.32186854232367 3.2342146269664567 L-36.32186854232367 1.8210166574233095 z"/>
<path fill="#bababa" stroke="#bababa" d="M-37.20430129929292 5.094351209184116 L-37.20430129929292 6.507549178727262 L-36.83577190232583 4.861070277511651 L-36.83577190232583 3.447872307968504 z"/>
<path fill="#bababa" stroke="#bababa" d="M-37.426002316060185 6.753955461051706 L-37.42600231606018 8.167153430594851 L-37.20430129929292 6.507549178727262 L-37.204301299292915 5.094351209184115 z"/>
<path fill="#bababa" stroke="#bababa" d="M-37.5 8.420135363790212 L-37.5 9.83333333333336 L-37.426002316060185 8.167153430594851 L-37.426002316060185 6.753955461051705 z"/>
<path fill="#bababa" stroke="#bababa" d="M-37.42600231606017 10.086315266528722 L-37.42600231606017 11.499513236071868 L-37.49999999999999 9.833333333333359 L-37.49999999999999 8.420135363790212 z"/>
<path fill="#bababa" stroke="#bababa" d="M-37.20430129929291 11.745919518396306 L-37.20430129929291 13.159117487939453 L-37.42600231606017 11.499513236071868 L-37.42600231606017 10.086315266528722 z"/>
<path fill="#bababa" stroke="#bababa" d="M-36.83577190232581 13.392398419611917 L-36.83577190232581 14.805596389155065 L-37.20430129929291 13.15911748793945 L-37.20430129929291 11.745919518396304 z"/>
<path fill="#bababa" stroke="#bababa" d="M-36.32186854232365 15.019254070157112 L-36.32186854232365 16.43245203970026 L-36.83577190232582 14.805596389155065 L-36.83577190232581 13.392398419611917 z"/>
<path fill="#bababa" stroke="#bababa" d="M-35.66461936106824 16.620066014018832 L-35.66461936106824 18.03326398356198 L-36.32186854232365 16.43245203970026 L-36.32186854232365 15.01925407015711 z"/>
<path fill="#bababa" stroke="#bababa" d="M-34.86661822080941 18.188516577796076 L-34.8666182208094 19.60171454733922 L-35.66461936106824 18.03326398356198 L-35.66461936106824 16.620066014018832 z"/>
<path fill="#bababa" stroke="#bababa" d="M-30.338137289060487 24.017330319926785 L-30.33813728906049 25.43052828946993 L-31.662297206325533 24.05178293106283 L-31.66229720632553 22.638584961519687 z"/>
<path fill="#bababa" stroke="#bababa" d="M-32.861500501644855 21.20372587834208 L-32.861500501644855 22.616923847885225 L-33.931014467475705 21.131613773213658 L-33.931014467475705 19.71841580367051 z"/>
<path fill="#bababa" stroke="#bababa" d="M-31.66229720632553 22.638584961519683 L-31.662297206325533 24.051782931062835 L-32.861500501644855 22.61692384788523 L-32.861500501644855 21.20372587834208 z"/>
<path fill="#bababa" stroke="#bababa" d="M-33.931014467475705 19.71841580367051 L-33.931014467475705 21.131613773213658 L-34.8666182208094 19.60171454733922 L-34.8666182208094 18.188516577796072 z"/>
<path fill="#bababa" stroke="#bababa" d="M-27.33632352830289 26.584957679740565 L-27.33632352830289 27.998155649283714 L-28.894246604092054 26.747718645065728 L-28.89424660409205 25.33452067552258 z"/>
<path fill="#bababa" stroke="#bababa" d="M-20.093504811712315 30.824826889484545 L-20.093504811712315 32.23802485902769 L-22.04194696096769 31.301030481023904 L-22.04194696096769 29.887832511480756 z"/>
<path fill="#bababa" stroke="#bababa" d="M-18.065762778814257 31.673400185766337 L-18.065762778814257 33.08659815530948 L-20.093504811712315 32.23802485902769 L-20.093504811712315 30.824826889484548 z"/>
<path fill="#bababa" stroke="#bababa" d="M-15.966723433690156 32.43020346920196 L-15.966723433690156 33.84340143874511 L-18.065762778814257 33.086598155309474 L-18.065762778814257 31.673400185766337 z"/>
<path fill="#bababa" stroke="#bababa" d="M-22.041946960967692 29.887832511480756 L-22.04194696096769 31.301030481023904 L-23.903399615575815 30.27931291003609 L-23.903399615575815 28.866114940492942 z"/>
<path fill="#bababa" stroke="#bababa" d="M-13.80467072567535 33.09224998298225 L-13.80467072567535 34.5054479525254 L-15.966723433690156 33.84340143874511 L-15.966723433690156 32.43020346920196 z"/>
<path fill="#bababa" stroke="#bababa" d="M-11.588137289060448 33.65692693197759 L-11.588137289060448 35.070124901520735 L-13.80467072567535 34.5054479525254 L-13.80467072567535 33.09224998298225 z"/>
<path fill="#bababa" stroke="#bababa" d="M-9.325870768681973 34.12200579424663 L-9.325870768681973 35.53520376378978 L-11.588137289060448 35.070124901520735 L-11.588137289060448 33.65692693197759 z"/>
<path fill="#bababa" stroke="#bababa" d="M-7.0267992969645885 34.48565111599435 L-7.0267992969645885 35.8988490855375 L-9.325870768681973 35.53520376378978 L-9.325870768681973 34.12200579424663 z"/>
<path fill="#bababa" stroke="#bababa" d="M-28.89424660409205 25.334520675522583 L-28.89424660409205 26.747718645065728 L-30.338137289060487 25.43052828946993 L-30.338137289060487 24.017330319926785 z"/>
<path fill="#bababa" stroke="#bababa" d="M-4.69999625866132 34.74642775526954 L-4.69999625866132 36.15962572481269 L-7.0267992969645885 35.8988490855375 L-7.0267992969645885 34.48565111599435 z"/>
<path fill="#bababa" stroke="#bababa" d="M-2.3546444823491597 34.903306545814495 L-2.3546444823491597 36.31650451535764 L-4.69999625866132 36.15962572481269 L-4.69999625866132 34.74642775526954 z"/>
<path fill="#bababa" stroke="#bababa" d="M-25.670516472325787 27.76370642899543 L-25.670516472325783 29.17690439853858 L-27.336323528302895 27.998155649283714 L-27.33632352830289 26.584957679740565 z"/>
<path fill="#bababa" stroke="#bababa" d="M-23.903399615575815 28.866114940492942 L-23.903399615575815 30.279312910036086 L-25.670516472325783 29.17690439853858 L-25.670516472325787 27.76370642899543 z"/>
<path fill="#bababa" stroke="#bababa" d="M7.867430135008416e-14 34.955668358714036 L7.867430135008416e-14 36.368866328257184 L-2.3546444823491597 36.31650451535764 L-2.3546444823491597 34.903306545814495 z"/>
<path fill="#bababa" stroke="#bababa" d="M2.354644482349333 34.90330654581449 L2.354644482349333 36.316504515357636 L7.867430135008416e-14 36.368866328257184 L7.867430135008416e-14 34.955668358714036 z"/>
<path fill="#bababa" stroke="#bababa" d="M4.699996258661493 34.74642775526953 L4.699996258661493 36.15962572481267 L2.354644482349333 36.316504515357636 L2.354644482349333 34.90330654581449 z"/>
<path fill="#bababa" stroke="#bababa" d="M7.026799296964742 34.48565111599433 L7.026799296964742 35.89884908553748 L4.699996258661493 36.15962572481268 L4.699996258661493 34.74642775526953 z"/>
<path fill="#bababa" stroke="#bababa" d="M13.804670725675496 33.09224998298221 L13.804670725675496 34.50544795252536 L11.588137289060601 35.0701249015207 L11.588137289060601 33.65692693197755 z"/>
<path fill="#bababa" stroke="#bababa" d="M9.325870768682126 34.12200579424661 L9.325870768682126 35.53520376378976 L7.026799296964743 35.89884908553748 L7.026799296964743 34.48565111599434 z"/>
<path fill="#bababa" stroke="#bababa" d="M11.588137289060601 33.65692693197755 L11.588137289060601 35.07012490152069 L9.325870768682126 35.53520376378975 L9.325870768682126 34.12200579424661 z"/>
<path fill="#bababa" stroke="#bababa" d="M15.966723433690298 32.43020346920191 L15.966723433690298 33.84340143874507 L13.804670725675496 34.50544795252535 L13.804670725675496 33.0922499829822 z"/>
<path fill="#bababa" stroke="#bababa" d="M18.065762778814396 31.67340018576628 L18.065762778814396 33.086598155309424 L15.9667234336903 33.84340143874507 L15.9667234336903 32.43020346920192 z"/>
<path fill="#bababa" stroke="#bababa" d="M20.093504811712446 30.82482688948448 L20.093504811712446 32.238024859027625 L18.065762778814396 33.086598155309424 L18.065762778814396 31.673400185766276 z"/>
<path fill="#bababa" stroke="#bababa" d="M22.041946960967813 29.88783251148069 L22.041946960967813 31.301030481023837 L20.093504811712446 32.238024859027625 L20.093504811712446 30.82482688948448 z"/>
<path fill="#bababa" stroke="#bababa" d="M23.903399615575935 28.86611494049287 L23.903399615575935 30.27931291003602 L22.041946960967817 31.301030481023833 L22.041946960967813 29.887832511480685 z"/>
<path fill="#bababa" stroke="#bababa" d="M25.670516472325893 27.763706428995356 L25.670516472325893 29.1769043985385 L23.903399615575935 30.27931291003602 L23.90339961557594 28.866114940492874 z"/>
<path fill="#bababa" stroke="#bababa" d="M28.89424660409216 25.33452067552249 L28.894246604092164 26.747718645065635 L27.336323528303 27.99815564928363 L27.336323528303 26.584957679740484 z"/>
<path fill="#bababa" stroke="#bababa" d="M27.336323528303 26.58495767974048 L27.336323528303 27.99815564928363 L25.670516472325897 29.176904398538504 L25.670516472325893 27.763706428995356 z"/>
<path fill="#bababa" stroke="#bababa" d="M31.662297206325626 22.638584961519584 L31.662297206325626 24.05178293106273 L30.33813728906058 25.43052828946984 L30.33813728906058 24.017330319926693 z"/>
<path fill="#bababa" stroke="#bababa" d="M32.861500501644926 21.203725878341984 L32.861500501644926 22.61692384788513 L31.662297206325626 24.05178293106273 L31.662297206325626 22.638584961519584 z"/>
<path fill="#bababa" stroke="#bababa" d="M33.93101446747578 19.7184158036704 L33.93101446747578 21.131613773213545 L32.861500501644926 22.61692384788513 L32.861500501644926 21.20372587834198 z"/>
<path fill="#bababa" stroke="#bababa" d="M34.86661822080946 18.18851657779597 L34.86661822080946 19.60171454733912 L33.93101446747578 21.131613773213545 L33.93101446747578 19.718415803670396 z"/>
<path fill="#bababa" stroke="#bababa" d="M30.33813728906058 24.017330319926693 L30.33813728906058 25.430528289469844 L28.894246604092164 26.747718645065635 L28.89424660409216 25.334520675522484 z"/>
<path fill="#bababa" stroke="#bababa" d="M35.66461936106829 16.620066014018718 L35.66461936106829 18.033263983561863 L34.86661822080946 19.601714547339117 L34.86661822080946 18.188516577795973 z"/>
<path fill="#bababa" stroke="#bababa" d="M36.321868542323685 15.019254070157004 L36.321868542323685 16.43245203970015 L35.66461936106829 18.033263983561863 L35.66461936106829 16.620066014018718 z"/>
<path fill="#bababa" stroke="#bababa" d="M37.426002316060185 10.086315266528615 L37.42600231606019 11.499513236071763 L37.20430129929293 13.15911748793934 L37.20430129929293 11.745919518396194 z"/>
<path fill="#bababa" stroke="#bababa" d="M37.49999999999999 8.420135363790184 L37.49999999999999 9.833333333333332 L37.426002316060185 11.499513236071763 L37.426002316060185 10.086315266528615 z"/>
<path fill="#bababa" stroke="#bababa" d="M36.835771902325845 13.392398419611796 L36.835771902325845 14.80559638915494 L36.321868542323685 16.43245203970015 L36.321868542323685 15.019254070157002 z"/>
<path fill="#bababa" stroke="#bababa" d="M37.20430129929293 11.745919518396194 L37.20430129929293 13.15911748793934 L36.835771902325845 14.805596389154942 L36.835771902325845 13.392398419611796 z"/>
<path fill="#bababa" stroke="#bababa" d="M37.426002316060185 6.753955461051675 L37.5 8.420135363790182 L37.42600231606019 10.086315266528617 L37.204301299292936 11.745919518396196 L36.83577190232585 13.392398419611796 L36.32186854232369 15.019254070157004 L35.6646193610683 16.620066014018718 L34.866618220809464 18.188516577795973 L33.931014467475784 19.718415803670396 L32.86150050164493 21.203725878341984 L31.66229720632563 22.63858496151958 L30.338137289060583 24.017330319926696 L28.894246604092164 25.334520675522487 L27.336323528303005 26.584957679740484 L25.670516472325897 27.763706428995356 L23.90339961557594 28.866114940492874 L22.041946960967817 29.88783251148069 L20.09350481171245 30.824826889484484 L18.0657627788144 31.673400185766276 L15.966723433690301 32.43020346920192 L13.804670725675498 33.09224998298221 L11.588137289060603 33.65692693197755 L9.325870768682128 34.12200579424661 L7.026799296964744 34.48565111599433 L4.699996258661494 34.74642775526953 L2.3546444823493333 34.90330654581449 L7.867430135008417e-14 34.955668358714036 L-2.35464448234916 34.903306545814495 L-4.699996258661321 34.74642775526954 L-7.026799296964589 34.48565111599435 L-9.325870768681975 34.12200579424664 L-11.588137289060452 33.65692693197759 L-13.804670725675352 33.09224998298225 L-15.966723433690158 32.43020346920196 L-18.06576277881426 31.673400185766333 L-20.093504811712318 30.824826889484545 L-22.041946960967692 29.887832511480756 L-23.903399615575818 28.866114940492945 L-25.670516472325787 27.76370642899543 L-27.336323528302895 26.584957679740565 L-28.894246604092054 25.334520675522583 L-30.33813728906049 24.017330319926785 L-31.662297206325533 22.638584961519687 L-32.86150050164486 21.20372587834208 L-33.93101446747571 19.71841580367051 L-34.86661822080941 18.188516577796072 L-35.66461936106825 16.620066014018832 L-36.32186854232366 15.01925407015711 L-36.83577190232582 13.392398419611919 L-37.204301299292915 11.745919518396306 L-37.42600231606018 10.086315266528722 L-37.5 8.420135363790212 L-37.426002316060185 6.753955461051705 L-37.20430129929292 5.094351209184116 L-36.83577190232583 3.447872307968504 L-36.32186854232367 1.8210166574233095 L-35.66461936106827 0.22020471356158444 L-34.866618220809436 -1.3482458502156522 L-33.93101446747574 -2.878145076090088 L-32.8615005016449 -4.363455150761659 L-31.66229720632558 -5.7983142339392675 L-30.338137289060537 -7.177059592346369 L-28.894246604092107 -8.494249947942167 L-27.33632352830294 -9.74468695216016 L-25.670516472325836 -10.923435701415027 L-23.903399615575875 -12.025844212912538 L-22.041946960967756 -13.047561783900354 L-20.093504811712386 -13.984556161904141 L-18.06576277881434 -14.833129458185931 L-15.966723433690243 -15.58993274162157 L-13.804670725675443 -16.251979255401857 L-11.58813728906055 -16.816656204397194 L-9.325870768682076 -17.28173506666625 L-7.026799296964694 -17.645380388413972 L-4.69999625866143 -17.90615702768916 L-2.354644482349272 -18.063035818234123 L-2.0436729480519327e-14 -18.115397631133668 L2.3546444823492307 -18.063035818234123 L4.699996258661389 -17.90615702768917 L7.026799296964654 -17.645380388413976 L9.325870768682035 -17.281735066666254 L11.58813728906051 -16.816656204397205 L13.804670725675408 -16.251979255401867 L15.966723433690207 -15.589932741621581 L18.065762778814307 -14.833129458185942 L20.093504811712354 -13.984556161904155 L22.041946960967724 -13.047561783900367 L23.90339961557585 -12.025844212912553 L25.670516472325808 -10.923435701415045 L27.336323528302916 -9.74468695216018 L28.894246604092082 -8.494249947942187 L30.338137289060516 -7.17705959234639 L31.662297206325555 -5.7983142339392915 L32.861500501644876 -4.363455150761687 L33.93101446747573 -2.878145076090114 L34.86661822080942 -1.3482458502156798 L35.664619361068254 0.22020471356156307 L36.321868542323664 1.821016657423287 L36.835771902325824 3.447872307968475 L37.204301299292915 5.094351209184086 z"/>
<path fill="#bababa" stroke="#bababa" d="M37.426002316060185 8.167153430594823 L37.204301299292915 6.507549178727233 L36.835771902325824 4.8610702775116215 L36.321868542323664 3.234214626966434 L35.664619361068254 1.6334026831047102 L34.86661822080942 0.06495211932746706 L33.93101446747573 -1.464947106546967 L32.861500501644876 -2.9502571812185403 L31.662297206325555 -4.385116264396145 L30.338137289060516 -5.763861622803242 L28.894246604092082 -7.08105197839904 L27.336323528302916 -8.331488982617033 L25.670516472325808 -9.510237731871898 L23.90339961557585 -10.612646243369406 L22.041946960967724 -11.634363814357219 L20.093504811712354 -12.571358192361009 L18.065762778814307 -13.419931488642794 L15.966723433690207 -14.176734772078433 L13.804670725675408 -14.838781285858722 L11.58813728906051 -15.403458234854059 L9.325870768682035 -15.868537097123108 L7.026799296964654 -16.23218241887083 L4.699996258661389 -16.49295905814602 L2.3546444823492307 -16.649837848690975 L-2.0436729480519327e-14 -16.70219966159052 L-2.354644482349272 -16.649837848690975 L-4.69999625866143 -16.492959058146017 L-7.026799296964694 -16.232182418870824 L-9.325870768682076 -15.868537097123104 L-11.58813728906055 -15.40345823485405 L-13.804670725675443 -14.838781285858712 L-15.966723433690243 -14.176734772078422 L-18.06576277881434 -13.419931488642785 L-20.093504811712386 -12.571358192360993 L-22.041946960967756 -11.634363814357206 L-23.903399615575875 -10.61264624336939 L-25.670516472325836 -9.51023773187188 L-27.33632352830294 -8.331488982617012 L-28.894246604092107 -7.08105197839902 L-30.338137289060537 -5.763861622803222 L-31.66229720632558 -4.38511626439612 L-32.8615005016449 -2.9502571812185128 L-33.93101446747574 -1.4649471065469408 L-34.866618220809436 0.0649521193274947 L-35.66461936106827 1.6334026831047315 L-36.32186854232367 3.2342146269664567 L-36.83577190232583 4.861070277511651 L-37.20430129929292 6.507549178727263 L-37.426002316060185 8.167153430594851 L-37.5 9.83333333333336 L-37.42600231606018 11.499513236071868 L-37.204301299292915 13.159117487939453 L-36.83577190232582 14.805596389155063 L-36.32186854232366 16.432452039700255 L-35.66461936106825 18.03326398356198 L-34.86661822080941 19.60171454733922 L-33.93101446747571 21.131613773213655 L-32.86150050164486 22.616923847885225 L-31.662297206325533 24.05178293106283 L-30.33813728906049 25.430528289469933 L-28.894246604092054 26.747718645065728 L-27.336323528302895 27.998155649283714 L-25.670516472325787 29.17690439853858 L-23.903399615575818 30.27931291003609 L-22.041946960967692 31.301030481023904 L-20.093504811712318 32.23802485902769 L-18.06576277881426 33.08659815530948 L-15.966723433690158 33.84340143874511 L-13.804670725675352 34.5054479525254 L-11.588137289060452 35.070124901520735 L-9.325870768681975 35.53520376378978 L-7.026799296964589 35.8988490855375 L-4.699996258661321 36.15962572481269 L-2.35464448234916 36.316504515357636 L7.867430135008417e-14 36.368866328257184 L2.3546444823493333 36.316504515357636 L4.699996258661494 36.15962572481268 L7.026799296964744 35.89884908553748 L9.325870768682128 35.53520376378976 L11.588137289060603 35.0701249015207 L13.804670725675498 34.50544795252536 L15.966723433690301 33.84340143874506 L18.0657627788144 33.086598155309424 L20.09350481171245 32.238024859027625 L22.041946960967817 31.301030481023833 L23.90339961557594 30.27931291003602 L25.670516472325897 29.176904398538504 L27.336323528303005 27.998155649283632 L28.894246604092164 26.747718645065635 L30.338137289060583 25.430528289469844 L31.66229720632563 24.05178293106273 L32.86150050164493 22.61692384788513 L33.931014467475784 21.131613773213545 L34.866618220809464 19.60171454733912 L35.6646193610683 18.033263983561866 L36.32186854232369 16.43245203970015 L36.83577190232585 14.80559638915494 L37.204301299292936 13.15911748793934 L37.42600231606019 11.499513236071763 L37.5 9.83333333333333 z"/>
<path fill="#000000" stroke="#000000" d="M-5 53.32368866328257 L-5 48.02165820642978 L-5 52.267343485617594 L-5 54.03130287648054 z"/>
<path fill="#000000" stroke="#000000" d="M5 48.02165820642978 L-5 48.02165820642978 L-5 53.32368866328256 L5 53.32368866328256 z"/>
<path fill="#000000" stroke="#000000" d="M5 48.02165820642978 L5 52.26734348561759 L-5 52.26734348561759 L-5 48.02165820642978 z"/>
<path fill="#000000" stroke="#000000" d="M-5 54.03130287648054 L-5 52.267343485617594 L5 52.267343485617594 L5 54.03130287648054 z"/>
<path fill="#000000" stroke="#000000" d="M-5 53.32368866328257 L-5 54.03130287648054 L5 54.03130287648054 L5 53.32368866328257 z"/>
<path fill="#000000" stroke="#000000" d="M5 48.02165820642978 L5 53.32368866328257 L5 54.03130287648054 L5 52.267343485617594 z"/>
<path fill="#000000" stroke="#000000" d="M5 32.12318104906937 L5 48.02165820642978 L5 50.14450084602369 L5 34.24602368866328 z"/>
<path fill="#000000" stroke="#000000" d="M-5 32.12318104906937 L-5 48.02165820642977 L5 48.02165820642977 L5 32.12318104906937 z"/>
<path fill="#000000" stroke="#000000" d="M-5 34.24602368866328 L-5 50.14450084602369 L-5 48.02165820642978 L-5 32.12318104906937 z"/>
<path fill="#000000" stroke="#000000" d="M5 34.24602368866328 L5 50.14450084602368 L-5 50.14450084602368 L-5 34.24602368866328 z"/>
<path fill="#000000" stroke="#000000" d="M5 32.123181049069366 L5 34.24602368866328 L-5 34.24602368866328 L-5 32.123181049069366 z"/>
<path fill="#000000" stroke="#000000" d="M5 48.02165820642978 L-5 48.02165820642978 L-5 50.14450084602368 L5 50.14450084602368 z"/>
<path fill="#000000" stroke="#000000" d="M34 32.80287648054144 L31.5 29.269881556683575 L37.5 29.269881556683575 L35 32.80287648054144 z"/>
<path fill="#000000" stroke="#000000" d="M31.499999999999996 22.19373942470389 L31.499999999999996 29.269881556683586 L33.99999999999999 32.80287648054145 L33.99999999999999 25.726734348561756 z"/>
<path fill="#000000" stroke="#000000" d="M31.5 22.19373942470389 L37.5 22.19373942470389 L37.5 29.269881556683583 L31.5 29.269881556683583 z"/>
<path fill="#000000" stroke="#000000" d="M35 32.80287648054145 L37.5 29.269881556683586 L37.5 22.19373942470389 L35 25.726734348561756 z"/>
<path fill="#000000" stroke="#000000" d="M34 32.80287648054145 L35 32.80287648054145 L35 25.72673434856176 L34 25.72673434856176 z"/>
<path fill="#000000" stroke="#000000" d="M31.5 22.19373942470389 L34 25.726734348561756 L35 25.726734348561756 L37.5 22.19373942470389 z"/>
<path fill="#000000" stroke="#000000" d="M31.5 6.295262267343479 L31.5 22.19373942470388 L34.5 22.19373942470388 L34.5 6.295262267343479 z"/>
<path fill="#000000" stroke="#000000" d="M31.5 13.37140439932318 L31.5 29.269881556683586 L31.5 22.19373942470389 L31.5 6.295262267343486 z"/>
<path fill="#000000" stroke="#000000" d="M34.5 13.37140439932318 L34.5 29.269881556683583 L31.5 29.269881556683583 L31.5 13.37140439932318 z"/>
<path fill="#000000" stroke="#000000" d="M34.5 6.295262267343486 L34.5 22.19373942470389 L34.5 29.269881556683586 L34.5 13.37140439932318 z"/>
<path fill="#000000" stroke="#000000" d="M31.5 6.295262267343484 L34.5 6.295262267343484 L34.5 13.371404399323179 L31.5 13.371404399323179 z"/>
<path fill="#000000" stroke="#000000" d="M31.5 22.19373942470389 L31.5 29.269881556683583 L34.5 29.269881556683583 L34.5 22.19373942470389 z"/>
<path fill="#000000" stroke="#000000" d="M-34 25.726734348561756 L-31.5 22.19373942470389 L-37.5 22.19373942470389 L-35 25.726734348561756 z"/>
<path fill="#000000" stroke="#000000" d="M-31.499999999999996 29.269881556683586 L-31.499999999999996 22.19373942470389 L-33.99999999999999 25.726734348561756 L-33.99999999999999 32.80287648054145 z"/>
<path fill="#000000" stroke="#000000" d="M-31.5 29.269881556683583 L-37.5 29.269881556683583 L-37.5 22.19373942470389 L-31.5 22.19373942470389 z"/>
<path fill="#000000" stroke="#000000" d="M-35 25.726734348561756 L-37.5 22.19373942470389 L-37.5 29.269881556683586 L-35 32.80287648054145 z"/>
<path fill="#000000" stroke="#000000" d="M-34 25.72673434856176 L-35 25.72673434856176 L-35 32.80287648054145 L-34 32.80287648054145 z"/>
<path fill="#000000" stroke="#000000" d="M-31.5 29.269881556683575 L-34 32.80287648054144 L-35 32.80287648054144 L-37.5 29.269881556683575 z"/>
<path fill="#000000" stroke="#000000" d="M-31.5 13.37140439932318 L-31.5 29.269881556683583 L-34.5 29.269881556683583 L-34.5 13.37140439932318 z"/>
<path fill="#000000" stroke="#000000" d="M-31.5 6.295262267343486 L-31.5 22.19373942470389 L-31.5 29.269881556683586 L-31.5 13.37140439932318 z"/>
<path fill="#000000" stroke="#000000" d="M-34.5 6.295262267343479 L-34.5 22.19373942470388 L-31.5 22.19373942470388 L-31.5 6.295262267343479 z"/>
<path fill="#000000" stroke="#000000" d="M-34.5 13.37140439932318 L-34.5 29.269881556683586 L-34.5 22.19373942470389 L-34.5 6.295262267343486 z"/>
<path fill="#000000" stroke="#000000" d="M-31.5 13.371404399323179 L-34.5 13.371404399323179 L-34.5 6.295262267343484 L-31.5 6.295262267343484 z"/>
<path fill="#000000" stroke="#000000" d="M-31.5 29.269881556683583 L-31.5 22.19373942470389 L-34.5 22.19373942470389 L-34.5 29.269881556683583 z"/>
</svg>