<?xml version="1.0" encoding="UTF-8"?>
<!-- Generated by jsxcad -->
<!DOCTYPE svg PUBLIC "-//W3C//DTD SVG 1.1 Tiny//EN" "http://www.w3.org/Graphics/SVG/1.1/DTD/svg11-tiny.dtd">
<svg baseProfile="tiny" height="77.09695431472085mm" width="85.00000000000006mm" viewBox="-42.50000000000003 -54.32368866328259 85.00000000000006 77.09695431472085" version="1.1" stroke="black" stroke-width=".1" fill="none" xmlns="http://www.w3.org/2000/svg">
<path fill="#000000" stroke="#000000" d="M5 6.913536379018614 L5 5.14957698815567 L5 0.9038917089678534 L5 6.2059221658206445 z"/>
<path fill="#000000" stroke="#000000" d="M-5 5.149576988155668 L5 5.149576988155668 L5 6.913536379018614 L-5 6.913536379018614 z"/>
<path fill="#000000" stroke="#000000" d="M-5 5.14957698815567 L-5 0.9038917089678533 L5 0.9038917089678533 L5 5.14957698815567 z"/>
<path fill="#000000" stroke="#000000" d="M5 6.2059221658206445 L5 0.9038917089678533 L-5 0.9038917089678533 L-5 6.2059221658206445 z"/>
<path fill="#000000" stroke="#000000" d="M5 6.9135363790186135 L5 6.2059221658206445 L-5 6.2059221658206445 L-5 6.9135363790186135 z"/>
<path fill="#000000" stroke="#000000" d="M-5 5.14957698815567 L-5 6.913536379018614 L-5 6.2059221658206445 L-5 0.9038917089678534 z"/>
<path fill="#bababa" stroke="#bababa" d="M-5 -10.748900169204735 L-5 5.14957698815567 L-5 3.026734348561762 L-5 -12.871742808798643 z"/>
<path fill="#bababa" stroke="#bababa" d="M5 -10.748900169204749 L5 5.149576988155653 L-5 5.149576988155653 L-5 -10.748900169204749 z"/>
<path fill="#bababa" stroke="#bababa" d="M5 -12.871742808798643 L5 3.026734348561762 L5 5.14957698815567 L5 -10.748900169204735 z"/>
<path fill="#bababa" stroke="#bababa" d="M-5 -12.871742808798658 L-5 3.0267343485617606 L5 3.0267343485617606 L5 -12.871742808798658 z"/>
<path fill="#bababa" stroke="#bababa" d="M-5 -10.748900169204733 L-5 -12.871742808798642 L5 -12.871742808798642 L5 -10.748900169204733 z"/>
<path fill="#bababa" stroke="#bababa" d="M-5 5.14957698815567 L5 5.14957698815567 L5 3.0267343485617615 L-5 3.0267343485617615 z"/>
<path fill="#bababa" stroke="#bababa" d="M-1 -8.27225042301184 L-1 -1.2062605752961058 L-1 -4.744331641285953 L-1 -11.810321489001689 z"/>
<path fill="#bababa" stroke="#bababa" d="M1 -8.27225042301185 L1 -1.2062605752961142 L-1 -1.2062605752961142 L-1 -8.27225042301185 z"/>
<path fill="#bababa" stroke="#bababa" d="M1 -11.810321489001689 L1 -4.744331641285953 L1 -1.2062605752961058 L1 -8.27225042301184 z"/>
<path fill="#bababa" stroke="#bababa" d="M-1 -11.810321489001693 L-1 -4.744331641285957 L1 -4.744331641285957 L1 -11.810321489001693 z"/>
<path fill="#bababa" stroke="#bababa" d="M-1 -8.27225042301184 L-1 -11.810321489001687 L1 -11.810321489001687 L1 -8.27225042301184 z"/>
<path fill="#bababa" stroke="#bababa" d="M-1 -1.2062605752961058 L1 -1.2062605752961058 L1 -4.744331641285953 L-1 -4.744331641285953 z"/>
<path fill="#bababa" stroke="#bababa" d="M42.416135958201544 5.412001186371822 L42.416135958201544 8.944996110229688 L42.5 10.833333333333332 L42.49999999999999 7.300338409475464 z"/>
<path fill="#bababa" stroke="#bababa" d="M42.1648748058653 3.531116367588554 L42.1648748058653 7.064111291446422 L42.416135958201544 8.944996110229688 L42.41613595820154 5.412001186371822 z"/>
<path fill="#bababa" stroke="#bababa" d="M40.41990194254402 -1.9929163274503066 L40.41990194254402 1.540078596407561 L41.16478434796682 3.3543321327841813 L41.16478434796682 -0.17866279107368635 z"/>
<path fill="#bababa" stroke="#bababa" d="M41.74720815596927 1.6651069462108619 L41.74720815596927 5.198101870068729 L42.1648748058653 7.064111291446421 L42.1648748058653 3.531116367588554 z"/>
<path fill="#bababa" stroke="#bababa" d="M41.16478434796682 -0.17866279107368607 L41.16478434796682 3.3543321327841813 L41.74720815596927 5.198101870068729 L41.74720815596927 1.6651069462108616 z"/>
<path fill="#bababa" stroke="#bababa" d="M38.455149729805825 -5.5043794223888725 L38.455149729805825 -1.9713844985310047 L39.51550065025068 -0.23749870920664592 L39.51550065025068 -3.7704936330645147 z"/>
<path fill="#bababa" stroke="#bababa" d="M37.243033901864194 -7.187730840349989 L37.243033901864194 -3.6547359164921223 L38.455149729805825 -1.971384498531004 L38.455149729805825 -5.504379422388873 z"/>
<path fill="#bababa" stroke="#bababa" d="M35.88393683383563 -8.813904467951273 L35.88393683383563 -5.280909544093407 L37.243033901864194 -3.6547359164921227 L37.243033901864194 -7.187730840349989 z"/>
<path fill="#bababa" stroke="#bababa" d="M39.51550065025068 -3.770493633064515 L39.51550065025068 -0.23749870920664737 L40.41990194254402 1.5400785964075612 L40.41990194254402 -1.9929163274503061 z"/>
<path fill="#bababa" stroke="#bababa" d="M34.383222260935256 -10.37648254081265 L34.383222260935256 -6.843487616954782 L35.88393683383563 -5.28090954409341 L35.88393683383563 -8.813904467951275 z"/>
<path fill="#bababa" stroke="#bababa" d="M32.746812817971026 -11.869298277154558 L32.74681281797103 -8.336303353296689 L34.383222260935256 -6.843487616954784 L34.383222260935256 -10.376482540812653 z"/>
<path fill="#bababa" stroke="#bababa" d="M30.98116666540998 -13.286460215268281 L30.98116666540998 -9.753465291410416 L32.74681281797103 -8.336303353296687 L32.746812817971026 -11.869298277154558 z"/>
<path fill="#bababa" stroke="#bababa" d="M29.09325200196925 -14.622375464423799 L29.09325200196925 -11.089380540565934 L30.981166665409976 -9.75346529141041 L30.981166665409983 -13.286460215268281 z"/>
<path fill="#bababa" stroke="#bababa" d="M27.090519564319298 -15.871771777454303 L27.090519564319298 -12.338776853596436 L29.09325200196925 -11.089380540565928 L29.09325200196925 -14.622375464423795 z"/>
<path fill="#bababa" stroke="#bababa" d="M24.980873222430095 -17.029718357907157 L24.980873222430102 -13.496723434049295 L27.090519564319305 -12.338776853596434 L27.090519564319305 -15.871771777454303 z"/>
<path fill="#bababa" stroke="#bababa" d="M22.77263878660733 -18.091645319644797 L22.77263878660733 -14.55865039578692 L24.980873222430088 -13.496723434049299 L24.980873222430088 -17.029718357907175 z"/>
<path fill="#bababa" stroke="#bababa" d="M20.474531149322875 -19.053361722097485 L20.474531149322875 -15.520366798239623 L22.77263878660733 -14.55865039578693 L22.77263878660733 -18.09164531964479 z"/>
<path fill="#bababa" stroke="#bababa" d="M13.133222260935243 -21.301358701136916 L13.133222260935243 -17.768363777279053 L15.645293489098794 -17.128396568417674 L15.645293489098794 -20.661391492275538 z"/>
<path fill="#bababa" stroke="#bababa" d="M10.569320204506305 -21.82844807837517 L10.569320204506305 -18.29545315451731 L13.133222260935243 -17.76836377727905 L13.133222260935243 -21.30135870113691 z"/>
<path fill="#bababa" stroke="#bababa" d="M15.645293489098794 -20.661391492275534 L15.645293489098794 -17.128396568417674 L18.095619891515565 -16.378077186133346 L18.095619891515565 -19.911072109991206 z"/>
<path fill="#bababa" stroke="#bababa" d="M18.095619891515565 -19.91107210999121 L18.095619891515565 -16.378077186133336 L20.474531149322875 -15.520366798239612 L20.474531149322875 -19.05336172209749 z"/>
<path fill="#bababa" stroke="#bababa" d="M7.963705869893272 -22.2405794430226 L7.963705869893272 -18.70758451916473 L10.569320204506305 -18.29545315451731 L10.569320204506305 -21.82844807837518 z"/>
<path fill="#bababa" stroke="#bababa" d="M5.3266624264829066 -22.536126300867814 L5.3266624264829066 -19.003131377009936 L7.963705869893272 -18.707584519164723 L7.963705869893272 -22.2405794430226 z"/>
<path fill="#bababa" stroke="#bababa" d="M2.6685970799957945 -22.71392226348543 L2.6685970799957945 -19.18092733962756 L5.3266624264829066 -19.00313137700994 L5.3266624264829066 -22.53612630086781 z"/>
<path fill="#bababa" stroke="#bababa" d="M-2.3161626744588564e-14 -22.773265651438244 L-2.3161626744588564e-14 -19.240270727580384 L2.6685970799957945 -19.18092733962757 L2.6685970799957945 -22.71392226348543 z"/>
<path fill="#bababa" stroke="#bababa" d="M-2.6685970799958407 -22.713922263485436 L-2.6685970799958407 -19.18092733962756 L-2.3161626744588567e-14 -19.240270727580373 L-2.3161626744588567e-14 -22.77326565143825 z"/>
<path fill="#bababa" stroke="#bababa" d="M-5.326662426482953 -22.536126300867814 L-5.326662426482953 -19.003131377009943 L-2.6685970799958407 -19.180927339627566 L-2.6685970799958407 -22.713922263485436 z"/>
<path fill="#bababa" stroke="#bababa" d="M-7.963705869893319 -22.240579443022593 L-7.963705869893319 -18.707584519164715 L-5.326662426482953 -19.003131377009932 L-5.326662426482953 -22.536126300867807 z"/>
<path fill="#bababa" stroke="#bababa" d="M-10.56932020450635 -21.828448078375175 L-10.56932020450635 -18.295453154517304 L-7.963705869893319 -18.707584519164726 L-7.963705869893319 -22.240579443022597 z"/>
<path fill="#bababa" stroke="#bababa" d="M-13.13322226093529 -21.301358701136916 L-13.13322226093529 -17.76836377727904 L-10.56932020450635 -18.2954531545173 L-10.56932020450635 -21.828448078375175 z"/>
<path fill="#bababa" stroke="#bababa" d="M-15.645293489098833 -20.661391492275534 L-15.645293489098833 -17.128396568417664 L-13.13322226093529 -17.768363777279045 L-13.13322226093529 -21.301358701136916 z"/>
<path fill="#bababa" stroke="#bababa" d="M-18.095619891515607 -19.911072109991192 L-18.095619891515607 -16.37807718613333 L-15.645293489098833 -17.128396568417656 L-15.645293489098833 -20.66139149227552 z"/>
<path fill="#bababa" stroke="#bababa" d="M-20.474531149322914 -19.05336172209747 L-20.474531149322914 -15.520366798239616 L-18.095619891515607 -16.378077186133336 L-18.095619891515607 -19.911072109991192 z"/>
<path fill="#bababa" stroke="#bababa" d="M-22.77263878660737 -18.091645319644783 L-22.77263878660737 -14.558650395786907 L-20.474531149322914 -15.520366798239605 L-20.474531149322914 -19.05336172209748 z"/>
<path fill="#bababa" stroke="#bababa" d="M-24.98087322243012 -17.029718357907143 L-24.98087322243012 -13.49672343404928 L-22.77263878660737 -14.558650395786907 L-22.77263878660737 -18.091645319644773 z"/>
<path fill="#bababa" stroke="#bababa" d="M-27.09051956431933 -15.871771777454288 L-27.090519564319322 -12.338776853596421 L-24.980873222430127 -13.496723434049278 L-24.980873222430127 -17.02971835790714 z"/>
<path fill="#bababa" stroke="#bababa" d="M-29.09325200196928 -14.622375464423776 L-29.093252001969287 -11.089380540565907 L-27.090519564319326 -12.338776853596418 L-27.090519564319322 -15.871771777454288 z"/>
<path fill="#bababa" stroke="#bababa" d="M-30.981166665410008 -13.286460215268256 L-30.981166665410004 -9.753465291410391 L-29.093252001969283 -11.089380540565907 L-29.093252001969283 -14.622375464423772 z"/>
<path fill="#bababa" stroke="#bababa" d="M-32.74681281797106 -11.869298277154536 L-32.746812817971055 -8.336303353296666 L-30.981166665410004 -9.753465291410393 L-30.98116666541 -13.28646021526826 z"/>
<path fill="#bababa" stroke="#bababa" d="M-34.383222260935284 -10.376482540812631 L-34.38322226093528 -6.843487616954762 L-32.746812817971055 -8.336303353296662 L-32.746812817971055 -11.869298277154531 z"/>
<path fill="#bababa" stroke="#bababa" d="M-35.883936833835655 -8.813904467951247 L-35.883936833835655 -5.2809095440933795 L-34.38322226093528 -6.843487616954761 L-34.38322226093528 -10.376482540812626 z"/>
<path fill="#bababa" stroke="#bababa" d="M-37.243033901864216 -7.187730840349959 L-37.243033901864216 -3.6547359164920916 L-35.883936833835655 -5.280909544093381 L-35.883936833835655 -8.813904467951245 z"/>
<path fill="#bababa" stroke="#bababa" d="M-38.45514972980584 -5.504379422388841 L-38.45514972980584 -1.9713844985309752 L-37.243033901864216 -3.6547359164920907 L-37.243033901864216 -7.18773084034996 z"/>
<path fill="#bababa" stroke="#bababa" d="M-40.41990194254404 -1.9929163274502808 L-40.41990194254404 1.5400785964075863 L-39.515500650250694 -0.23749870920661587 L-39.515500650250694 -3.7704936330644827 z"/>
<path fill="#bababa" stroke="#bababa" d="M-41.16478434796683 -0.17866279107366004 L-41.16478434796683 3.354332132784208 L-40.41990194254404 1.5400785964075863 L-40.41990194254404 -1.992916327450282 z"/>
<path fill="#bababa" stroke="#bababa" d="M-39.515500650250694 -3.7704936330644827 L-39.515500650250694 -0.23749870920661492 L-38.45514972980584 -1.9713844985309743 L-38.45514972980584 -5.504379422388841 z"/>
<path fill="#bababa" stroke="#bababa" d="M-42.16487480586532 3.5311163675885875 L-42.16487480586532 7.064111291446455 L-41.747208155969275 5.198101870068761 L-41.747208155969275 1.6651069462108936 z"/>
<path fill="#bababa" stroke="#bababa" d="M-42.416135958201544 5.412001186371855 L-42.416135958201544 8.944996110229724 L-42.16487480586532 7.064111291446455 L-42.16487480586532 3.5311163675885875 z"/>
<path fill="#bababa" stroke="#bababa" d="M-42.5 7.300338409475499 L-42.5 10.833333333333366 L-42.416135958201544 8.944996110229724 L-42.416135958201544 5.412001186371856 z"/>
<path fill="#bababa" stroke="#bababa" d="M-42.41613595820153 9.18867563257914 L-42.41613595820153 12.721670556437008 L-42.49999999999999 10.833333333333366 L-42.49999999999999 7.300338409475498 z"/>
<path fill="#bababa" stroke="#bababa" d="M-41.747208155969275 1.6651069462108936 L-41.747208155969275 5.198101870068761 L-41.16478434796683 3.3543321327842075 L-41.16478434796683 -0.1786627910736597 z"/>
<path fill="#bababa" stroke="#bababa" d="M-41.747208155969254 12.935569872740095 L-41.747208155969254 16.46856479659796 L-42.164874805865296 14.60255537522027 L-42.164874805865296 11.0695604513624 z"/>
<path fill="#bababa" stroke="#bababa" d="M-41.1647843479668 14.779339610024648 L-41.1647843479668 18.312334533882517 L-41.747208155969254 16.46856479659796 L-41.747208155969254 12.935569872740096 z"/>
<path fill="#bababa" stroke="#bababa" d="M-42.164874805865296 11.0695604513624 L-42.164874805865296 14.602555375220268 L-42.41613595820153 12.721670556437008 L-42.41613595820153 9.188675632579141 z"/>
<path fill="#bababa" stroke="#bababa" d="M-39.51550065025066 18.371170452015473 L-39.51550065025066 21.90416537587334 L-40.419901942544 20.126588070259135 L-40.419901942544 16.59359314640127 z"/>
<path fill="#bababa" stroke="#bababa" d="M-38.4551497298058 20.10505624133983 L-38.455149729805804 23.638051165197698 L-39.51550065025066 21.90416537587334 L-39.515500650250665 18.371170452015473 z"/>
<path fill="#bababa" stroke="#bababa" d="M-40.419901942544 16.59359314640127 L-40.419901942544 20.126588070259135 L-41.1647843479668 18.312334533882517 L-41.1647843479668 14.779339610024648 z"/>
<path fill="#bababa" stroke="#bababa" d="M-29.093252001969223 29.223052283374745 L-29.093252001969223 32.75604720723261 L-30.981166665409944 31.4201319580771 L-30.981166665409944 27.887137034219233 z"/>
<path fill="#bababa" stroke="#bababa" d="M-32.74681281797099 26.469975096105514 L-32.74681281797099 30.002970019963385 L-34.38322226093522 28.510154283621482 L-34.38322226093522 24.97715935976361 z"/>
<path fill="#bababa" stroke="#bababa" d="M-30.981166665409944 27.88713703421923 L-30.981166665409944 31.4201319580771 L-32.74681281797099 30.002970019963385 L-32.746812817971 26.469975096105518 z"/>
<path fill="#bababa" stroke="#bababa" d="M-34.38322226093522 24.97715935976361 L-34.38322226093522 28.51015428362148 L-35.8839368338356 26.947576210760104 L-35.8839368338356 23.414581286902234 z"/>
<path fill="#bababa" stroke="#bababa" d="M-37.243033901864166 21.788407659300947 L-37.243033901864166 25.321402583158815 L-38.455149729805804 23.6380511651977 L-38.4551497298058 20.10505624133983 z"/>
<path fill="#bababa" stroke="#bababa" d="M-35.8839368338356 23.414581286902234 L-35.8839368338356 26.9475762107601 L-37.243033901864166 25.321402583158815 L-37.243033901864166 21.788407659300944 z"/>
<path fill="#bababa" stroke="#bababa" d="M-24.98087322243005 31.630395176858116 L-24.98087322243005 35.16339010071598 L-27.09051956431926 34.00544352026312 L-27.090519564319262 30.472448596405254 z"/>
<path fill="#bababa" stroke="#bababa" d="M-22.77263878660729 32.692322138595735 L-22.77263878660729 36.225317062453605 L-24.98087322243005 35.163390100715986 L-24.98087322243005 31.630395176858116 z"/>
<path fill="#bababa" stroke="#bababa" d="M-20.47453114932283 33.65403854104843 L-20.47453114932283 37.1870334649063 L-22.77263878660729 36.225317062453605 L-22.77263878660729 32.692322138595735 z"/>
<path fill="#bababa" stroke="#bababa" d="M-27.09051956431926 30.472448596405258 L-27.090519564319262 34.00544352026312 L-29.09325200196922 32.75604720723261 L-29.09325200196922 29.223052283374745 z"/>
<path fill="#bababa" stroke="#bababa" d="M-18.095619891515508 34.511748928942154 L-18.095619891515508 38.044743852800025 L-20.47453114932283 37.1870334649063 L-20.47453114932283 33.65403854104843 z"/>
<path fill="#bababa" stroke="#bababa" d="M-15.645293489098732 35.26206831122648 L-15.645293489098732 38.79506323508434 L-18.095619891515508 38.04474385280002 L-18.095619891515508 34.511748928942154 z"/>
<path fill="#bababa" stroke="#bababa" d="M-13.133222260935177 35.90203552008785 L-13.133222260935177 39.43503044394572 L-15.64529348909873 38.79506323508434 L-15.64529348909873 35.26206831122648 z"/>
<path fill="#bababa" stroke="#bababa" d="M-10.569320204506234 36.42912489732611 L-10.569320204506234 39.962119821183975 L-13.133222260935177 39.43503044394572 L-13.133222260935177 35.90203552008785 z"/>
<path fill="#bababa" stroke="#bababa" d="M-7.9637058698932 36.84125626197353 L-7.9637058698932 40.37425118583139 L-10.569320204506235 39.96211982118398 L-10.569320204506235 36.42912489732611 z"/>
<path fill="#bababa" stroke="#bababa" d="M-5.32666242648283 37.13680311981874 L-5.32666242648283 40.66979804367661 L-7.9637058698932 40.37425118583139 L-7.9637058698932 36.84125626197353 z"/>
<path fill="#bababa" stroke="#bababa" d="M-2.668597079995714 37.31459908243635 L-2.668597079995714 40.84759400629422 L-5.32666242648283 40.66979804367661 L-5.32666242648283 37.13680311981874 z"/>
<path fill="#bababa" stroke="#bababa" d="M2.6685970799959104 37.314599082436345 L2.6685970799959104 40.847594006294216 L8.916420819676205e-14 40.90693739424704 L8.916420819676205e-14 37.37394247038917 z"/>
<path fill="#bababa" stroke="#bababa" d="M8.916420819676205e-14 37.37394247038917 L8.916420819676205e-14 40.90693739424704 L-2.668597079995714 40.84759400629422 L-2.668597079995714 37.31459908243635 z"/>
<path fill="#bababa" stroke="#bababa" d="M5.326662426483026 37.13680311981872 L5.326662426483026 40.669798043676586 L2.6685970799959104 40.847594006294216 L2.6685970799959104 37.314599082436345 z"/>
<path fill="#bababa" stroke="#bababa" d="M13.133222260935348 35.902035520087814 L13.133222260935348 39.435030443945685 L10.56932020450641 39.962119821183954 L10.56932020450641 36.42912489732608 z"/>
<path fill="#bababa" stroke="#bababa" d="M15.645293489098897 35.26206831122643 L15.645293489098897 38.7950632350843 L13.133222260935346 39.435030443945685 L13.133222260935346 35.90203552008782 z"/>
<path fill="#bababa" stroke="#bababa" d="M18.09561989151567 34.5117489289421 L18.09561989151567 38.04474385279997 L15.645293489098897 38.7950632350843 L15.645293489098897 35.26206831122643 z"/>
<path fill="#bababa" stroke="#bababa" d="M20.47453114932298 33.65403854104837 L20.47453114932298 37.187033464906236 L18.09561989151567 38.04474385279997 L18.09561989151567 34.5117489289421 z"/>
<path fill="#bababa" stroke="#bababa" d="M10.56932020450641 36.42912489732608 L10.56932020450641 39.96211982118395 L7.963705869893376 40.37425118583137 L7.963705869893376 36.8412562619735 z"/>
<path fill="#bababa" stroke="#bababa" d="M7.963705869893376 36.8412562619735 L7.963705869893376 40.37425118583137 L5.326662426483026 40.669798043676586 L5.326662426483026 37.13680311981872 z"/>
<path fill="#bababa" stroke="#bababa" d="M22.772638786607438 32.69232213859567 L22.772638786607438 36.225317062453534 L20.47453114932298 37.18703346490624 L20.47453114932298 33.65403854104837 z"/>
<path fill="#bababa" stroke="#bababa" d="M24.98087322243019 31.630395176858038 L24.98087322243019 35.1633901007159 L22.772638786607438 36.225317062453534 L22.772638786607438 32.692322138595664 z"/>
<path fill="#bababa" stroke="#bababa" d="M27.090519564319397 30.472448596405176 L27.090519564319397 34.00544352026304 L24.98087322243019 35.1633901007159 L24.98087322243019 31.630395176858034 z"/>
<path fill="#bababa" stroke="#bababa" d="M29.093252001969347 29.22305228337466 L29.093252001969347 32.75604720723253 L27.090519564319397 34.00544352026304 L27.090519564319397 30.472448596405176 z"/>
<path fill="#bababa" stroke="#bababa" d="M30.981166665410072 27.887137034219137 L30.98116666541007 31.420131958077004 L29.093252001969347 32.75604720723253 L29.093252001969347 29.22305228337466 z"/>
<path fill="#bababa" stroke="#bababa" d="M32.74681281797111 26.469975096105408 L32.74681281797111 30.002970019963275 L30.98116666541007 31.420131958077004 L30.98116666541007 27.887137034219137 z"/>
<path fill="#bababa" stroke="#bababa" d="M34.38322226093533 24.97715935976351 L34.38322226093532 28.51015428362138 L32.74681281797111 30.00297001996328 L32.74681281797111 26.469975096105408 z"/>
<path fill="#bababa" stroke="#bababa" d="M35.883936833835705 23.414581286902116 L35.883936833835705 26.947576210759983 L34.38322226093532 28.51015428362138 L34.38322226093532 24.977159359763508 z"/>
<path fill="#bababa" stroke="#bababa" d="M37.24303390186425 21.788407659300837 L37.24303390186426 25.321402583158704 L35.883936833835705 26.947576210759987 L35.883936833835705 23.414581286902116 z"/>
<path fill="#bababa" stroke="#bababa" d="M38.45514972980588 20.105056241339707 L38.45514972980588 23.638051165197574 L37.24303390186425 25.321402583158704 L37.24303390186425 21.788407659300837 z"/>
<path fill="#bababa" stroke="#bababa" d="M39.51550065025072 18.371170452015356 L39.51550065025072 21.904165375873223 L38.45514972980588 23.638051165197574 L38.45514972980588 20.105056241339707 z"/>
<path fill="#bababa" stroke="#bababa" d="M40.419901942544065 16.593593146401133 L40.419901942544065 20.126588070259004 L39.51550065025072 21.904165375873223 L39.51550065025073 18.371170452015356 z"/>
<path fill="#bababa" stroke="#bababa" d="M41.164784347966844 14.779339610024525 L41.16478434796685 18.312334533882392 L40.419901942544065 20.126588070259004 L40.419901942544065 16.593593146401133 z"/>
<path fill="#bababa" stroke="#bababa" d="M41.74720815596929 12.935569872739958 L41.7472081559693 16.46856479659782 L41.164784347966844 18.312334533882392 L41.164784347966844 14.779339610024525 z"/>
<path fill="#bababa" stroke="#bababa" d="M42.16487480586532 11.069560451362277 L42.16487480586532 14.602555375220142 L41.74720815596929 16.46856479659782 L41.74720815596929 12.935569872739956 z"/>
<path fill="#bababa" stroke="#bababa" d="M42.416135958201544 9.188675632579022 L42.416135958201544 12.721670556436889 L42.16487480586532 14.602555375220144 L42.16487480586532 11.069560451362277 z"/>
<path fill="#bababa" stroke="#bababa" d="M42.49999999999999 7.300338409475464 L42.49999999999999 10.833333333333332 L42.416135958201544 12.721670556436889 L42.416135958201544 9.18867563257902 z"/>
<path fill="#bababa" stroke="#bababa" d="M42.416135958201544 5.412001186371822 L42.5 7.300338409475464 L42.41613595820155 9.188675632579022 L42.164874805865324 11.069560451362277 L41.7472081559693 12.935569872739958 L41.16478434796685 14.779339610024525 L40.41990194254407 16.593593146401133 L39.51550065025073 18.371170452015356 L38.45514972980589 20.105056241339707 L37.24303390186426 21.788407659300834 L35.88393683383571 23.414581286902116 L34.38322226093533 24.97715935976351 L32.74681281797112 26.469975096105408 L30.981166665410072 27.887137034219137 L29.09325200196935 29.22305228337466 L27.0905195643194 30.472448596405172 L24.980873222430194 31.630395176858034 L22.77263878660744 32.692322138595664 L20.474531149322985 33.65403854104837 L18.095619891515675 34.5117489289421 L15.645293489098899 35.26206831122643 L13.13322226093535 35.902035520087814 L10.569320204506411 36.42912489732608 L7.963705869893377 36.841256261973506 L5.3266624264830265 37.13680311981872 L2.668597079995911 37.314599082436345 L8.916420819676206e-14 37.37394247038917 L-2.6685970799957146 37.31459908243635 L-5.326662426482831 37.13680311981874 L-7.963705869893201 36.84125626197352 L-10.569320204506237 36.42912489732611 L-13.13322226093518 35.90203552008785 L-15.645293489098734 35.26206831122648 L-18.09561989151551 34.511748928942154 L-20.474531149322832 33.65403854104843 L-22.772638786607292 32.69232213859574 L-24.980873222430052 31.630395176858116 L-27.090519564319262 30.472448596405254 L-29.093252001969223 29.223052283374745 L-30.981166665409948 27.887137034219236 L-32.746812817971 26.469975096105514 L-34.38322226093523 24.97715935976361 L-35.883936833835605 23.414581286902234 L-37.24303390186417 21.788407659300947 L-38.455149729805804 20.105056241339835 L-39.515500650250665 18.371170452015473 L-40.41990194254401 16.59359314640127 L-41.16478434796681 14.779339610024648 L-41.74720815596926 12.935569872740095 L-42.1648748058653 11.0695604513624 L-42.41613595820154 9.188675632579141 L-42.5 7.300338409475498 L-42.416135958201544 5.412001186371856 L-42.16487480586532 3.5311163675885875 L-41.747208155969275 1.6651069462108938 L-41.16478434796683 -0.1786627910736598 L-40.41990194254404 -1.9929163274502817 L-39.515500650250694 -3.770493633064483 L-38.45514972980584 -5.504379422388842 L-37.243033901864216 -7.187730840349959 L-35.883936833835655 -8.813904467951247 L-34.38322226093528 -10.37648254081263 L-32.746812817971055 -11.869298277154533 L-30.98116666541 -13.286460215268258 L-29.09325200196928 -14.622375464423778 L-27.090519564319322 -15.871771777454288 L-24.980873222430123 -17.029718357907143 L-22.772638786607374 -18.09164531964477 L-20.474531149322917 -19.053361722097467 L-18.09561989151561 -19.91107210999119 L-15.645293489098835 -20.661391492275516 L-13.133222260935291 -21.301358701136895 L-10.569320204506353 -21.82844807837516 L-7.96370586989332 -22.24057944302258 L-5.326662426482954 -22.536126300867792 L-2.668597079995841 -22.71392226348542 L-2.316162674458857e-14 -22.773265651438237 L2.668597079995795 -22.71392226348542 L5.326662426482907 -22.5361263008678 L7.963705869893274 -22.240579443022586 L10.569320204506306 -21.828448078375168 L13.133222260935245 -21.30135870113691 L15.645293489098796 -20.661391492275524 L18.095619891515568 -19.9110721099912 L20.47453114932288 -19.053361722097478 L22.772638786607335 -18.091645319644783 L24.98087322243009 -17.02971835790716 L27.090519564319294 -15.8717717774543 L29.093252001969248 -14.622375464423797 L30.981166665409972 -13.286460215268281 L32.746812817971026 -11.869298277154558 L34.383222260935256 -10.37648254081265 L35.88393683383563 -8.813904467951273 L37.243033901864194 -7.187730840349989 L38.455149729805825 -5.5043794223888725 L39.51550065025068 -3.7704936330645147 L40.41990194254402 -1.9929163274503066 L41.16478434796682 -0.17866279107368618 L41.74720815596927 1.6651069462108616 L42.1648748058653 3.5311163675885537 z"/>
<path fill="#bababa" stroke="#bababa" d="M42.416135958201544 8.94499611022969 L42.1648748058653 7.064111291446422 L41.74720815596927 5.1981018700687285 L41.16478434796682 3.3543321327841813 L40.41990194254402 1.5400785964075607 L39.51550065025068 -0.23749870920664695 L38.455149729805825 -1.971384498531005 L37.243033901864194 -3.6547359164921214 L35.88393683383563 -5.280909544093407 L34.383222260935256 -6.843487616954783 L32.746812817971026 -8.336303353296689 L30.981166665409972 -9.753465291410414 L29.093252001969248 -11.089380540565928 L27.090519564319294 -12.338776853596436 L24.98087322243009 -13.496723434049295 L22.772638786607335 -14.558650395786918 L20.47453114932288 -15.520366798239609 L18.095619891515568 -16.378077186133332 L15.645293489098796 -17.12839656841766 L13.133222260935245 -17.768363777279042 L10.569320204506306 -18.295453154517304 L7.963705869893274 -18.707584519164715 L5.326662426482907 -19.003131377009932 L2.668597079995795 -19.18092733962755 L-2.316162674458857e-14 -19.240270727580366 L-2.668597079995841 -19.18092733962755 L-5.326662426482954 -19.00313137700993 L-7.96370586989332 -18.707584519164712 L-10.569320204506353 -18.29545315451729 L-13.133222260935291 -17.76836377727903 L-15.645293489098835 -17.12839656841765 L-18.09561989151561 -16.37807718613332 L-20.474531149322917 -15.5203667982396 L-22.772638786607374 -14.558650395786902 L-24.980873222430123 -13.496723434049274 L-27.090519564319322 -12.33877685359642 L-29.09325200196928 -11.089380540565909 L-30.98116666541 -9.753465291410393 L-32.746812817971055 -8.336303353296666 L-34.38322226093528 -6.843487616954761 L-35.883936833835655 -5.280909544093379 L-37.243033901864216 -3.654735916492091 L-38.45514972980584 -1.9713844985309747 L-39.515500650250694 -0.23749870920661556 L-40.41990194254404 1.540078596407586 L-41.16478434796683 3.3543321327842075 L-41.747208155969275 5.198101870068761 L-42.16487480586532 7.064111291446455 L-42.416135958201544 8.944996110229724 L-42.5 10.833333333333366 L-42.41613595820154 12.721670556437006 L-42.1648748058653 14.60255537522027 L-41.74720815596926 16.468564796597963 L-41.16478434796681 18.312334533882517 L-40.41990194254401 20.126588070259135 L-39.515500650250665 21.90416537587334 L-38.455149729805804 23.6380511651977 L-37.24303390186417 25.321402583158815 L-35.883936833835605 26.947576210760104 L-34.38322226093523 28.510154283621482 L-32.746812817971 30.002970019963385 L-30.981166665409948 31.4201319580771 L-29.093252001969223 32.75604720723261 L-27.090519564319262 34.00544352026312 L-24.980873222430052 35.163390100715986 L-22.772638786607292 36.225317062453605 L-20.474531149322832 37.1870334649063 L-18.09561989151551 38.04474385280002 L-15.645293489098734 38.79506323508434 L-13.13322226093518 39.43503044394572 L-10.569320204506237 39.96211982118398 L-7.963705869893201 40.37425118583139 L-5.326662426482831 40.6697980436766 L-2.6685970799957146 40.847594006294216 L8.916420819676206e-14 40.90693739424703 L2.668597079995911 40.84759400629421 L5.3266624264830265 40.669798043676586 L7.963705869893377 40.37425118583137 L10.569320204506411 39.96211982118395 L13.13322226093535 39.435030443945685 L15.645293489098899 38.7950632350843 L18.095619891515675 38.04474385279997 L20.474531149322985 37.187033464906236 L22.77263878660744 36.225317062453534 L24.980873222430194 35.1633901007159 L27.0905195643194 34.00544352026304 L29.09325200196935 32.75604720723253 L30.981166665410072 31.420131958077008 L32.74681281797112 30.00297001996328 L34.38322226093533 28.510154283621375 L35.88393683383571 26.947576210759983 L37.24303390186426 25.321402583158704 L38.45514972980589 23.638051165197577 L39.51550065025073 21.904165375873223 L40.41990194254407 20.126588070259004 L41.16478434796685 18.312334533882392 L41.7472081559693 16.468564796597825 L42.164874805865324 14.602555375220144 L42.41613595820155 12.721670556436887 L42.5 10.833333333333332 z"/>
<path fill="#000000" stroke="#000000" d="M-5 53.616074450084604 L-5 48.314043993231806 L-5 52.559729272419624 L-5 54.32368866328257 z"/>
<path fill="#000000" stroke="#000000" d="M5 48.314043993231806 L-5 48.314043993231806 L-5 53.6160744500846 L5 53.6160744500846 z"/>
<path fill="#000000" stroke="#000000" d="M5 48.314043993231806 L5 52.559729272419624 L-5 52.559729272419624 L-5 48.314043993231806 z"/>
<path fill="#000000" stroke="#000000" d="M-5 54.32368866328257 L-5 52.559729272419624 L5 52.559729272419624 L5 54.32368866328257 z"/>
<path fill="#000000" stroke="#000000" d="M-5 53.6160744500846 L-5 54.32368866328257 L5 54.32368866328257 L5 53.6160744500846 z"/>
<path fill="#000000" stroke="#000000" d="M5 48.314043993231806 L5 53.616074450084604 L5 54.32368866328257 L5 52.559729272419624 z"/>
<path fill="#bababa" stroke="#bababa" d="M5 32.4155668358714 L5 48.314043993231806 L5 50.43688663282572 L5 34.538409475465315 z"/>
<path fill="#bababa" stroke="#bababa" d="M-5 32.4155668358714 L-5 48.314043993231806 L5 48.314043993231806 L5 32.4155668358714 z"/>
<path fill="#bababa" stroke="#bababa" d="M-5 34.538409475465315 L-5 50.43688663282572 L-5 48.314043993231806 L-5 32.4155668358714 z"/>
<path fill="#bababa" stroke="#bababa" d="M5 34.5384094754653 L5 50.43688663282572 L-5 50.43688663282572 L-5 34.5384094754653 z"/>
<path fill="#bababa" stroke="#bababa" d="M5 32.4155668358714 L5 34.53840947546531 L-5 34.53840947546531 L-5 32.4155668358714 z"/>
<path fill="#bababa" stroke="#bababa" d="M5 48.314043993231806 L-5 48.314043993231806 L-5 50.43688663282571 L5 50.43688663282571 z"/>
<path fill="#bababa" stroke="#bababa" d="M1 29.93891708967851 L1 37.004906937394246 L1 40.54297800338409 L1 33.47698815566836 z"/>
<path fill="#bababa" stroke="#bababa" d="M-1 29.938917089678508 L-1 37.00490693739424 L1 37.00490693739424 L1 29.938917089678508 z"/>
<path fill="#bababa" stroke="#bababa" d="M-1 33.47698815566836 L-1 40.54297800338409 L-1 37.004906937394246 L-1 29.93891708967851 z"/>
<path fill="#bababa" stroke="#bababa" d="M1 33.47698815566835 L1 40.54297800338409 L-1 40.54297800338409 L-1 33.47698815566835 z"/>
<path fill="#bababa" stroke="#bababa" d="M1 29.938917089678505 L1 33.47698815566835 L-1 33.47698815566835 L-1 29.938917089678505 z"/>
<path fill="#bababa" stroke="#bababa" d="M1 37.004906937394246 L-1 37.004906937394246 L-1 40.54297800338409 L1 40.54297800338409 z"/>
<path fill="#000000" stroke="#000000" d="M33 33.80287648054145 L30.5 30.26988155668358 L36.5 30.26988155668358 L34 33.80287648054145 z"/>
<path fill="#000000" stroke="#000000" d="M30.499999999999996 23.19373942470389 L30.499999999999996 30.269881556683586 L32.99999999999999 33.80287648054145 L32.99999999999999 26.726734348561756 z"/>
<path fill="#000000" stroke="#000000" d="M30.5 23.19373942470389 L36.5 23.19373942470389 L36.5 30.269881556683586 L30.5 30.269881556683586 z"/>
<path fill="#000000" stroke="#000000" d="M34 33.80287648054145 L36.5 30.269881556683586 L36.5 23.19373942470389 L34 26.726734348561756 z"/>
<path fill="#000000" stroke="#000000" d="M33 33.80287648054146 L34 33.80287648054146 L34 26.72673434856176 L33 26.72673434856176 z"/>
<path fill="#000000" stroke="#000000" d="M30.5 23.19373942470388 L33 26.72673434856175 L34 26.72673434856175 L36.5 23.19373942470388 z"/>
<path fill="#bababa" stroke="#bababa" d="M30.5 7.295262267343486 L30.5 23.193739424703885 L33.5 23.193739424703885 L33.5 7.295262267343486 z"/>
<path fill="#bababa" stroke="#bababa" d="M30.5 14.371404399323183 L30.5 30.269881556683586 L30.5 23.193739424703892 L30.5 7.295262267343488 z"/>
<path fill="#bababa" stroke="#bababa" d="M33.5 14.371404399323177 L33.5 30.26988155668358 L30.5 30.26988155668358 L30.5 14.371404399323177 z"/>
<path fill="#bababa" stroke="#bababa" d="M33.5 7.295262267343488 L33.5 23.193739424703892 L33.5 30.269881556683586 L33.5 14.371404399323183 z"/>
<path fill="#bababa" stroke="#bababa" d="M30.5 7.295262267343487 L33.5 7.295262267343487 L33.5 14.371404399323183 L30.5 14.371404399323183 z"/>
<path fill="#bababa" stroke="#bababa" d="M30.5 23.19373942470389 L30.5 30.269881556683586 L33.5 30.269881556683586 L33.5 23.19373942470389 z"/>
<path fill="#bababa" stroke="#bababa" d="M27 10.12571912013536 L27 17.191708967851085 L32 17.191708967851085 L32 10.12571912013536 z"/>
<path fill="#bababa" stroke="#bababa" d="M27 11.540947546531305 L27 18.60693739424704 L27 17.1917089678511 L27 10.125719120135365 z"/>
<path fill="#bababa" stroke="#bababa" d="M32 11.540947546531305 L32 18.606937394247037 L27 18.606937394247037 L27 11.540947546531305 z"/>
<path fill="#bababa" stroke="#bababa" d="M32 10.125719120135365 L32 17.1917089678511 L32 18.60693739424704 L32 11.540947546531305 z"/>
<path fill="#bababa" stroke="#bababa" d="M27 10.125719120135365 L32 10.125719120135365 L32 11.540947546531303 L27 11.540947546531303 z"/>
<path fill="#bababa" stroke="#bababa" d="M27 17.1917089678511 L27 18.60693739424704 L32 18.60693739424704 L32 17.1917089678511 z"/>
<path fill="#000000" stroke="#000000" d="M-33 26.72673434856175 L-30.5 23.19373942470388 L-36.5 23.19373942470388 L-34 26.72673434856175 z"/>
<path fill="#000000" stroke="#000000" d="M-30.499999999999996 30.269881556683586 L-30.499999999999996 23.19373942470389 L-32.99999999999999 26.726734348561756 L-32.99999999999999 33.80287648054145 z"/>
<path fill="#000000" stroke="#000000" d="M-30.5 30.269881556683586 L-36.5 30.269881556683586 L-36.5 23.19373942470389 L-30.5 23.19373942470389 z"/>
<path fill="#000000" stroke="#000000" d="M-34 26.726734348561756 L-36.5 23.19373942470389 L-36.5 30.269881556683586 L-34 33.80287648054145 z"/>
<path fill="#000000" stroke="#000000" d="M-33 26.72673434856176 L-34 26.72673434856176 L-34 33.80287648054146 L-33 33.80287648054146 z"/>
<path fill="#000000" stroke="#000000" d="M-30.5 30.26988155668358 L-33 33.80287648054145 L-34 33.80287648054145 L-36.5 30.26988155668358 z"/>
<path fill="#bababa" stroke="#bababa" d="M-30.5 14.371404399323177 L-30.5 30.26988155668358 L-33.5 30.26988155668358 L-33.5 14.371404399323177 z"/>
<path fill="#bababa" stroke="#bababa" d="M-30.5 7.295262267343488 L-30.5 23.193739424703892 L-30.5 30.269881556683586 L-30.5 14.371404399323183 z"/>
<path fill="#bababa" stroke="#bababa" d="M-33.5 7.295262267343486 L-33.5 23.193739424703885 L-30.5 23.193739424703885 L-30.5 7.295262267343486 z"/>
<path fill="#bababa" stroke="#bababa" d="M-33.5 14.371404399323183 L-33.5 30.269881556683586 L-33.5 23.193739424703892 L-33.5 7.295262267343488 z"/>
<path fill="#bababa" stroke="#bababa" d="M-30.5 14.371404399323183 L-33.5 14.371404399323183 L-33.5 7.295262267343487 L-30.5 7.295262267343487 z"/>
<path fill="#bababa" stroke="#bababa" d="M-30.5 30.269881556683586 L-30.5 23.19373942470389 L-33.5 23.19373942470389 L-33.5 30.269881556683586 z"/>
<path fill="#bababa" stroke="#bababa" d="M-27 11.540947546531305 L-27 18.606937394247037 L-32 18.606937394247037 L-32 11.540947546531305 z"/>
<path fill="#bababa" stroke="#bababa" d="M-27 10.125719120135365 L-27 17.1917089678511 L-27 18.60693739424704 L-27 11.540947546531305 z"/>
<path fill="#bababa" stroke="#bababa" d="M-32 10.12571912013536 L-32 17.191708967851085 L-27 17.191708967851085 L-27 10.12571912013536 z"/>
<path fill="#bababa" stroke="#bababa" d="M-32 11.540947546531305 L-32 18.60693739424704 L-32 17.1917089678511 L-32 10.125719120135365 z"/>
<path fill="#bababa" stroke="#bababa" d="M-27 11.540947546531303 L-32 11.540947546531303 L-32 10.125719120135365 L-27 10.125719120135365 z"/>
<path fill="#bababa" stroke="#bababa" d="M-27 18.60693739424704 L-27 17.1917089678511 L-32 17.1917089678511 L-32 18.60693739424704 z"/>
</svg>